<svg xmlns="http://www.w3.org/2000/svg" xmlns:xlink="http://www.w3.org/1999/xlink" width="110.519" height="98.857" viewBox="0 0 110.519 98.857">
  <defs>
    <clipPath id="clip-path">
      <rect id="Rectángulo_89938" data-name="Rectángulo 89938" width="110.519" height="98.857" fill="#cba124"/>
    </clipPath>
  </defs>
  <g id="Grupo_148867" data-name="Grupo 148867" transform="translate(5951 7487.155)">
    <g id="Grupo_148858" data-name="Grupo 148858" transform="translate(-5951 -7487.155)">
      <g id="Grupo_148585" data-name="Grupo 148585" clip-path="url(#clip-path)">
        <path id="Trazado_247711" data-name="Trazado 247711" d="M0,7.578A9.622,9.622,0,0,1,3.194,1.993,8.825,8.825,0,0,1,8.777.031c2.77-.029,5.54-.019,8.31,0,1.551.009,2.565.908,2.538,2.192a2.242,2.242,0,0,1-2.507,2.115c-2.7.018-5.4,0-8.094.008a4.346,4.346,0,0,0-4.7,4.713q-.015,13.869,0,27.738a4.321,4.321,0,0,0,4.636,4.67q16.351.018,32.7-.017a1.521,1.521,0,0,0,1.134-.516A28.767,28.767,0,0,1,54.733,30.015a1.94,1.94,0,0,0,.251-.209l-3.947-7.635c-.345.682-.639,1.244-.915,1.813-.8,1.649-1.609,3.292-2.377,4.955a2.4,2.4,0,0,1-2.131,1.715c-1.17.027-1.777-.737-2.266-1.695-1.715-3.36-3.462-6.7-5.2-10.054a6.816,6.816,0,0,1-.335-.675,2.187,2.187,0,0,1,.893-2.805,2.071,2.071,0,0,1,2.887.839c.865,1.489,1.617,3.045,2.416,4.573.463.887.923,1.776,1.466,2.82.905-1.87,1.748-3.608,2.588-5.347q.4-.825.787-1.655a2.205,2.205,0,0,1,4.155-.077q1.532,2.969,3.076,5.932c.165.318.336.632.576,1.083.208-.377.379-.657.522-.951.985-2.037,1.947-4.086,2.95-6.114A2.093,2.093,0,0,1,62.476,15.2a1.95,1.95,0,0,1,1.761,1.9,3.921,3.921,0,0,1-.451,1.735c-1.278,2.733-2.6,5.444-3.909,8.164-.169.352-.324.711-.572,1.257a29.364,29.364,0,0,1,11.631-.737c-.558-1.1-1.019-2.017-1.492-2.93q-1.535-2.968-3.08-5.93a2.319,2.319,0,0,1,.1-2.727c1.008-1.249,2.791-.979,3.644.588,1.064,1.956,2.054,3.953,3.08,5.93.176.34.373.669.658,1.179,1.054-2.186,2.038-4.2,3-6.232.517-1.087.981-2.239,2.451-2.24,1.407,0,1.9,1.1,2.428,2.137,1.058,2.063,2.131,4.117,3.3,6.379,1.088-2.264,2.072-4.326,3.071-6.381a7.582,7.582,0,0,1,.747-1.3,2.023,2.023,0,0,1,2.509-.63,2.111,2.111,0,0,1,1.2,2.4,4.88,4.88,0,0,1-.382,1c-1.628,3.4-3.274,6.8-4.889,10.2a2.259,2.259,0,0,1-4.355.078c-.995-1.953-2.011-3.894-3.02-5.84-.161-.31-.334-.613-.563-1.03l-3.118,6.486c1.8.915,3.566,1.7,5.221,2.684a26.769,26.769,0,0,1,9.375,9.349,1.451,1.451,0,0,0,1.46.8c3.021-.04,6.044-.011,9.066-.019,3.094-.007,4.842-1.727,4.844-4.79q.011-13.761,0-27.522c0-3.073-1.744-4.812-4.822-4.813q-32-.006-64,0a11.429,11.429,0,0,1-1.186-.021,2.177,2.177,0,0,1-2.069-2.1A2.186,2.186,0,0,1,36.232.039c.285-.028.575-.015.863-.015C58.464.023,79.833.053,101.2,0c4.783-.012,8.48,3.007,9.178,7.287a1.162,1.162,0,0,0,.138.291V38.231a4.056,4.056,0,0,0-.175.5,8.075,8.075,0,0,1-4.757,6.128,12.588,12.588,0,0,1-4.267.885c-2.6.137-5.222.039-7.884.039q5.41,18.569-8.85,31.381,8.307,8.318,16.509,16.53a2.56,2.56,0,0,0,.245.211,2.993,2.993,0,0,0,4.8-1.771,3.093,3.093,0,0,0-1.037-2.911c-2.066-2.051-4.118-4.117-6.179-6.174a2.292,2.292,0,0,1-.754-2.706c.648-1.482,2.367-1.724,3.657-.477,1.731,1.674,3.38,3.434,5.127,5.09a11.046,11.046,0,0,1,3.565,5.512V92.63a8.528,8.528,0,0,1-2.839,4.7,7.294,7.294,0,0,1-8.906.025,17.887,17.887,0,0,1-1.436-1.3Q89.473,88.2,81.63,80.321A1.14,1.14,0,0,0,80,80.065,28.046,28.046,0,0,1,40.128,63.58a27.6,27.6,0,0,1,.026-16.668c.106-.337.191-.681.315-1.125H39.2c-9.6,0-19.209-.124-28.809.05C5.275,45.93,1.173,43.773,0,38.231ZM90.656,55.293A23.741,23.741,0,1,0,66.881,79.027,23.816,23.816,0,0,0,90.656,55.293" transform="translate(0 0)" fill="#cba124"/>
        <path id="Trazado_247712" data-name="Trazado 247712" d="M61.987,78.684c1.181-2.449,2.275-4.709,3.362-6.973A2.225,2.225,0,0,1,67.7,70.2a2.085,2.085,0,0,1,1.669,2.993c-1.756,3.814-3.565,7.607-5.463,11.353a2.087,2.087,0,0,1-3.805-.116c-1.091-1.981-2.092-4.011-3.134-6.019-.178-.343-.37-.679-.654-1.2-.32.639-.573,1.133-.814,1.632q-1.311,2.716-2.615,5.435a2.166,2.166,0,0,1-2,1.4,2.2,2.2,0,0,1-2.045-1.342c-1.865-3.6-3.748-7.2-5.587-10.814a2.161,2.161,0,1,1,3.831-1.942c1.07,1.993,2.091,4.011,3.136,6.018.163.312.338.617.579,1.054,1.15-2.383,2.249-4.628,3.316-6.888A2.356,2.356,0,0,1,56,70.187a2.221,2.221,0,0,1,2.309,1.423c1.183,2.292,2.378,4.578,3.676,7.074" transform="translate(-33.656 -55.019)" fill="#cba124"/>
        <path id="Trazado_247713" data-name="Trazado 247713" d="M120.361,2.356a2.141,2.141,0,1,1-4.282-.052,2.141,2.141,0,0,1,4.282.052" transform="translate(-91.023 -0.148)" fill="#cba124"/>
        <path id="Trazado_247714" data-name="Trazado 247714" d="M434.429,344.648a2.15,2.15,0,0,1-2.152,2.1,2.172,2.172,0,0,1-2.13-2.132,2.141,2.141,0,0,1,4.283.031" transform="translate(-337.297 -268.564)" fill="#cba124"/>
        <path id="Trazado_247715" data-name="Trazado 247715" d="M241.028,168.131a18.993,18.993,0,1,1-19.014,18.918,19.057,19.057,0,0,1,19.014-18.918m14.653,19.027A14.675,14.675,0,1,0,240.946,201.8a14.723,14.723,0,0,0,14.736-14.641" transform="translate(-174.091 -131.839)" fill="#cba124"/>
        <path id="Trazado_247716" data-name="Trazado 247716" d="M311.926,220.677A2.21,2.21,0,0,1,310,223.015a2.178,2.178,0,0,1-2.343-1.907c-.728-3.985-1.722-4.989-5.585-5.638a2.149,2.149,0,1,1,.42-4.277,9.785,9.785,0,0,1,9.437,9.484" transform="translate(-235.311 -165.605)" fill="#cba124"/>
      </g>
    </g>
  </g>
</svg>
