<svg xmlns="http://www.w3.org/2000/svg" xmlns:xlink="http://www.w3.org/1999/xlink" width="97.81" height="83.429" viewBox="0 0 97.81 83.429">
  <defs>
    <clipPath id="clip-path">
      <rect id="Rectángulo_89942" data-name="Rectángulo 89942" width="97.81" height="83.429" fill="#98791b"/>
    </clipPath>
  </defs>
  <g id="Grupo_148874" data-name="Grupo 148874" transform="translate(5992.26 7312)">
    <g id="Grupo_148862" data-name="Grupo 148862" transform="translate(-5992.26 -7312)">
      <g id="Grupo_148604" data-name="Grupo 148604" clip-path="url(#clip-path)">
        <path id="Trazado_247740" data-name="Trazado 247740" d="M82.328,55.2l-2.15,5.444H83.19c.907,0,1.814-.016,2.72,0a3.21,3.21,0,0,1,3.357,3.366c.018,1.455,0,2.91,0,4.528,1.3,0,2.556.076,3.8-.014,3.945-.287,4.885,1.744,4.727,4.683-.118,2.2-.014,4.4-.026,6.607a3.286,3.286,0,0,1-3.628,3.6q-5.587.016-11.173,0a3.277,3.277,0,0,1-3.619-3.608c-.006-1.032,0-2.065,0-3.162H18.38c0,1.065.008,2.092,0,3.118-.022,2.41-1.255,3.649-3.656,3.654q-5.538.012-11.076,0c-2.4-.006-3.634-1.253-3.639-3.663C0,77.167-.005,74.575.01,71.984a3.2,3.2,0,0,1,3.464-3.442c1.392-.013,2.785-.008,4.177-.013A2.628,2.628,0,0,0,8,68.454c0-1.239,0-2.518,0-3.8,0-2.863,1.145-4.013,3.991-4.014h5.1c-.672-1.787-1.287-3.508-1.993-5.191-.085-.2-.654-.281-1-.283a10.243,10.243,0,1,1,.035-20.485c.742.008.98-.244,1.215-.876q.877-2.36,1.929-4.653a1.019,1.019,0,0,0-.216-1.4,9.783,9.783,0,0,1-2.717-10.238,9.708,9.708,0,0,1,7.726-7.128,9.723,9.723,0,0,1,9.407,2.879,1.015,1.015,0,0,0,1.4.265c1.52-.711,3.074-1.356,4.649-1.936a1.073,1.073,0,0,0,.874-1.222A10.229,10.229,0,0,1,58.362,7.087a14.283,14.283,0,0,1,.512,3.433.961.961,0,0,0,.754,1.018c1.6.607,3.19,1.247,4.741,1.968a1.067,1.067,0,0,0,1.472-.28,10.238,10.238,0,0,1,17.544,7.667,9.781,9.781,0,0,1-3.154,6.881.932.932,0,0,0-.234,1.3c.841,1.816,1.6,3.671,2.4,5.544,7.126.624,11.132,4.375,11.155,10.373A10.418,10.418,0,0,1,82.328,55.2M70.171,60.643c2.31,0,4.475-.023,6.638.015a1.068,1.068,0,0,0,1.175-.756c.761-1.956,1.572-3.893,2.3-5.861.416-1.12.664-1.311,1.853-1.168a7.678,7.678,0,0,0,7.9-3.63,7.545,7.545,0,0,0-.033-8.692,7.71,7.71,0,0,0-7.94-3.57c-1.089.135-1.371-.089-1.781-1.137q-1.338-3.427-2.808-6.8c-.489-1.115-.489-1.392.451-2.138a7.753,7.753,0,0,0,3.053-8.246,7.574,7.574,0,0,0-6.04-6.038A7.717,7.717,0,0,0,66.7,15.672c-.749.949-1.012.95-2.131.454-2.182-.968-4.384-1.9-6.614-2.751-1.3-.5-1.463-.653-1.314-2.033a7.68,7.68,0,0,0-3.664-7.805,7.555,7.555,0,0,0-8.695.071,7.761,7.761,0,0,0-3.565,7.864c.13,1.177-.068,1.441-1.148,1.86-2.255.875-4.5,1.783-6.712,2.763-1.227.544-1.424.568-2.27-.519A7.831,7.831,0,0,0,24.514,12.4,8.035,8.035,0,0,0,19.3,26.8c1.136.887,1.107,1.077.542,2.343-.973,2.179-1.871,4.395-2.729,6.622-.441,1.142-.693,1.329-1.924,1.193a7.73,7.73,0,0,0-7.841,3.6,7.551,7.551,0,0,0-.015,8.7,7.675,7.675,0,0,0,7.822,3.622c1.3-.149,1.518.023,1.973,1.263.723,1.969,1.511,3.916,2.347,5.84a1.35,1.35,0,0,0,1,.626c1.519.068,3.043.029,4.565.029h2.072a26.646,26.646,0,1,1,43.058,0m-6.252,0c.889,0,1.692-.038,2.489.012a1.469,1.469,0,0,0,1.385-.677,23.761,23.761,0,0,0,4.641-20.239A24.366,24.366,0,1,0,29.523,60.015c.194.239.463.567.715.584,1.016.067,2.039.028,3.033.028.285-7.3,3.983-11.494,11.251-12.852a6.6,6.6,0,0,0-.876-1.013,8.743,8.743,0,0,1-3.773-7.3c-.016-1.684-.023-3.369,0-5.053a8.749,8.749,0,0,1,17.5-.01c.022,1.587,0,3.174.008,4.761a8.825,8.825,0,0,1-3.923,7.705c-.273.193-.407.582-.7,1.028A12.026,12.026,0,0,1,63.919,60.643M48.641,74.4H85.355c1.446,0,1.711-.257,1.713-1.675q.005-4.03,0-8.061c0-1.589-.2-1.788-1.785-1.788q-15.2,0-30.392,0c-6.83,0-13.661.033-20.491.033-7.509,0-15.019-.024-22.529-.032-1.432,0-1.678.257-1.68,1.714q0,4.029,0,8.058c0,1.509.242,1.751,1.734,1.751H48.641m6.484-39.619c-.376.094-.651.166-.928.232-1.679.4-3.434.824-5.04.052-2.181-1.049-4.277-.692-6.406-.057a1.162,1.162,0,0,0-.662.835,37.5,37.5,0,0,0-.011,3.877,6.513,6.513,0,0,0,6.329,6.347A6.409,6.409,0,0,0,55.1,40.144c.16-1.727.028-3.48.028-5.359M81.6,76.584a35.5,35.5,0,0,0,.049,3.691,1.388,1.388,0,0,0,1.007.9c3.918.065,7.838.044,11.758.039a.988.988,0,0,0,1.106-1.077c.012-2.786.033-5.573-.037-8.358a1.327,1.327,0,0,0-.836-.977c-1.762-.094-3.532-.046-5.374-.046,0,.731,0,1.341,0,1.951,0,2.705-1.188,3.877-3.923,3.88-1.222,0-2.445,0-3.75,0M8,70.73c-1.647,0-3.133-.01-4.619,0A1.06,1.06,0,0,0,2.2,71.867q-.027,4.128,0,8.256a1.01,1.01,0,0,0,1.111,1.086c3.917.007,7.834.027,11.749-.036a1.4,1.4,0,0,0,1.04-.867,35.971,35.971,0,0,0,.05-3.727c-1.733,0-3.347.031-4.958-.008A3.172,3.172,0,0,1,8,73.349c-.021-.834,0-1.67,0-2.619M49.742,60.565h6.1c.022-.908-.1-1.952,1.085-1.993,1.337-.047,1.1,1.155,1.234,1.987H61.62c.393-5.353-4.31-10.881-8.617-10.2a1.143,1.143,0,0,0-.058.273,4.411,4.411,0,0,1-2.809,4.54.872.872,0,0,0-.377.663c-.033,1.548-.017,3.1-.017,4.728M44.215,50.294c-4.826.079-9.391,5.314-8.485,10.288h3.375c.121-.883-.1-2.021,1.189-2.01,1.267.01,1.049,1.145,1.16,2H47.5c0-1.626.031-3.177-.029-4.725a1.206,1.206,0,0,0-.631-.78,4.3,4.3,0,0,1-2.369-2.8,15.439,15.439,0,0,1-.252-1.969M54.777,32.518a6.363,6.363,0,0,0-6.753-4.574c-2.669.206-5.383,2.516-5.538,4.772.323-.079.628-.164.936-.226,1.855-.376,3.762-.722,5.532.12,2.016.959,3.89.5,5.822-.092M46.523,48.229c0,1.022-.076,2.117.022,3.2a2.1,2.1,0,0,0,4.15-.012c.1-1.074.022-2.164.022-3.184Z" transform="translate(0 0)" fill="#98791b"/>
        <path id="Trazado_247741" data-name="Trazado 247741" d="M90.345,270.467H58.392c-.292,0-.583.011-.874-.005-.722-.039-1.181-.4-1.16-1.148.02-.7.483-1.02,1.16-1.042.291-.009.583-.008.874-.008H122.3c.356,0,.783-.105,1.051.052.393.231.96.685.929.99-.042.408-.536.833-.931,1.119-.215.155-.628.041-.951.041H90.345" transform="translate(-41.727 -198.597)" fill="#98791b"/>
        <path id="Trazado_247742" data-name="Trazado 247742" d="M90.46,251.944h31.856c.291,0,.583,0,.874,0a1.025,1.025,0,0,1,1.139,1.059c.008.735-.453,1.1-1.184,1.12-.226.005-.453,0-.68,0H58.171c-.259,0-.52.015-.777-.009a1.028,1.028,0,0,1-1.043-1.062,1.017,1.017,0,0,1,1.089-1.106c.323-.017.647-.01.971-.01H90.46" transform="translate(-41.722 -186.538)" fill="#98791b"/>
      </g>
    </g>
  </g>
</svg>
