<svg xmlns="http://www.w3.org/2000/svg" xmlns:xlink="http://www.w3.org/1999/xlink" width="98" height="98" viewBox="0 0 98 98">
  <defs>
    <clipPath id="clip-path">
      <rect id="Rectángulo_89952" data-name="Rectángulo 89952" width="98" height="98" transform="translate(0 -0.19)" fill="#cba124"/>
    </clipPath>
  </defs>
  <g id="Grupo_148872" data-name="Grupo 148872" transform="translate(5748.26 7327)">
    <g id="Grupo_148864" data-name="Grupo 148864" transform="translate(-5748.26 -7327.275)">
      <g id="Grupo_148608" data-name="Grupo 148608" transform="translate(0 0.465)" clip-path="url(#clip-path)">
        <path id="Trazado_247748" data-name="Trazado 247748" d="M89.172,98.185H9.013c-1.266-.284-2.555-.489-3.792-.868A6.841,6.841,0,0,1,.2,91.982a3.284,3.284,0,0,0-.2-.508V89.556a2.22,2.22,0,0,1,2.291-1.187q13.127.038,26.254.011c1.049,0,2.318.3,3.085-.18s1.046-1.756,1.519-2.693c.6-1.179,1.172-2.368,1.815-3.67H33.652q-12.409,0-24.817,0A8.743,8.743,0,0,1,2.6,79.6a9.289,9.289,0,0,1-2.6-5V26.848a21.515,21.515,0,0,1,1.64-3.817c1.688-2.506,4.26-3.411,7.208-3.408q8.05.011,16.1,0h1.239V18.388q0-8.625,0-17.25c0-.379.053-.759.081-1.138h3.26c-.022.413-.062.826-.062,1.239q0,17.589,0,35.179c0,.256.005.511,0,.767-.04,1.491-.628,2.087-2.11,2.1-1.342.015-2.684,0-4.026.006-.228,0-.456.043-.809.078.229.167.324.249.43.312q12.768,7.663,25.529,15.338a1.151,1.151,0,0,0,1.381-.11Q62.379,47.388,74.9,39.88c.227-.136.436-.3.848-.589H71.308c-2.131,0-2.59-.457-2.59-2.586q0-17.733,0-35.466c0-.413-.041-.826-.062-1.239h3.26c.028.379.081.759.081,1.138Q72,9.763,72,18.388v1.237h1.239q8.05,0,16.1,0a8.778,8.778,0,0,1,6.238,2.231,9.288,9.288,0,0,1,2.611,4.993V74.6a9.291,9.291,0,0,1-2.6,5,8.743,8.743,0,0,1-6.232,2.24q-12.456,0-24.912,0H63.208c1.009,2.025,1.963,3.86,2.836,5.733a1.288,1.288,0,0,0,1.392.83c9.486-.024,18.972-.006,28.458-.03a2.221,2.221,0,0,1,2.292,1.187v1.918a2.007,2.007,0,0,0-.189.414,6.869,6.869,0,0,1-5.122,5.464c-1.207.366-2.467.562-3.7.834M9.86,29.523V68.66H88.318V29.529H72.077v6.486H73.2c2.812,0,5.624-.011,8.435.008A1.588,1.588,0,0,1,83.422,37.7,1.937,1.937,0,0,1,82.23,39.3Q66.3,48.86,50.374,58.429a2.239,2.239,0,0,1-2.575-.007Q31.883,48.84,15.941,39.3c-.807-.484-1.4-1.073-1.124-2.082S15.9,36,16.848,36.008c2.748.019,5.5.008,8.243,0,.337,0,.673-.028,1.04-.044V29.523Zm16.267-6.618H25.082q-8.1,0-16.2,0c-3.674.005-5.611,1.956-5.612,5.629q0,22.2,0,44.391c0,3.662,1.955,5.629,5.618,5.629q40.221.005,80.442-.007a7.866,7.866,0,0,0,1.991-.215c2.294-.607,3.6-2.536,3.6-5.242q0-22.292,0-44.583c0-3.658-1.949-5.6-5.638-5.6q-8.1-.01-16.2,0c-.337,0-.674.033-1.009.051v3.229h1.2q8.006,0,16.012,0c1.877,0,2.377.509,2.377,2.4q0,20.518,0,41.036c0,1.871-.505,2.375-2.4,2.375Q49.079,72,8.906,72c-1.874,0-2.372-.511-2.372-2.4q0-20.518,0-41.036c0-1.867.507-2.369,2.4-2.371q8.006-.005,16.012,0h1.178ZM3.575,91.682a3.1,3.1,0,0,0,2.452,2.443,29.223,29.223,0,0,0,5.945.761q37.1.075,74.193.031c.671,0,1.344.011,2.012-.041a10.631,10.631,0,0,0,4.89-1.148,2.776,2.776,0,0,0,1.52-2.047ZM35.4,88.323H62.782c-1.059-2.118-2.052-4.141-3.1-6.137a1.023,1.023,0,0,0-.784-.335q-9.817-.027-19.633,0a1.016,1.016,0,0,0-.778.345c-1.042,2-2.034,4.017-3.088,6.128" transform="translate(0 -0.872)" fill="#cba124"/>
        <path id="Trazado_247749" data-name="Trazado 247749" d="M137.574,48.614H134.3c0-1.146-.034-2.284.008-3.419a24.3,24.3,0,0,1,.305-4.57c.862-3.7,3.36-5.811,7.057-6.6-.014-.081,0-.2-.049-.25-3.919-3.454-4.65-7.791-3.546-12.657.849-3.742,2.767-6.632,6.577-7.78,3.876-1.169,7.742-1.085,11.25,1.2,2.9,1.89,3.926,4.908,4.408,8.166.638,4.315-.444,8.036-3.771,10.99a.322.322,0,0,0-.089.136,28.6,28.6,0,0,1,3.642,1.746,7.483,7.483,0,0,1,3.524,5.869c.163,2.347.035,4.713.035,7.147H160.51c0-1.8.059-3.582-.024-5.358a8.308,8.308,0,0,0-.539-2.882,5.043,5.043,0,0,0-4.856-3.142q-6.04-.084-12.081,0c-3.216.049-5.382,2.377-5.432,5.719-.028,1.877-.005,3.755-.005,5.686M141.127,27.3a9.382,9.382,0,0,0,4.485,5.319,8.329,8.329,0,0,0,3.75,1.2c3.034-.07,6.973-3.715,7.622-6.7.044-.2,0-.561-.137-.643-1.831-1.139-3.685-2.242-5.53-3.353-2.748,3.051-6.38,3.706-10.19,4.18m15.725-4.677c-.383-4.813-4.211-7.336-9.7-6.546-4,.577-6.164,3.969-6.014,8.115a57.371,57.371,0,0,0,5.512-1.631,5.283,5.283,0,0,0,2.25-1.935c1.04-1.563,1.612-1.8,3.256-.818,1.547.926,3.093,1.854,4.694,2.814" transform="translate(-99.949 -10.25)" fill="#cba124"/>
        <path id="Trazado_247750" data-name="Trazado 247750" d="M301.115,217.834V221h3.241v3.268h-3.181V227.5h-3.284v-3.161h-3.239V221.06h3.195v-3.226Z" transform="translate(-219.312 -163.008)" fill="#cba124"/>
      </g>
    </g>
  </g>
</svg>
