<svg xmlns="http://www.w3.org/2000/svg" xmlns:xlink="http://www.w3.org/1999/xlink" width="190" height="104" viewBox="0 0 190 104">
  <defs>
    <clipPath id="clip-path">
      <rect id="Rect치ngulo_89718" data-name="Rect치ngulo 89718" width="73.636" height="66.536" fill="none"/>
    </clipPath>
  </defs>
  <g id="Grupo_148864" data-name="Grupo 148864" transform="translate(-285.334 -416)">
    <g id="Grupo_146850" data-name="Grupo 146850" transform="translate(0.285 5)">
      <rect id="Rect치ngulo_41122" data-name="Rect치ngulo 41122" width="190" height="104" transform="translate(285.049 411)" fill="none"/>
      <g id="Grupo_117447" data-name="Grupo 117447" transform="translate(-3337.23 1038.208)" opacity="0.3">
        <path id="Trazado_158283" data-name="Trazado 158283" d="M3677.784-530.075h0a16.354,16.354,0,0,0,23.129,0l67.216-67.214a16.357,16.357,0,0,0,0-23.129,16.355,16.355,0,0,0-23.129,0L3677.784-553.2A16.353,16.353,0,0,0,3677.784-530.075Z" transform="translate(14.296)" fill="#fc4b52"/>
        <path id="Trazado_158284" data-name="Trazado 158284" d="M3652.069-530.075h0a16.354,16.354,0,0,0,23.129,0l67.216-67.214a16.358,16.358,0,0,0,0-23.129,16.355,16.355,0,0,0-23.129,0L3652.069-553.2A16.354,16.354,0,0,0,3652.069-530.075Z" transform="translate(0)" fill="#feca2e"/>
      </g>
      <g id="Grupo_148239" data-name="Grupo 148239" transform="translate(343.049 430)">
        <g id="Grupo_148239-2" data-name="Grupo 148239" clip-path="url(#clip-path)">
          <path id="Trazado_246549" data-name="Trazado 246549" d="M73.636,45.784a4.17,4.17,0,0,0-.375,1.2,7.823,7.823,0,0,1-7.586,5.41c-5.919.013-11.838,0-17.758,0h-.863c.347,1.767.681,3.489,1.023,5.209.368,1.853.757,3.7,1.107,5.558.081.433.235.584.695.578,2.18-.027,4.361-.02,6.542-.008.931,0,1.423.381,1.575,1.141a1.336,1.336,0,0,1-1.114,1.62,5.769,5.769,0,0,1-.86.042q-19.2,0-38.391,0c-1.366,0-2.013-.435-2.042-1.37s.665-1.438,2.047-1.438c2.037,0,4.074-.008,6.111.007.38,0,.61-.041.7-.489.663-3.428,1.334-6.855,2.047-10.273.123-.588-.085-.588-.54-.587q-8.987.018-17.974,0a7.8,7.8,0,0,1-7.763-6.02A8.578,8.578,0,0,1,0,44.306Q.006,26.188,0,8.071A7.749,7.749,0,0,1,8.059.012c5.56-.019,11.119,0,16.679,0Q45.084.007,65.43,0a7.8,7.8,0,0,1,7.531,4.645,5.132,5.132,0,0,1,.556,1.99c.124.236-.05.52.119.749Z" transform="translate(0 -0.001)"/>
          <path id="Trazado_246550" data-name="Trazado 246550" d="M407.965,37.485a.841.841,0,0,1-.119-.749.073.073,0,0,1,.119.03Z" transform="translate(-334.329 -30.101)" fill="#505050"/>
          <path id="Trazado_246551" data-name="Trazado 246551" d="M49.469,51.028q-16.569,0-33.139.016c-.668,0-.867-.18-.8-.824s-.209-1.505.117-1.869c.379-.424,1.26-.126,1.922-.131,2.036-.017,4.073-.006,6.11-.007a1.638,1.638,0,0,0,1.505-.658,1.336,1.336,0,0,0,.1-1.363,1.438,1.438,0,0,0-1.4-.828c-1.486-.009-2.971,0-4.457,0-1.1,0-2.205-.024-3.306.011-.47.015-.594-.119-.59-.59.022-3.091.011-6.182.011-9.273q0-7.3,0-14.593a4.91,4.91,0,0,1,3.685-5.1,6.167,6.167,0,0,1,1.7-.2q28.574,0,57.149,0c3.352,0,5.4,2.062,5.4,5.426q.005,14.629.016,29.258c0,.605-.154.739-.746.738q-16.642-.029-33.283-.014" transform="translate(-12.691 -12.804)" fill="#f2fbe3"/>
          <path id="Trazado_246552" data-name="Trazado 246552" d="M49.729,227.735q16.572,0,33.143-.019c.718,0,.891.2.836.87-.115,1.424.18,2.873-.287,4.278a4.9,4.9,0,0,1-4.332,3.34c-.263.016-.527.021-.79.021q-28.578,0-57.157.01a5.059,5.059,0,0,1-4.88-2.781,4.794,4.794,0,0,1-.51-2.289c0-.959.021-1.918-.01-2.875-.014-.434.1-.573.555-.566,1.7.028,3.4.011,5.1.011Z" transform="translate(-12.905 -186.684)" fill="#e0f6be"/>
          <path id="Trazado_246553" data-name="Trazado 246553" d="M161.044,302.051c-2.945,0-5.89-.019-8.835.015-.616.007-.776-.129-.649-.743q1.036-5.021,2.014-10.054c.084-.427.257-.566.7-.564q6.752.028,13.5,0c.5,0,.641.177.728.623q.976,5,2,9.983c.121.588.009.766-.632.758-2.945-.036-5.89-.016-8.835-.016" transform="translate(-124.217 -238.322)" fill="#a7e446"/>
          <path id="Trazado_246554" data-name="Trazado 246554" d="M181.833,89.793c1.183.269,2.465.556,3.745.852,3.049.706,6.095,1.427,9.147,2.118a1.6,1.6,0,0,1,1.371,1.1,1.545,1.545,0,0,1-.584,1.592c-.649.638-1.272,1.3-1.939,1.921-.312.289-.266.448.017.719.815.776,1.6,1.58,2.394,2.381a1.509,1.509,0,0,1,.032,2.475q-1.285,1.307-2.592,2.59a1.468,1.468,0,0,1-2.372.012q-1.265-1.224-2.488-2.49c-.265-.275-.423-.268-.682.007-.641.679-1.306,1.335-1.977,1.985-1.038,1.006-2.263.692-2.593-.7q-1.5-6.346-2.949-12.706a1.457,1.457,0,0,1,1.47-1.854" transform="translate(-147.826 -73.613)"/>
          <path id="Trazado_246555" data-name="Trazado 246555" d="M209.983,61.8a1.164,1.164,0,0,1-.145.617,7.787,7.787,0,0,1-2.008,2.008A1.257,1.257,0,0,1,206.2,64.2a1.31,1.31,0,0,1-.206-1.7,7.051,7.051,0,0,1,1.919-1.9,1.363,1.363,0,0,1,2.074,1.191" transform="translate(-168.689 -49.513)"/>
          <path id="Trazado_246556" data-name="Trazado 246556" d="M184.808,49.8a9.552,9.552,0,0,1-.1,1.257,1.3,1.3,0,0,1-1.382,1.091,1.271,1.271,0,0,1-1.309-1.088,7.187,7.187,0,0,1-.008-2.555,1.349,1.349,0,0,1,1.349-1.143,1.369,1.369,0,0,1,1.359,1.138,10.585,10.585,0,0,1,.095,1.3" transform="translate(-149.12 -38.827)" fill="#010100"/>
          <path id="Trazado_246557" data-name="Trazado 246557" d="M154.888,63.035A1.369,1.369,0,0,1,152.8,64.26a7.067,7.067,0,0,1-1.911-1.907,1.231,1.231,0,0,1,.144-1.587,1.194,1.194,0,0,1,1.474-.4,6.108,6.108,0,0,1,2.315,2.259.96.96,0,0,1,.07.415" transform="translate(-123.511 -49.388)"/>
          <path id="Trazado_246558" data-name="Trazado 246558" d="M154.96,116.793a1.155,1.155,0,0,1-.213.74,9.184,9.184,0,0,1-1.874,1.849,1.353,1.353,0,0,1-1.7-.181,1.319,1.319,0,0,1-.2-1.7,6.991,6.991,0,0,1,1.918-1.9,1.357,1.357,0,0,1,2.069,1.192" transform="translate(-123.584 -94.598)"/>
          <path id="Trazado_246559" data-name="Trazado 246559" d="M140.2,94.6c-.359,0-.72.026-1.077-.005a1.364,1.364,0,0,1-1.306-1.36,1.322,1.322,0,0,1,1.26-1.387,16.7,16.7,0,0,1,2.294,0,1.331,1.331,0,0,1,1.243,1.339,1.372,1.372,0,0,1-1.267,1.4c-.379.037-.765.007-1.148.007v0" transform="translate(-112.983 -75.263)"/>
          <path id="Trazado_246560" data-name="Trazado 246560" d="M81.473,182.232a1.4,1.4,0,1,1-2.806-.052,1.4,1.4,0,0,1,2.806.052" transform="translate(-64.492 -148.226)" fill="#010101"/>
          <path id="Trazado_246561" data-name="Trazado 246561" d="M191.436,241.389a2.83,2.83,0,0,1-2.836-2.828,2.836,2.836,0,0,1,5.671,0,2.829,2.829,0,0,1-2.836,2.828" transform="translate(-154.616 -193.272)"/>
          <path id="Trazado_246562" data-name="Trazado 246562" d="M200.516,116.525l-1.925-8.328,8.229,1.893a8.126,8.126,0,0,1-1.318,1.431c-.918.957-.929,1.642,0,2.585.775.784,1.53,1.59,2.344,2.331.546.5.021.667-.2.938-.239.292-.437.51-.823.084-.771-.851-1.606-1.646-2.428-2.45a1.476,1.476,0,0,0-2.373,0c-.48.464-.941.947-1.509,1.521" transform="translate(-162.807 -88.701)" fill="#85b638"/>
        </g>
      </g>
    </g>
  </g>
</svg>
