<svg xmlns="http://www.w3.org/2000/svg" width="86.107" height="72.281" viewBox="0 0 86.107 72.281">
  <g id="Grupo_148760" data-name="Grupo 148760" transform="translate(0 -0.001)">
    <rect id="Rectángulo_90019" data-name="Rectángulo 90019" width="34.303" height="17.151" transform="translate(0.875 26.778)" fill="#feca2e"/>
    <path id="Trazado_249024" data-name="Trazado 249024" d="M1.75,75.75H34.3v15.4H1.75ZM0,92.9H36.053V74H0Z" transform="translate(0 -48.097)" fill="#1d1d1b"/>
    <rect id="Rectángulo_90020" data-name="Rectángulo 90020" width="33.253" height="13.651" transform="translate(51.979 0.876)" fill="#fc4b52"/>
    <path id="Trazado_249025" data-name="Trazado 249025" d="M147.75,1.751h31.5v11.9h-31.5ZM146,15.4h35V0H146Z" transform="translate(-94.896)" fill="#1d1d1b"/>
    <rect id="Rectángulo_90021" data-name="Rectángulo 90021" width="33.253" height="13.651" transform="translate(51.979 26.778)" fill="#fc4b52"/>
    <path id="Trazado_249026" data-name="Trazado 249026" d="M147.75,75.75h31.5v11.9h-31.5ZM146,89.4h35V74H146Z" transform="translate(-94.896 -48.097)" fill="#1d1d1b"/>
    <rect id="Rectángulo_90022" data-name="Rectángulo 90022" width="33.253" height="13.651" transform="translate(51.979 57.756)" fill="#fc4b52"/>
    <path id="Trazado_249027" data-name="Trazado 249027" d="M147.75,164.25h31.5v11.9h-31.5ZM146,177.9h35V162.5H146Z" transform="translate(-94.896 -105.619)" fill="#1d1d1b"/>
    <path id="Trazado_249028" data-name="Trazado 249028" d="M106.451,52.627H100.5v-1.4h4.55V25.5H117.3v1.4H106.451Z" transform="translate(-65.322 -16.574)" fill="#1d1d1b"/>
    <path id="Trazado_249029" data-name="Trazado 249029" d="M117.3,129.628H105.05V100.4H100.5V99h5.951v29.228H117.3Z" transform="translate(-65.322 -64.346)" fill="#1d1d1b"/>
    <rect id="Rectángulo_90023" data-name="Rectángulo 90023" width="11.551" height="1.4" transform="translate(40.428 34.654)" fill="#1d1d1b"/>
  </g>
</svg>
