<svg id="Grupo_148766" data-name="Grupo 148766" xmlns="http://www.w3.org/2000/svg" xmlns:xlink="http://www.w3.org/1999/xlink" width="72.13" height="72.281" viewBox="0 0 72.13 72.281">
  <defs>
    <clipPath id="clip-path">
      <rect id="Rectángulo_90026" data-name="Rectángulo 90026" width="72.13" height="72.281" fill="none"/>
    </clipPath>
  </defs>
  <g id="Grupo_148766-2" data-name="Grupo 148766" transform="translate(0 0)" clip-path="url(#clip-path)">
    <path id="Trazado_249080" data-name="Trazado 249080" d="M35,54.627a3.93,3.93,0,0,0,2.761-.641,18.856,18.856,0,0,1,20.3.032q.371.236.739.473c.048-.069.093-.1.093-.14.046-1.965.2-2.113,2.176-2.113q4.734,0,9.466,0c1.187,0,1.589.395,1.589,1.564q0,10.462,0,20.925c0,1.213-.394,1.6-1.63,1.6q-23.779,0-47.556,0a11.544,11.544,0,0,1-5.273-1.247Q10.539,71.5,3.4,67.927A5.634,5.634,0,0,1,.269,61.068a5.771,5.771,0,0,1,6.466-3.942,7.346,7.346,0,0,1,2.338.756C13.135,59.91,17.2,61.931,21.4,64.02a6.2,6.2,0,0,1,.737-7.581,1.271,1.271,0,0,1,.637-.8,6.48,6.48,0,0,1,3.721-1.219c2.5,0,5,0,7.506,0a1.386,1.386,0,0,1,1,.2" transform="translate(0 -4.05)"/>
    <path id="Trazado_249081" data-name="Trazado 249081" d="M35.984,51.39c-2.651.007-5.3.058-7.951.006A6.666,6.666,0,0,0,23.116,53.2a10.051,10.051,0,0,0-1.77-1.711.259.259,0,0,1,.019-.281c.5-.834.5-.834-.21-1.549q-4.135-4.143-8.264-8.291c-.236-.238-.66-.431-.434-.91a29.759,29.759,0,0,1,4.947-1.5c.338.253.05.439-.088.609a8.472,8.472,0,0,1-.839.857.6.6,0,0,0-.038,1.006c.96,1.027.953,1.04,1.964.028q2.359-2.363,4.718-4.725a1.806,1.806,0,0,1,.827-.621,11.825,11.825,0,0,0,2.916-1.261c.342-.145.648-.363.991-.509.411-.017.607.311.847.55,1.506,1.5,3.016,2.99,4.5,4.514.417.43.7.414,1.1-.006,1.032-1.076.981-.879.036-1.833-1.2-1.206-2.4-2.4-3.6-3.613-.216-.219-.538-.4-.469-.8a23.323,23.323,0,0,1,2.256-1.378c.408-.006.6.32.846.56,1.544,1.536,3.094,3.068,4.611,4.631.439.453.77.477,1.147-.014a1.054,1.054,0,0,1,.106-.107c.8-.8.8-.8-.017-1.619-1.327-1.329-2.657-2.655-3.976-3.991-.219-.222-.53-.407-.475-.8a4.425,4.425,0,0,1,2.061-1.254,1.528,1.528,0,0,1,.616.414,3.7,3.7,0,0,0,3.057.944,1.4,1.4,0,0,1,1.223.369,3.661,3.661,0,0,0,5.1-.011,1.375,1.375,0,0,1,1.152-.367,3.6,3.6,0,0,0,4.2-2.961,1.43,1.43,0,0,1,.78-.941,3.729,3.729,0,0,0,1.841-2.449,3.22,3.22,0,0,0-.246-2.2,1.489,1.489,0,0,1-.015-1.359,3.552,3.552,0,0,0-1.484-4.62,1.527,1.527,0,0,1-.9-1.56,18.284,18.284,0,0,1,1.76-2.529,1.079,1.079,0,0,1,.62.235,3.278,3.278,0,0,0,4.594-1.1,1.628,1.628,0,0,1,1.607-.8c1.761.026,1.761,0,1.761,1.769,0,3.386-.017,6.772.013,10.158a2.4,2.4,0,0,1-.773,1.857q-10.9,10.89-21.781,21.808c-.159.159-.31.329-.48.477-.379.334-.505.672-.087,1.073a.43.43,0,0,1,.155.471,39.767,39.767,0,0,0-3.55,3.519" transform="translate(-0.983 -0.814)" fill="#feca2e"/>
    <path id="Trazado_249082" data-name="Trazado 249082" d="M20.262.01a1.186,1.186,0,0,1,1.175.9,7.032,7.032,0,0,0,5.135,5.158,1.151,1.151,0,0,1,.906,1.151,1.168,1.168,0,0,1-.939,1.2,7.013,7.013,0,0,0-5.09,5.11,1.207,1.207,0,0,1-2.348,0A7,7,0,0,0,14.015,8.42a1.165,1.165,0,0,1-.942-1.2,1.187,1.187,0,0,1,.973-1.176A6.982,6.982,0,0,0,19.088.983,1.23,1.23,0,0,1,20.262.01" transform="translate(-1.037 -0.001)"/>
    <path id="Trazado_249083" data-name="Trazado 249083" d="M61.667,36.332c.553.555,1.413,1.027,1.519,1.632.109.627-.848,1.09-1.354,1.6-2.338,2.373-4.707,4.716-7.045,7.09-.358.364-.578.429-.922.007-.361-.443-1.069-.813-1.1-1.256-.036-.467.7-.841,1.1-1.247q3.887-3.915,7.805-7.83" transform="translate(-4.187 -2.883)"/>
    <path id="Trazado_249084" data-name="Trazado 249084" d="M66.8,31.845c.112.1.205.187.293.274.354.352.692.721,1.063,1.054.26.234.289.4.017.653-.618.582-1.214,1.186-1.8,1.8-.223.233-.393.268-.591,0a1.266,1.266,0,0,0-.1-.106c-.413-.432-1.144-.859-1.15-1.3s.721-.872,1.132-1.3c.276-.288.561-.569.847-.847a3.4,3.4,0,0,1,.293-.228" transform="translate(-5.121 -2.527)" fill="#010101"/>
    <path id="Trazado_249085" data-name="Trazado 249085" d="M32.068,74.1c-3.23,0-6.459.033-9.688,0a7.719,7.719,0,0,1-3.37-.934q-7.1-3.564-14.2-7.118c-1.959-.982-2.7-2.774-1.878-4.5a3.612,3.612,0,0,1,4.856-1.491c2.634,1.267,5.239,2.593,7.856,3.9,1.768.879,3.537,1.756,5.3,2.644a2.777,2.777,0,0,0,1.293.31q7.436-.015,14.873-.006c.125,0,.251.006.376,0a1.2,1.2,0,0,0,1.187-1.209,1.172,1.172,0,0,0-1.2-1.186c-1.376-.027-2.754-.009-4.131-.01-2.178,0-4.356.008-6.536,0a3.614,3.614,0,1,1,.012-7.222c3.03-.008,6.06-.03,9.089.014a4.854,4.854,0,0,0,2.76-.724,17.689,17.689,0,0,1,6.783-2.688,16,16,0,0,1,12.025,2.767c.113.271-.094.419-.237.579a60.155,60.155,0,0,1-7.642,7.29A62.028,62.028,0,0,1,37.36,72.04,24.991,24.991,0,0,1,32.068,74.1" transform="translate(-0.206 -4.259)" fill="#fdc8a2"/>
    <path id="Trazado_249086" data-name="Trazado 249086" d="M34.608,74.358c2.662-1.124,5.351-2.185,7.9-3.558a64.558,64.558,0,0,0,10.025-6.607,63.306,63.306,0,0,0,5.647-5.236c.64-.661,1.223-1.376,1.832-2.066a11.144,11.144,0,0,1,1.391,1c.324.219.246.519.247.807,0,4.986-.008,9.971.016,14.958,0,.582-.136.738-.728.737-7.377-.022-14.754-.013-22.131-.016-1.4,0-2.8-.016-4.2-.024" transform="translate(-2.746 -4.515)" fill="#fdbf92"/>
    <path id="Trazado_249087" data-name="Trazado 249087" d="M66.6,64.595c0-2.96.012-5.92-.011-8.879,0-.555.093-.785.725-.774,2.327.041,4.656.031,6.983,0,.534-.006.734.1.731.691q-.035,8.954,0,17.908c0,.5-.092.7-.648.7q-3.567-.044-7.134,0c-.552.007-.655-.191-.652-.692.02-2.985.01-5.969.01-8.954" transform="translate(-5.284 -4.36)" fill="#dff7f9"/>
    <path id="Trazado_249088" data-name="Trazado 249088" d="M57.576,5.367a3.676,3.676,0,0,0-3.866.482c-1.735,1.41-1.783,3.6-.145,5.528,0,.584-.492.874-.771,1.287-.259.382-.561.736-.843,1.1-.264-.041-.338-.273-.453-.461a3.622,3.622,0,0,0-3.727-1.861,1.6,1.6,0,0,1-1.349-.432A3.634,3.634,0,0,0,41.5,11a1.6,1.6,0,0,1-1.344.444,3.627,3.627,0,0,0-4.118,2.982,1.207,1.207,0,0,1-.662.849,3.636,3.636,0,0,0-1.648,4.872,1.235,1.235,0,0,1-.018,1.148A3.4,3.4,0,0,0,35,25.828c1.134.694,1.194,1.784,1.49,2.83l-2.044,1.236c-.672-.132-.972-.734-1.4-1.154s-.771-.481-1.163,0c-.093.116-.21.211-.314.319-.549.568-.538.61.01,1.206.259.281.663.47.663.938a6.572,6.572,0,0,1-2.3,1.4c-.356.026-.526-.258-.732-.461-1.05-1.039-2.1-2.08-3.13-3.139-.378-.39-.7-.436-1.058-.008-.1.114-.213.213-.318.32-.6.615-.607.666-.015,1.264.81.819,1.631,1.628,2.438,2.451.2.206.487.376.457.734-.395.565-1.077.659-1.621.977a12.425,12.425,0,0,1-1.594.786c-.207.084-.47.361-.721.035-.069-.332.455-.543.206-.893A4.512,4.512,0,0,0,22.8,33.607c-.311-.222-.5.082-.69.268-1.367,1.362-2.725,2.733-4.1,4.092-.221.218-.395.539-.786.5-1.081.148-2.058.654-3.111.9-.692.164-1.368.4-2.052.6-1.122-1.106-2.24-2.215-3.37-3.313-.226-.219-.276-.395-.012-.609a4.17,4.17,0,0,0,.32-.318Q25.247,19.469,41.478,3.19a1.744,1.744,0,0,1,1.366-.574c5.428.029,10.856.029,16.284.037.165.2.033.376-.053.547-.315.62-.648,1.23-1.014,1.821-.107.174-.178.438-.485.346" transform="translate(-0.675 -0.208)" fill="#feca2e"/>
    <path id="Trazado_249089" data-name="Trazado 249089" d="M38.618,29.282a4.288,4.288,0,0,1-.68-1.807.578.578,0,0,0-.366-.5c-2.257-1.3-2.847-3.035-1.808-5.351a.7.7,0,0,0-.054-.688,3.747,3.747,0,0,1,1.747-5.21.806.806,0,0,0,.5-.656,3.868,3.868,0,0,1,4.5-3.194.867.867,0,0,0,.844-.254,3.943,3.943,0,0,1,5.55-.01c.2.182.335.353.69.3a3.929,3.929,0,0,1,4.532,2.481,1.884,1.884,0,0,0,1.119,1.643,3.679,3.679,0,0,1,1.286,4.818.882.882,0,0,0-.024.894A3.743,3.743,0,0,1,54.73,26.9a.814.814,0,0,0-.532.635,3.852,3.852,0,0,1-4.469,3.231.931.931,0,0,0-.909.276,3.913,3.913,0,0,1-5.487,0,.934.934,0,0,0-.91-.275,4.111,4.111,0,0,1-3.806-1.486" transform="translate(-2.798 -0.831)"/>
    <path id="Trazado_249090" data-name="Trazado 249090" d="M28.926,36c-1.1-1.119-2.184-2.256-3.31-3.349-.367-.356-.319-.549.015-.883,1.267-1.271,1.252-1.279,2.512-.023,1.042,1.037,2.094,2.064,3.14,3.1,1.584,1.6,3.152,3.223,4.761,4.8.407.4.4.609,0,1-1.236,1.2-1.215,1.214-2.421.014Q31.277,38.321,28.926,36" transform="translate(-2.013 -2.445)"/>
    <path id="Trazado_249091" data-name="Trazado 249091" d="M34.179,33.414a13.366,13.366,0,0,0-1.033-1.071c-.424-.355-.337-.582.021-.934,1.244-1.227,1.229-1.24,2.457-.016.245.245.505.474.76.712,1.687,1.706,3.358,3.428,5.07,5.109.415.407.376.616-.016,1-1.229,1.195-1.21,1.209-2.416.008q-2.417-2.406-4.844-4.8" transform="translate(-2.608 -2.419)"/>
    <path id="Trazado_249092" data-name="Trazado 249092" d="M17.856,41.108c1.644-1.628,3.3-3.243,4.924-4.892.377-.382.637-.5.983-.014a3.571,3.571,0,0,0,.418.425c.782.784.782.784.1,1.572-1.986,1.973-3.985,3.932-5.946,5.93-.431.439-.665.475-1.1.011-1.137-1.2-1.16-1.177.026-2.371.21-.212.4-.44.6-.661" transform="translate(-1.299 -2.847)"/>
    <path id="Trazado_249093" data-name="Trazado 249093" d="M21.555,48.669a7.844,7.844,0,0,0-.609-.808c-.957-.981-.964-.975,0-1.937,1.908-1.911,3.825-3.813,5.714-5.742.386-.393.611-.493,1.048-.035,1.178,1.236,1.2,1.213,0,2.42q-2.755,2.762-5.511,5.521c-.157.157-.326.3-.634.581" transform="translate(-1.605 -3.162)"/>
    <path id="Trazado_249094" data-name="Trazado 249094" d="M32.726,45.221c-.006.232-.169.328-.288.447-2.153,2.162-4.315,4.314-6.456,6.486-.319.324-.492.242-.775-.031-1.333-1.286-1.34-1.278-.046-2.575,1.837-1.84,3.682-3.674,5.5-5.529.33-.335.552-.425.883-.019.283.347.63.642.945.962.087.087.166.183.234.26" transform="translate(-1.92 -3.47)"/>
    <path id="Trazado_249095" data-name="Trazado 249095" d="M33.294,52.888a7.614,7.614,0,0,0-.6-.793c-.959-.981-.966-.975-.007-1.935.725-.725,1.465-1.435,2.164-2.184.336-.36.547-.435.939-.035,1.25,1.273,1.269,1.255,0,2.524-.654.655-1.305,1.311-1.962,1.962-.121.121-.26.224-.539.46" transform="translate(-2.537 -3.783)" fill="#000001"/>
    <path id="Trazado_249096" data-name="Trazado 249096" d="M67.8,7.244c-1.051-.02-2.1-.027-3.154.006-.435.013-.537-.127-.531-.544.023-1.681.01-3.362.009-5.042,0-1.278-.374-1.651-1.653-1.651C55.564.011,48.653.019,41.743,0a2.157,2.157,0,0,0-1.653.7Q23.026,17.821,5.944,34.925c-.984.986-.983,1.455.006,2.445L19.228,50.675c.772.773.772.773,1.547,0a2.953,2.953,0,0,1,.361-.366c.539-.384.528-.705.015-1.149-.679-.586-1.282-1.258-1.915-1.9q-3.716-3.747-7.429-7.5c-.024-.338-.287-.517-.493-.727-.791-.8-1.581-1.609-2.392-2.392-.373-.36-.39-.662,0-1,.168-.148.319-.318.479-.478L36.536,7.98c1.594-1.6,3.191-3.188,4.776-4.792a1.648,1.648,0,0,1,1.242-.583c5.482.023,10.965-.023,16.447.026.65.012,1.3,0,1.95.006.373,0,.552.174.554.547.007,1.077.01,2.155,0,3.232a.546.546,0,0,1-.222.526,2.43,2.43,0,0,1-2.322-.472,4.932,4.932,0,0,0-1.517-1.43,3.847,3.847,0,0,0-5.433,2.529,3.327,3.327,0,0,0,1.3,3.6c1.973,1.332,4.089,1.192,5.226-.571a1.89,1.89,0,0,1,2.061-.954,1.754,1.754,0,0,0,.45,0c.577-.1.7.151.7.7q-.037,5.644,0,11.289a1.663,1.663,0,0,1-.543,1.308Q50.075,34.048,38.983,45.18c-.954.957-.954.957-.017,1.879.775.776.775.776,1.545.006Q51.9,35.648,63.307,24.243a2.549,2.549,0,0,0,.837-2.054c-.055-1.579,0-3.161-.027-4.741-.007-.448.084-.607.567-.587,1.05.041,2.1.03,3.154.006A4.813,4.813,0,0,0,67.8,7.244m.145,7.2c-1.146.061-2.3,0-3.448.029-.382.009-.381-.189-.377-.462.009-.676,0-1.352,0-2.158.072-.634-.339-1.658.149-2.093.423-.377,1.425-.1,2.171-.111.475,0,.951-.02,1.424.007a2.413,2.413,0,0,1,2.264,2.361,2.378,2.378,0,0,1-2.187,2.427" transform="translate(-0.413 0)"/>
    <path id="Trazado_249097" data-name="Trazado 249097" d="M61.806,5.367a16.427,16.427,0,0,0,1.552-2.714c.8-.008,1.6,0,2.4-.03.368-.014.468.125.463.477q-.025,1.917,0,3.835c.006.381-.09.57-.5.515a1.834,1.834,0,0,0-.449,0c-.975.1-1.84.062-2.294-1.061-.194-.479-.755-.708-1.174-1.021" transform="translate(-4.905 -0.208)" fill="#feca2e"/>
    <path id="Trazado_249098" data-name="Trazado 249098" d="M59.966,10.255a1.145,1.145,0,0,1-1.186-1.05,1.125,1.125,0,0,1,.737-1.246c.277-.125.465-.154.453.26-.018.668,0,1.338,0,2.036" transform="translate(-4.664 -0.625)" fill="#fafafa"/>
    <path id="Trazado_249099" data-name="Trazado 249099" d="M20.588,4.773c.194-.018.235.122.3.217a8.947,8.947,0,0,0,2.371,2.367c.308.206.284.327-.006.522a8.63,8.63,0,0,0-2.363,2.373c-.183.273-.3.261-.478,0a8.964,8.964,0,0,0-2.422-2.42c-.244-.166-.225-.275.006-.433a9.236,9.236,0,0,0,2.425-2.419c.054-.079.122-.149.168-.206" transform="translate(-1.414 -0.379)" fill="#fc4b52"/>
    <path id="Trazado_249100" data-name="Trazado 249100" d="M72.81,69.866a1.8,1.8,0,1,1-1.8-1.821,1.834,1.834,0,0,1,1.8,1.821" transform="translate(-5.492 -5.4)"/>
    <path id="Trazado_249101" data-name="Trazado 249101" d="M21.019,33.516c-.1.118-.171.217-.258.3q-3.284,3.295-6.568,6.593c-.245.248-.394.257-.666.012-1.456-1.313-1.464-1.3-.087-2.683,1.82-1.824,3.649-3.637,5.451-5.48.361-.368.6-.428.935-.006.265.33.6.606.893.91.1.1.189.22.3.35" transform="translate(-0.986 -2.536)"/>
    <path id="Trazado_249102" data-name="Trazado 249102" d="M30.717,29.865c-.107-.1-.217-.191-.319-.293-.744-.742-1.476-1.5-2.232-2.225-.273-.261-.3-.424-.019-.722,1.312-1.416,1.3-1.425,2.678-.044.441.443.884.885,1.324,1.328.135.136.336.259.108.483-.445.44-.883.886-1.328,1.327a1.617,1.617,0,0,1-.213.145" transform="translate(-2.218 -2.028)" fill="#000001"/>
    <path id="Trazado_249103" data-name="Trazado 249103" d="M42.061,14.434a1.654,1.654,0,0,1,.864.277,1.182,1.182,0,0,0,1.89-.591,1.57,1.57,0,0,1,2.941,0,1.156,1.156,0,0,0,1.823.621,1.614,1.614,0,0,1,1.89,0,1.476,1.476,0,0,1,.5,1.677,1.15,1.15,0,0,0,1.19,1.5,1.5,1.5,0,0,1,1.47,1.068,1.38,1.38,0,0,1-.6,1.564,1.163,1.163,0,0,0,.029,1.972,1.35,1.35,0,0,1,.556,1.573A1.486,1.486,0,0,1,53.2,25.127c-1.02.091-1.392.589-1.2,1.62a1.415,1.415,0,0,1-.556,1.588,1.539,1.539,0,0,1-1.7.064c-1.029-.539-1.557-.386-2.039.632a1.551,1.551,0,0,1-2.833,0c-.466-.992-1.037-1.18-1.977-.664a1.559,1.559,0,0,1-1.761-.03,1.413,1.413,0,0,1-.551-1.589c.189-1.026-.188-1.526-1.209-1.617A1.483,1.483,0,0,1,37.95,24.1a1.354,1.354,0,0,1,.559-1.573,1.174,1.174,0,0,0-.032-2.019,1.336,1.336,0,0,1-.539-1.516,1.473,1.473,0,0,1,1.4-1.06c1.075-.1,1.415-.57,1.24-1.662a1.452,1.452,0,0,1,1.485-1.831" transform="translate(-3.005 -1.04)" fill="#a7e446"/>
  </g>
</svg>
