<svg id="Grupo_148274" data-name="Grupo 148274" xmlns="http://www.w3.org/2000/svg" xmlns:xlink="http://www.w3.org/1999/xlink" width="1030" height="236.985" viewBox="0 0 1030 236.985">
  <defs>
    <clipPath id="clip-path">
      <rect id="Rectángulo_89734" data-name="Rectángulo 89734" width="1030" height="236.985" fill="none"/>
    </clipPath>
    <clipPath id="clip-path-3">
      <rect id="Rectángulo_89723" data-name="Rectángulo 89723" width="158.711" height="158.711" fill="none"/>
    </clipPath>
    <clipPath id="clip-path-4">
      <rect id="Rectángulo_89724" data-name="Rectángulo 89724" width="158.712" height="158.711" fill="none"/>
    </clipPath>
    <clipPath id="clip-path-6">
      <rect id="Rectángulo_89726" data-name="Rectángulo 89726" width="236.984" height="137.791" fill="#a7e446"/>
    </clipPath>
    <clipPath id="clip-path-7">
      <rect id="Rectángulo_89727" data-name="Rectángulo 89727" width="236.985" height="137.791" fill="#a7e446"/>
    </clipPath>
    <clipPath id="clip-path-13">
      <rect id="Rectángulo_89735" data-name="Rectángulo 89735" width="64.901" height="77.97" fill="#64892a"/>
    </clipPath>
    <clipPath id="clip-path-14">
      <rect id="Rectángulo_89736" data-name="Rectángulo 89736" width="77.844" height="77.399" fill="#64892a"/>
    </clipPath>
    <clipPath id="clip-path-15">
      <rect id="Rectángulo_89740" data-name="Rectángulo 89740" width="75.563" height="75.58" fill="#64892a"/>
    </clipPath>
    <clipPath id="clip-path-16">
      <rect id="Rectángulo_89741" data-name="Rectángulo 89741" width="90.039" height="57.752" fill="#64892a"/>
    </clipPath>
    <clipPath id="clip-path-17">
      <rect id="Rectángulo_89742" data-name="Rectángulo 89742" width="75.729" height="75.738" fill="#64892a"/>
    </clipPath>
  </defs>
  <g id="Grupo_148273" data-name="Grupo 148273" clip-path="url(#clip-path)">
    <g id="Grupo_148272" data-name="Grupo 148272">
      <g id="Grupo_148271" data-name="Grupo 148271" clip-path="url(#clip-path)">
        <g id="Grupo_148243" data-name="Grupo 148243" transform="translate(32.359 45.915)" opacity="0.3" style="mix-blend-mode: multiply;isolation: isolate">
          <g id="Grupo_148242" data-name="Grupo 148242">
            <g id="Grupo_148241" data-name="Grupo 148241" clip-path="url(#clip-path-3)">
              <path id="Trazado_246563" data-name="Trazado 246563" d="M182.446,113.033A79.355,79.355,0,1,1,103.09,33.676a79.356,79.356,0,0,1,79.356,79.357" transform="translate(-23.734 -33.677)" fill="#595959"/>
            </g>
          </g>
        </g>
        <g id="Grupo_148246" data-name="Grupo 148246" transform="translate(230.748 45.915)" opacity="0.3" style="mix-blend-mode: multiply;isolation: isolate">
          <g id="Grupo_148245" data-name="Grupo 148245">
            <g id="Grupo_148244" data-name="Grupo 148244" clip-path="url(#clip-path-4)">
              <path id="Trazado_246564" data-name="Trazado 246564" d="M327.958,113.033A79.356,79.356,0,1,1,248.6,33.676a79.356,79.356,0,0,1,79.356,79.357" transform="translate(-169.246 -33.677)" fill="#595959"/>
            </g>
          </g>
        </g>
        <g id="Grupo_148249" data-name="Grupo 148249" transform="translate(429.137 45.915)" opacity="0.3" style="mix-blend-mode: multiply;isolation: isolate">
          <g id="Grupo_148248" data-name="Grupo 148248">
            <g id="Grupo_148247" data-name="Grupo 148247" clip-path="url(#clip-path-4)">
              <path id="Trazado_246565" data-name="Trazado 246565" d="M473.47,113.033a79.355,79.355,0,1,1-79.356-79.357,79.356,79.356,0,0,1,79.356,79.357" transform="translate(-314.758 -33.677)" fill="#595959"/>
            </g>
          </g>
        </g>
        <g id="Grupo_148252" data-name="Grupo 148252" transform="translate(0 99.195)" style="mix-blend-mode: multiply;isolation: isolate">
          <g id="Grupo_148251" data-name="Grupo 148251">
            <g id="Grupo_148250" data-name="Grupo 148250" clip-path="url(#clip-path-6)">
              <path id="Trazado_246566" data-name="Trazado 246566" d="M118.492,210.547A118.627,118.627,0,0,1,0,92.055a19.3,19.3,0,1,1,38.6,0,79.9,79.9,0,0,0,159.792,0,19.3,19.3,0,1,1,38.6,0A118.627,118.627,0,0,1,118.492,210.547" transform="translate(0 -72.756)" fill="#a7e446"/>
            </g>
          </g>
        </g>
        <g id="Grupo_148255" data-name="Grupo 148255" transform="translate(198.388)" style="mix-blend-mode: multiply;isolation: isolate">
          <g id="Grupo_148254" data-name="Grupo 148254">
            <g id="Grupo_148253" data-name="Grupo 148253" clip-path="url(#clip-path-7)">
              <path id="Trazado_246567" data-name="Trazado 246567" d="M363.2,137.791a19.3,19.3,0,0,1-19.3-19.3,79.9,79.9,0,0,0-159.793,0,19.3,19.3,0,1,1-38.6,0,118.492,118.492,0,1,1,236.984,0,19.3,19.3,0,0,1-19.3,19.3" transform="translate(-145.511)" fill="#a7e446"/>
            </g>
          </g>
        </g>
        <g id="Grupo_148258" data-name="Grupo 148258" transform="translate(396.779 99.195)" style="mix-blend-mode: multiply;isolation: isolate">
          <g id="Grupo_148257" data-name="Grupo 148257">
            <g id="Grupo_148256" data-name="Grupo 148256" clip-path="url(#clip-path-6)">
              <path id="Trazado_246568" data-name="Trazado 246568" d="M409.516,210.547A118.627,118.627,0,0,1,291.024,92.055a19.3,19.3,0,1,1,38.6,0,79.9,79.9,0,0,0,159.792,0,19.3,19.3,0,1,1,38.6,0A118.627,118.627,0,0,1,409.516,210.547" transform="translate(-291.024 -72.756)" fill="#a7e446"/>
            </g>
          </g>
        </g>
        <path id="Trazado_246569" data-name="Trazado 246569" d="M187.417,108.062a79.355,79.355,0,1,1-79.356-79.356,79.356,79.356,0,0,1,79.356,79.356" transform="translate(10.294 10.294)" fill="#f2fbe3"/>
        <path id="Trazado_246570" data-name="Trazado 246570" d="M332.929,108.062a79.355,79.355,0,1,1-79.356-79.356,79.356,79.356,0,0,1,79.356,79.356" transform="translate(63.782 10.294)" fill="#f2fbe3"/>
        <path id="Trazado_246571" data-name="Trazado 246571" d="M478.44,108.062a79.355,79.355,0,1,1-79.356-79.356,79.356,79.356,0,0,1,79.356,79.356" transform="translate(116.271 10.294)" fill="#f2fbe3"/>
        <g id="Grupo_148261" data-name="Grupo 148261" transform="translate(626.987 45.915)" opacity="0.3" style="mix-blend-mode: multiply;isolation: isolate">
          <g id="Grupo_148260" data-name="Grupo 148260">
            <g id="Grupo_148259" data-name="Grupo 148259" clip-path="url(#clip-path-3)">
              <path id="Trazado_246572" data-name="Trazado 246572" d="M618.585,113.033a79.356,79.356,0,1,1-79.356-79.357,79.356,79.356,0,0,1,79.356,79.357" transform="translate(-459.874 -33.677)" fill="#595959"/>
            </g>
          </g>
        </g>
        <g id="Grupo_148264" data-name="Grupo 148264" transform="translate(825.375 45.915)" opacity="0.3" style="mix-blend-mode: multiply;isolation: isolate">
          <g id="Grupo_148263" data-name="Grupo 148263">
            <g id="Grupo_148262" data-name="Grupo 148262" clip-path="url(#clip-path-4)">
              <path id="Trazado_246573" data-name="Trazado 246573" d="M764.1,113.033a79.355,79.355,0,1,1-79.356-79.357A79.355,79.355,0,0,1,764.1,113.033" transform="translate(-605.385 -33.677)" fill="#595959"/>
            </g>
          </g>
        </g>
        <g id="Grupo_148267" data-name="Grupo 148267" transform="translate(594.625)" style="mix-blend-mode: multiply;isolation: isolate">
          <g id="Grupo_148266" data-name="Grupo 148266">
            <g id="Grupo_148265" data-name="Grupo 148265" clip-path="url(#clip-path-7)">
              <path id="Trazado_246574" data-name="Trazado 246574" d="M653.826,137.791a19.3,19.3,0,0,1-19.3-19.3,79.9,79.9,0,0,0-159.793,0,19.3,19.3,0,0,1-38.6,0,118.493,118.493,0,0,1,236.985,0,19.3,19.3,0,0,1-19.3,19.3" transform="translate(-436.138)" fill="#a7e446"/>
            </g>
          </g>
        </g>
        <g id="Grupo_148270" data-name="Grupo 148270" transform="translate(793.016 99.195)" style="mix-blend-mode: multiply;isolation: isolate">
          <g id="Grupo_148269" data-name="Grupo 148269">
            <g id="Grupo_148268" data-name="Grupo 148268" clip-path="url(#clip-path-6)">
              <path id="Trazado_246575" data-name="Trazado 246575" d="M700.143,210.547A118.627,118.627,0,0,1,581.651,92.055a19.3,19.3,0,1,1,38.6,0,79.9,79.9,0,1,0,159.792,0,19.3,19.3,0,1,1,38.6,0A118.627,118.627,0,0,1,700.143,210.547" transform="translate(-581.651 -72.756)" fill="#a7e446"/>
            </g>
          </g>
        </g>
        <path id="Trazado_246576" data-name="Trazado 246576" d="M623.556,108.062A79.355,79.355,0,1,1,544.2,28.706a79.356,79.356,0,0,1,79.356,79.356" transform="translate(169.155 10.294)" fill="#f2fbe3"/>
        <path id="Trazado_246577" data-name="Trazado 246577" d="M769.068,108.062a79.356,79.356,0,1,1-79.356-79.356,79.356,79.356,0,0,1,79.356,79.356" transform="translate(221.644 10.294)" fill="#f2fbe3"/>
        <g id="Grupo_148275" data-name="Grupo 148275" transform="translate(86 80)">
          <g id="Grupo_148275-2" data-name="Grupo 148275" clip-path="url(#clip-path-13)">
            <path id="Trazado_246578" data-name="Trazado 246578" d="M33.974,0c.941.191,1.894.336,2.821.582A16.854,16.854,0,0,1,49.341,16.661c.033,2.639.026,5.279,0,7.918a4.423,4.423,0,0,1-2.734,4.211,1.058,1.058,0,0,0-.541.689c-.449,4.4-2.907,7.408-6.6,9.554a.853.853,0,0,0-.451,1.14c1.515.156,3.012.231,4.481.476a20.6,20.6,0,0,1,9.573,4.385,2.777,2.777,0,0,0,1.22.446c.594.106,1.229.026,1.8.182a3.753,3.753,0,0,1,2.726,4.593,4.572,4.572,0,0,0,.289,2.954c1.386,3.78,2.636,7.61,3.93,11.423.5,1.463.978,2.932,1.462,4.4a6.594,6.594,0,0,1-6.437,8.935q-25.621.007-51.242,0A6.594,6.594,0,0,1,.4,69.028q2.331-7.034,4.686-14.061c.307-.91.747-1.775,1.066-2.681a2.913,2.913,0,0,0,.1-1.141,12.554,12.554,0,0,1-.225-2.394,3.689,3.689,0,0,1,3.747-3.223,4.119,4.119,0,0,0,2.741-.978,20.2,20.2,0,0,1,11.529-4.218c.6-.031,1.209,0,1.778,0a.925.925,0,0,0-.456-1.34,14.63,14.63,0,0,1-4.587-4.052,11.223,11.223,0,0,1-1.872-5.161,1.26,1.26,0,0,0-.8-1.118A3.957,3.957,0,0,1,15.6,25.034c-.059-3.372-.142-6.762.129-10.116A16.715,16.715,0,0,1,29.29.3c.547-.094,1.092-.2,1.639-.3ZM32.462,48.094H10.469c-1.7,0-2.168.595-1.746,2.2q2.511,9.551,5.015,19.1c.151.581.362.8,1.01.8q17.693-.037,35.386,0c.625,0,.87-.177,1.026-.777q2.482-9.559,5.013-19.1c.425-1.617-.044-2.224-1.719-2.224H32.462M32.4,15.056A18.448,18.448,0,0,1,23.9,18.428,3.064,3.064,0,0,0,21.3,21.3c-.121,1.133-.365,1.394-1.466,1.572A1.816,1.816,0,0,0,19.9,26.5a1.369,1.369,0,0,1,1.4,1.409c.068.553.087,1.116.2,1.659.37,1.738.736,3.479,2.1,4.789a19.343,19.343,0,0,0,7.016,4.293,5.539,5.539,0,0,0,3.8-.048,21.508,21.508,0,0,0,5.448-2.981,7.977,7.977,0,0,0,3.351-5.154c.148-.8.274-1.6.365-2.4.122-1.078.427-1.423,1.488-1.569a1.814,1.814,0,0,0,.076-3.609c-1.249-.233-1.424-.419-1.55-1.653a3.036,3.036,0,0,0-2.575-2.8A19.1,19.1,0,0,1,32.4,15.056m14.136,5.584.21-.117c0-1.31.024-2.62,0-3.929A14.248,14.248,0,0,0,28.588,3.165c-7.694,2.263-11.331,8.981-10.251,17.427A1.71,1.71,0,0,0,18.9,19.9a5.657,5.657,0,0,1,4.819-4.082,16.2,16.2,0,0,0,7.09-2.736,2.491,2.491,0,0,1,3.3-.008A16.392,16.392,0,0,0,41.123,15.8a5.7,5.7,0,0,1,4.9,4.192c.08.246.341.434.518.649m6.669,52.167H11.7V75.33h41.5ZM7.574,56.118c-.116.1-.174.124-.188.164-1.565,4.707-3.162,9.4-4.67,14.13a3.858,3.858,0,0,0,2.206,4.593c1.326.589,2.712.332,4.1.342.141-2.061-.59-4.409,2.251-5.177l-3.7-14.053m49.9.047-.165,0L53.638,70.147c1.777.736,2.212,1.4,2.215,3.278,0,.626,0,1.252,0,1.95.795,0,1.5,0,2.2,0a4.006,4.006,0,0,0,3.971-5.547c-1-3.052-2.03-6.1-3.046-9.147q-.752-2.257-1.5-4.516M28.635,40.75A3.9,3.9,0,0,0,34.8,44.687a3.811,3.811,0,0,0,1.425-3.945c-3.254,1.035-3.9,1.176-7.593.008m-1.5,4.707a20.776,20.776,0,0,1-.887-2.023.654.654,0,0,0-.741-.549,18.24,18.24,0,0,0-6.478,1.06c-1.036.382-2.029.883-3.042,1.329l.08.182Zm21.778.037c-.089-.148-.1-.206-.139-.227A18.173,18.173,0,0,0,39.254,42.9c-.159,0-.41.062-.458.168-.357.784-.673,1.587-1.019,2.425H48.915Z" transform="translate(0)" fill="#64892a"/>
            <path id="Trazado_246579" data-name="Trazado 246579" d="M133.486,285.067a6.657,6.657,0,0,1-4.6-2.083,4.356,4.356,0,0,1-.032-6.173,7.519,7.519,0,0,1,10.483.024,4.383,4.383,0,0,1-.029,6.123,7.487,7.487,0,0,1-5.821,2.109m.584-2.586a4.6,4.6,0,0,0,3.154-1.1,1.879,1.879,0,0,0,.029-2.983,5.09,5.09,0,0,0-6.318-.023,1.887,1.887,0,0,0,.034,3.035,4.616,4.616,0,0,0,3.1,1.067" transform="translate(-101.63 -218.811)" fill="#64892a"/>
          </g>
        </g>
        <g id="Grupo_148276" data-name="Grupo 148276" transform="translate(278 80)">
          <g id="Grupo_148276-2" data-name="Grupo 148276" clip-path="url(#clip-path-14)">
            <path id="Trazado_246580" data-name="Trazado 246580" d="M70.17,61.8c-1.88,1.969-3.564,3.969-5.488,5.7A37.228,37.228,0,0,1,41.9,77.293,38.7,38.7,0,0,1,2.257,26.458a3.369,3.369,0,0,0,.053-1.773C1.646,22.057.921,19.445.177,16.838A2.659,2.659,0,0,1,.99,13.716a2.619,2.619,0,0,1,3.155-.052c1.2.694,2.428,1.353,3.656,2.034.953-1.117,1.834-2.231,2.8-3.266A37.862,37.862,0,0,1,34.371.285a38.7,38.7,0,0,1,41.2,50.723,3.2,3.2,0,0,0-.049,1.7c.675,2.652,1.41,5.29,2.155,7.924a2.632,2.632,0,0,1-4.014,3.113c-1.194-.662-2.388-1.325-3.5-1.94m-6.784-4.167c-1.363-.9-2.622-1.766-3.911-2.584a2.689,2.689,0,0,1-1.5-2.717,2.717,2.717,0,0,1,2.266-2.311c2.526-.714,5.035-1.486,7.563-2.194a1.155,1.155,0,0,0,.927-.931A30.966,30.966,0,0,0,40.782,7.768,30.575,30.575,0,0,0,19.34,14.755a27.908,27.908,0,0,0-4.859,5.055c1.4.926,2.758,1.782,4.062,2.718a3.521,3.521,0,0,1,1.138,1.3,2.488,2.488,0,0,1-1.689,3.432q-3.956,1.214-7.942,2.331a1.165,1.165,0,0,0-.918.943,30.88,30.88,0,0,0,54.256,27.1m10.5-10.277c-.023.044.009,0,.025-.051.04-.128.079-.256.109-.387A36.028,36.028,0,0,0,10.206,16.886c-1.2,1.566-2.337,1.8-4.047.853l-3.6-1.991L5.94,28.126l11.373-3.342c-1.47-.982-2.788-1.852-4.095-2.738a2.558,2.558,0,0,1-.633-4.021A32.45,32.45,0,0,1,35.307,5.383,32.269,32.269,0,0,1,63.8,16.286a32.321,32.321,0,0,1,8.481,24.991c-.133,1.813-.48,3.611-.714,5.314l2.329.768M75.28,61.678,71.9,49.305,60.652,52.612c.1.136.123.19.164.218,1.225.824,2.454,1.641,3.677,2.467,1.7,1.147,1.93,2.632.667,4.24a33.357,33.357,0,0,1-47.58,5.013c-8.778-7.4-12.763-16.981-12-28.476.118-1.787.477-3.558.71-5.239l-2.344-.779a3.011,3.011,0,0,0-.113.344,35.629,35.629,0,0,0,.494,18.561,35.983,35.983,0,0,0,42.2,25.077,35.353,35.353,0,0,0,20.964-13.3c1.416-1.825,2.407-2.038,4.406-.927,1.069.594,2.142,1.182,3.388,1.869" transform="translate(0 0)" fill="#64892a"/>
            <path id="Trazado_246581" data-name="Trazado 246581" d="M89.989,100.647c.536-1.234,1.062-2.378,1.515-3.552a.968.968,0,0,0-.259-.788,3.867,3.867,0,0,1-1.6-3.882c.418-2.259,3.336-4.436,5.344-3.85a7.13,7.13,0,0,1,2.3,1.51.889.889,0,0,0,1.17.19c1.024-.519,2.1-.926,3.264-1.423-.011-1.437-.124-3.035,1.267-4.173a3.633,3.633,0,0,1,2.944-.788,4.587,4.587,0,0,1,2.135.758,4.349,4.349,0,0,1,1.261,1.969,8.947,8.947,0,0,1,.183,2.24c1.185.52,2.325,1.043,3.488,1.508a.863.863,0,0,0,.735-.166c2.7-2.442,4.059-2.42,6.6.144,1.785,1.8,1.811,3.794-.037,5.555a1.3,1.3,0,0,0-.31,1.891,22.983,22.983,0,0,1,1.176,2.857c.431,0,.886,0,1.34,0a3.516,3.516,0,0,1,3.711,3.755c.011,2.147-1.061,3.619-2.922,3.931a8.331,8.331,0,0,1-1.686.049c-.42-.016-.588.137-.732.539-.4,1.109-.868,2.19-1.43,3.581a9.629,9.629,0,0,1,1.161.93,3.455,3.455,0,0,1-.008,4.988,12.943,12.943,0,0,1-1.64,1.542,3.36,3.36,0,0,1-4.3-.26,13.454,13.454,0,0,1-1.144-1.3c-1.36.534-2.532.974-3.682,1.466a.83.83,0,0,0-.353.591,16.8,16.8,0,0,1-.2,2.233c-.484,1.823-2.292,2.766-4.5,2.456a3.525,3.525,0,0,1-3.043-3.43c-.054-1.7-.059-1.691-1.6-2.3-.744-.3-1.466-.648-2.415-1.072a12.949,12.949,0,0,1-1.08,1.273,3.427,3.427,0,0,1-4.861-.02,12.84,12.84,0,0,1-1.594-1.7,3.389,3.389,0,0,1,.27-4.309,14.458,14.458,0,0,1,1.264-1.144c-.531-1.341-.964-2.492-1.454-3.618a.906.906,0,0,0-.627-.415c-.66-.089-1.352,0-1.993-.154-1.942-.454-2.933-2.206-2.638-4.529a3.514,3.514,0,0,1,3.478-3.077c.534-.012,1.069,0,1.509,0m31.338,5.162c.4,0,.805.012,1.207,0,.827-.029,1.106-.373,1.1-1.325-.006-.889-.292-1.23-1.091-1.25-.724-.018-1.449,0-2.173-.006-1.02-.008-1.311-.311-1.642-1.289a30.953,30.953,0,0,0-1.548-3.955c-.837-1.669-.9-1.674.439-3.018.076-.076.15-.154.228-.228,1.829-1.721,1.493-1.732-.147-3.368a.935.935,0,0,0-1.48.016c-.554.548-1.1,1.1-1.652,1.652a1.311,1.311,0,0,1-1.814.2,14.018,14.018,0,0,0-4.722-1.971,1.324,1.324,0,0,1-1.147-1.43c0-.78.018-1.56-.006-2.339s-.376-1.054-1.284-1.054-1.257.272-1.28,1.057c-.022.752,0,1.505-.008,2.258-.013.913-.362,1.222-1.22,1.543-1.547.578-3.073,1.22-4.572,1.914-.852.394-1.265.414-1.948-.24-.233-.223-.461-.451-.683-.685-1.762-1.863-1.731-1.6-3.416.106a.941.941,0,0,0,.029,1.483q.821.831,1.649,1.656a1.433,1.433,0,0,1,.231,1.824c-.709,1.553-1.356,3.137-1.948,4.739a1.428,1.428,0,0,1-1.45,1.127c-.805,0-1.611-.021-2.415.008-.751.027-1.013.4-1,1.331.008.853.283,1.209,1.022,1.236s1.449,0,2.173.008c1.125,0,1.417.293,1.763,1.355a17.054,17.054,0,0,0,1.4,3.58c1.354,2.238.681,2.323-.549,3.525-1.8,1.755-1.546,1.733.105,3.376a.963.963,0,0,0,1.54-.028c.549-.552,1.108-1.095,1.65-1.654a1.464,1.464,0,0,1,1.889-.243c1.5.688,3.033,1.315,4.579,1.9a1.455,1.455,0,0,1,1.178,1.582c.008.78-.015,1.56.008,2.339s.376,1.054,1.285,1.053,1.256-.276,1.28-1.06c.023-.752,0-1.505.007-2.258.007-1.058.322-1.366,1.343-1.69a24.236,24.236,0,0,0,3.519-1.334c2.031-1.014,2.025-1.087,3.581.523,1.745,1.806,1.731,1.553,3.368-.1.019-.019.038-.038.056-.058a.935.935,0,0,0-.025-1.427c-.523-.54-1.063-1.063-1.591-1.6-.756-.77-.742-1.175-.252-2.144a28.032,28.032,0,0,0,1.648-3.74c.625-1.872.557-1.895,2.553-1.895h.241" transform="translate(-66.674 -65.803)" fill="#64892a"/>
            <path id="Trazado_246582" data-name="Trazado 246582" d="M147.993,156.02a9.034,9.034,0,1,1,9.033-8.917,9.034,9.034,0,0,1-9.033,8.917m0-2.58a6.454,6.454,0,1,0-6.424-6.489,6.469,6.469,0,0,0,6.424,6.489" transform="translate(-109.087 -108.271)" fill="#64892a"/>
          </g>
        </g>
        <g id="Grupo_148277" data-name="Grupo 148277" transform="translate(477 81)">
          <g id="Grupo_148277-2" data-name="Grupo 148277" clip-path="url(#clip-path-15)">
            <path id="Trazado_246583" data-name="Trazado 246583" d="M20.69,39h-.913q-7.92,0-15.841,0A3.666,3.666,0,0,1,0,35.045Q0,19.506,0,3.968A3.674,3.674,0,0,1,4,0Q21.938,0,39.874,0a3.68,3.68,0,0,1,4,4.044q0,9.1,0,18.2v.865h2.5a.676.676,0,0,0,.091-.153c1.033-3.18,3.1-4.728,6.47-4.664a21.088,21.088,0,0,0,10.07-1.865,33.87,33.87,0,0,0,3.753-2.3,4.616,4.616,0,0,0,1.889-2.28,3.463,3.463,0,0,1,3.934-2.036,3.627,3.627,0,0,1,2.966,3.563c.021,4.265.008,8.531.008,12.8q0,4.456,0,8.912a3.705,3.705,0,0,1-3.142,3.882,3.664,3.664,0,0,1-4.037-2.721,1.134,1.134,0,0,0-.245-.459A18.983,18.983,0,0,0,60.94,31.5v9.918H58.555V53.682a10.985,10.985,0,0,1,8.106,5.266,10.233,10.233,0,0,1,1.51,6.855,11.007,11.007,0,0,1-10.094,9.749,11.158,11.158,0,0,1-11.754-9.7H27.931a6.258,6.258,0,0,1-3.154,4.12,5.774,5.774,0,0,1-3.681.65,6.109,6.109,0,0,1-5.23-5.452c-.3-2.984,1.322-5.2,4.824-6.609ZM43.874,25.616v.9q0,4.226,0,8.453A3.687,3.687,0,0,1,39.866,39q-7.919,0-15.838,0H23.2V58.619a6.265,6.265,0,0,1,4.737,4.719h18.4c1.031-5.456,4.258-8.67,9.677-9.686V41.441a7.931,7.931,0,0,0-1.251.011c-.758.127-.978-.232-1.121-.914-.675-3.2-1.416-6.384-2.1-9.581a.829.829,0,0,0-.7-.729,5.955,5.955,0,0,1-4.276-4.154c-.051-.16-.113-.316-.164-.46ZM2.464,12.223c-.012.188-.024.288-.024.389q0,11.231,0,22.461c0,1.091.446,1.492,1.629,1.492q17.853,0,35.705,0c1.282,0,1.661-.387,1.661-1.691q0-10.964,0-21.928v-.723Zm38.973-2.5c0-1.873,0-3.671,0-5.469,0-1.493-.329-1.819-1.837-1.819H3.976c-1.1.011-1.531.426-1.535,1.509-.007,1.751,0,3.5,0,5.253,0,.168.031.337.05.526ZM65.807,64.618a8.528,8.528,0,1,0-8.548,8.51,8.552,8.552,0,0,0,8.548-8.51m2.374-32V16.139a22.123,22.123,0,0,1-12.089,4.526v7.425a22.092,22.092,0,0,1,12.089,4.523m4.941-8.237q0-5.217,0-10.435a3.733,3.733,0,0,0-.019-.684,1.209,1.209,0,0,0-2.4,0,4.275,4.275,0,0,0-.02.76q0,10.359,0,20.717a4.3,4.3,0,0,0,.02.76,1.209,1.209,0,0,0,2.4,0,3.752,3.752,0,0,0,.019-.684q0-5.217,0-10.435m-47.531,40.2a3.653,3.653,0,1,0-3.67,3.677,3.669,3.669,0,0,0,3.67-3.677m32.866-25.6V30.74L53.907,30.4l1.91,8.581Zm-4.87-18.214c-1.756-.2-3.281.1-4.268,1.68a3.425,3.425,0,0,0,.045,3.933c1,1.519,2.5,1.813,4.223,1.606Z" transform="translate(0 0)" fill="#64892a"/>
            <path id="Trazado_246584" data-name="Trazado 246584" d="M84.116,72.062h9.658V91.468H84.116Zm7.207,2.464H86.541v14.53h4.782Z" transform="translate(-67.001 -57.4)" fill="#64892a"/>
            <path id="Trazado_246585" data-name="Trazado 246585" d="M153.6,110.674h-9.658V96.143H153.6Zm-2.438-12.093h-4.783v9.655h4.783Z" transform="translate(-114.659 -76.581)" fill="#64892a"/>
            <path id="Trazado_246586" data-name="Trazado 246586" d="M24.129,120.01h9.655v9.656H24.129Zm7.234,2.448H26.59v4.787h4.772Z" transform="translate(-19.22 -95.592)" fill="#64892a"/>
            <rect id="Rectángulo_89737" data-name="Rectángulo 89737" width="2.343" height="2.346" transform="translate(4.935 4.929)" fill="#64892a"/>
            <rect id="Rectángulo_89738" data-name="Rectángulo 89738" width="2.349" height="2.343" transform="translate(9.788 4.934)" fill="#64892a"/>
            <rect id="Rectángulo_89739" data-name="Rectángulo 89739" width="2.339" height="2.353" transform="translate(14.681 4.925)" fill="#64892a"/>
            <path id="Trazado_246587" data-name="Trazado 246587" d="M254.047,301.634l1.7-1.6,1.3,1.665,6.549-6.567,1.554,1.657-7.988,7.989-3.112-3.14" transform="translate(-202.357 -235.08)" fill="#64892a"/>
          </g>
        </g>
        <g id="Grupo_148278" data-name="Grupo 148278" transform="translate(668 90)">
          <g id="Grupo_148278-2" data-name="Grupo 148278" clip-path="url(#clip-path-16)">
            <path id="Trazado_246588" data-name="Trazado 246588" d="M0,27.295c1.054-3.189,2.118-6.375,3.16-9.568C4.748,12.858,6.316,7.983,7.9,3.115A4.081,4.081,0,0,1,13.431.281q4.306,1.376,8.6,2.78c2.722.887,3.786,2.978,2.917,5.709-.123.387-.249.773-.4,1.238,1.744.465,3.333.837,5.014-.231,2.616-1.663,5.5-2.815,8.645-2.309a28.606,28.606,0,0,1,5.837,1.839,3.275,3.275,0,0,0,3.044.045,13.18,13.18,0,0,1,1.4-.514c4.034-1.659,7.812-.768,11.3,1.411,2,1.245,3.814.877,5.85.235-.222-.715-.434-1.376-.634-2.04a4.043,4.043,0,0,1,2.67-5.252q4.537-1.518,9.1-2.956a4.063,4.063,0,0,1,5.347,2.785q3.841,11.813,7.651,23.635a4.047,4.047,0,0,1-2.755,5.419c-2.971.987-5.954,1.937-8.929,2.915a4.453,4.453,0,0,1-3.8-.464c-.031,4.8-3.829,6.719-7.15,6.047A5.868,5.868,0,0,1,65.17,45.16a5.687,5.687,0,0,1-4.818,1.3,6.009,6.009,0,0,1-1.845,4.611,5.82,5.82,0,0,1-4.666,1.5c-.058.253-.124.467-.154.687a4.926,4.926,0,0,1-7.13,3.824c-1.181-.571-2.327-1.214-3.485-1.822a4.657,4.657,0,0,1-8.134.2,5.251,5.251,0,0,1-8.477-1.693c-4.22,3.159-9.016-.043-8.736-4.411-.385-.072-.781-.131-1.169-.222a5.111,5.111,0,0,1-3.3-7.6c.815-1.384,1.765-2.688,2.642-4.009-.5-.7-.979-1.392-1.507-2.044a1.178,1.178,0,0,0-.663-.261,18.908,18.908,0,0,1-2.058-.357C9.012,34.04,6.391,33.1,3.722,32.331A4.869,4.869,0,0,1,0,28.878V27.295M23.655,12.781c-.094.285-.183.56-.275.835q-3.3,9.9-6.59,19.811a.854.854,0,0,0-.054.415,2.984,2.984,0,0,0,2.733,2.009,5.1,5.1,0,0,1,5.339,3.91c.131.563.158,1.15.241,1.786a5.366,5.366,0,0,1,4.783,3.227,5.351,5.351,0,0,1,8.453,2.066c1.937-.908,3.818-.9,5.44.638s1.728,3.412.914,5.423c1.124.588,2.17,1.174,3.25,1.688a2,2,0,0,0,2.294-.327,1.846,1.846,0,0,0,.617-2.14,3.118,3.118,0,0,0-1.194-1.412c-1.426-.861-2.932-1.591-4.4-2.381-.6-.321-1.026-.867-.783-1.5A2.327,2.327,0,0,1,45.577,45.7c.3-.136.845.11,1.218.3,2.157,1.119,4.283,2.3,6.443,3.41A2.848,2.848,0,1,0,55.9,44.374c-1.436-.791-2.9-1.538-4.339-2.316-.972-.524-1.283-1.3-.855-2.07.414-.745,1.195-.9,2.132-.43.183.092.365.187.546.283,2.223,1.182,4.433,2.389,6.673,3.538a2.82,2.82,0,0,0,4.22-2.264,2.88,2.88,0,0,0-1.757-2.887c-2.359-1.238-4.708-2.494-7.062-3.742a1.407,1.407,0,0,1-.874-1.564,1.271,1.271,0,0,1,1.267-1.137,2.762,2.762,0,0,1,1.226.388c3.006,1.579,6,3.182,9,4.775.465.247.925.511,1.408.716a2.847,2.847,0,0,0,3.332-.84,2.565,2.565,0,0,0,.043-3.254,4.892,4.892,0,0,0-1.1-1.125,55.22,55.22,0,0,0-17.2-8.77,2.591,2.591,0,0,0-1.424.016c-4.481,1.453-8.945,2.955-13.42,4.425a4.9,4.9,0,0,1-5.944-1.752A26.522,26.522,0,0,1,29.718,22.8a1.461,1.461,0,0,1,.351-1.911c2.093-1.917,4.11-3.929,6.316-5.706,1.722-1.386,3.684-2.475,5.539-3.7-2.407-1.042-4.895-1.872-7.571-.855a17.566,17.566,0,0,0-3.408,1.592,6.381,6.381,0,0,1-4.427,1.016c-.925-.109-1.841-.3-2.864-.465m42.887.4c-.384.1-.663.178-.94.256-2.508.7-4.867.765-7.225-.764-2.811-1.821-5.895-2.566-9.175-1.1-.4.178-.83.282-1.24.436a39.755,39.755,0,0,0-14.907,9.809,1.041,1.041,0,0,0-.346.712,3.422,3.422,0,0,0,4.627,2.748c4.467-1.482,8.928-2.985,13.412-4.414a3.909,3.909,0,0,1,2.115-.029A50.1,50.1,0,0,1,66.147,26.68c2,1.252,3.951,2.572,6.04,3.937L66.542,13.184M87.326,28.369c-.138-.523-.2-.809-.288-1.085q-3.759-11.6-7.525-23.2c-.4-1.216-.9-1.48-2.115-1.091Q73.14,4.366,68.888,5.754c-1.258.411-1.5.905-1.088,2.184q1.629,5.05,3.269,10.1,2.121,6.551,4.244,13.1c.347,1.069.9,1.476,1.786,1.2,3.068-.965,6.131-1.947,9.173-2.992.442-.152.753-.684,1.055-.973M13.279,32.407c.961-.031,1.256-.609,1.475-1.287q3.751-11.6,7.508-23.2c.4-1.251.138-1.779-1.112-2.185Q16.9,4.351,12.635,2.991c-1.173-.375-1.7-.113-2.076,1.033Q6.769,15.7,2.992,27.389c-.376,1.163-.114,1.672,1.057,2.055q4.293,1.405,8.593,2.79c.248.08.5.136.638.172M27.365,46.742a2.383,2.383,0,0,0-1.417-2.15,2.163,2.163,0,0,0-2.576.513,39.1,39.1,0,0,0-2.587,3.853,2.14,2.14,0,0,0,.483,2.578,2.256,2.256,0,0,0,2.51.526c1-.376,3.6-4.238,3.588-5.32m-5.211-5.365a2.534,2.534,0,0,0-1.467-2.564,2.234,2.234,0,0,0-2.629.637,43.2,43.2,0,0,0-2.433,3.643,2.18,2.18,0,0,0,.412,2.665,2.081,2.081,0,0,0,2.569.492c1.848-1.261,2.713-3.256,3.548-4.873m13.555,7.653a2.5,2.5,0,0,0-1.487-2.56A2.044,2.044,0,0,0,31.735,47a35.491,35.491,0,0,0-2.6,3.842,2.186,2.186,0,0,0,.467,2.586,2.125,2.125,0,0,0,2.579.47c1.838-1.271,2.7-3.263,3.53-4.872m6.608,1.831a1.677,1.677,0,0,0-1.115-1.7,1.558,1.558,0,0,0-1.878.549q-.923,1.273-1.763,2.607a1.67,1.67,0,1,0,2.79,1.833c.577-.805,1.125-1.632,1.65-2.472a3.815,3.815,0,0,0,.315-.82" transform="translate(0 0)" fill="#64892a"/>
            <path id="Trazado_246589" data-name="Trazado 246589" d="M302.927,32.179A1.374,1.374,0,0,1,301.5,30.84a1.392,1.392,0,0,1,1.3-1.464,1.439,1.439,0,0,1,1.49,1.388,1.423,1.423,0,0,1-1.368,1.414" transform="translate(-230.655 -22.472)" fill="#64892a"/>
            <path id="Trazado_246590" data-name="Trazado 246590" d="M72.407,31.658A1.4,1.4,0,0,1,70.961,33a1.372,1.372,0,0,1-1.354-1.427,1.42,1.42,0,0,1,1.434-1.368,1.452,1.452,0,0,1,1.366,1.449" transform="translate(-53.25 -23.11)" fill="#64892a"/>
          </g>
        </g>
        <g id="Grupo_148279" data-name="Grupo 148279" transform="translate(874 81)">
          <g id="Grupo_148279-2" data-name="Grupo 148279" clip-path="url(#clip-path-17)">
            <path id="Trazado_246591" data-name="Trazado 246591" d="M36.643,3.653c0-.695,0-1.327,0-1.959q0-1.672,1.2-1.694c.82-.014,1.24.571,1.242,1.731,0,.63,0,1.26,0,1.918a34.379,34.379,0,0,1,32.991,33c.779,0,1.512-.009,2.245,0,.852.013,1.383.468,1.407,1.181.024.739-.53,1.243-1.408,1.257-.733.012-1.467,0-2.249,0A34.346,34.346,0,0,1,39.086,72.075c0,.765.008,1.5,0,2.229-.012.893-.492,1.442-1.233,1.433s-1.2-.556-1.206-1.459c-.008-.709,0-1.418,0-2.192a34.384,34.384,0,0,1-32.994-33c-.741,0-1.471.007-2.2,0C.547,39.078,0,38.612,0,37.871s.54-1.208,1.442-1.222c.687-.011,1.374-.011,2.061-.018.022,0,.045-.02.15-.07A34.375,34.375,0,0,1,36.643,3.653m2.443,65.933c17.549-.653,30.207-15.266,30.443-30.421a.4.4,0,0,0-.135-.056c-.661-.009-1.322-.008-1.984-.019-.9-.015-1.444-.481-1.442-1.223s.543-1.206,1.446-1.217c.706-.009,1.412,0,2.118,0C69.251,20.09,54.939,6.35,39.086,6.213V7.5c0,1.679-.331,2.282-1.242,2.266-.885-.015-1.2-.6-1.2-2.229V6.18C19.567,6.616,6.275,21.253,6.225,36.648c.708,0,1.417-.009,2.126,0,.882.014,1.432.512,1.409,1.255-.022.713-.555,1.17-1.405,1.183-.729.012-1.459,0-2.189,0A31.662,31.662,0,0,0,36.643,69.557c0-.629,0-1.258,0-1.887q0-1.671,1.2-1.694c.819-.014,1.241.571,1.242,1.73,0,.606,0,1.212,0,1.88" transform="translate(0 0)" fill="#64892a"/>
            <path id="Trazado_246592" data-name="Trazado 246592" d="M111.174,85.476a25.654,25.654,0,1,1-25.6-25.6,25.668,25.668,0,0,1,25.6,25.6m-48.864-.008a23.211,23.211,0,1,0,23.2-23.148,23.228,23.228,0,0,0-23.2,23.148" transform="translate(-47.656 -47.664)" fill="#64892a"/>
            <path id="Trazado_246593" data-name="Trazado 246593" d="M119.084,111.25a6.92,6.92,0,0,1-2.465-3.886,13.134,13.134,0,0,1,.182-6.707,7.308,7.308,0,0,1,14.205,2.253,26.788,26.788,0,0,1-.062,3.506c-.214,1.929-.769,2.842-2.63,4.862a1.737,1.737,0,0,0,.248.164,12.738,12.738,0,0,1,7.647,10.037c.216,1.195.48,2.381.728,3.6.521,0,.979-.024,1.433.006a1.206,1.206,0,0,1,1.193,1.235,1.222,1.222,0,0,1-1.163,1.19c-.2.02-.407.009-.61.009H109.326c-.958-.012-1.518-.467-1.513-1.229s.56-1.2,1.527-1.213c.354,0,.709,0,1.137,0,.325-1.449.656-2.875.964-4.305a12.579,12.579,0,0,1,7.387-9.288,1.417,1.417,0,0,0,.2-.113c.018-.012.023-.044.061-.121m15.3,13.8c-.27-1.33-.52-2.623-.795-3.91a10.279,10.279,0,0,0-9.285-8.259,10.067,10.067,0,0,0-10.156,7c-.535,1.659-.8,3.4-1.215,5.2.73,0,1.361-.028,1.989.009.459.027.606-.157.68-.589.223-1.3.483-2.6.753-3.892a1.164,1.164,0,0,1,1.3-1.025,1.124,1.124,0,0,1,1.126,1.043,2.6,2.6,0,0,1-.074.828c-.224,1.187-.461,2.372-.7,3.588h11.412c-.3-1.283-.6-2.515-.885-3.751a1.244,1.244,0,0,1,.892-1.655c.675-.152,1.232.266,1.465,1.1.048.171.088.345.131.517l.937,3.8Zm-5.768-20.682-.049,0c0-.457.01-.915,0-1.372a4.9,4.9,0,0,0-4.465-4.777,4.782,4.782,0,0,0-5.161,3.881,19.07,19.07,0,0,0-.133,3.492,4.866,4.866,0,0,0,9.642.9,17.555,17.555,0,0,0,.167-2.119" transform="translate(-85.824 -76.212)" fill="#64892a"/>
          </g>
        </g>
      </g>
    </g>
  </g>
</svg>
