<svg xmlns="http://www.w3.org/2000/svg" xmlns:xlink="http://www.w3.org/1999/xlink" width="104" height="96.224" viewBox="0 0 104 96.224">
  <defs>
    <clipPath id="clip-path">
      <rect id="Rectángulo_89941" data-name="Rectángulo 89941" width="104" height="96.224" fill="#cba124"/>
    </clipPath>
  </defs>
  <g id="Grupo_148870" data-name="Grupo 148870" transform="translate(5565.708 7487.155)">
    <g id="Grupo_148861" data-name="Grupo 148861" transform="translate(-5565.708 -7487.155)">
      <g id="Grupo_148591" data-name="Grupo 148591" clip-path="url(#clip-path)">
        <path id="Trazado_247734" data-name="Trazado 247734" d="M0,77.611V1.64A2.6,2.6,0,0,1,2.761.039Q34.34.059,65.919.055a5.276,5.276,0,0,1,1.3.148,1.922,1.922,0,0,1,1.447,1.958,1.947,1.947,0,0,1-1.655,1.9,9.254,9.254,0,0,1-1.417.061q-30.106,0-60.213,0H4.111V19.167h95.76V4.124h-1.15q-6.5,0-13,0a7.705,7.705,0,0,1-1.215-.059,1.941,1.941,0,0,1-1.645-1.8A1.913,1.913,0,0,1,84.3.2,5.273,5.273,0,0,1,85.6.055C90.814.045,96.026.062,101.239.039A2.6,2.6,0,0,1,104,1.64V77.611a2.672,2.672,0,0,1-2.8,1.525q-15.887-.036-31.775-.013h-1.3c1.688,3.346,3.278,6.477,4.848,9.618.781,1.562.487,2.52-1.028,3.375-2.061,1.162-4.134,2.3-6.2,3.45-2.111,1.172-2.967.906-4-1.242q-2.678-5.573-5.356-11.146c-.155-.322-.342-.628-.54-.991-1.712.848-3.341,1.658-4.974,2.463a2.008,2.008,0,0,1-2.289-.16,2.073,2.073,0,0,1-.74-2.176c.193-1.021.342-2.049.53-3.19h-1.4q-22.029,0-44.059.014c-1.288,0-2.333-.26-2.905-1.526M41.811,48.975l-12.788-9.52c0,.668.016,1.1,0,1.522a2.121,2.121,0,0,1-2.07,2.294c-1.188-.017-1.974-.921-1.989-2.345-.018-1.726-.012-3.453,0-5.179.009-1.672.74-2.405,2.429-2.405q24.78-.006,49.56,0c1.732,0,2.476.747,2.477,2.473q.005,14.675,0,29.351c0,1.784-.727,2.489-2.553,2.492q-5.128.006-10.257,0c-.278,0-.557.036-1.072.071.513.282.8.445,1.094.6,1.822.966,3.653,1.915,5.465,2.9,1.544.839,1.787,2.059.727,3.423a2.224,2.224,0,0,0-.173.339H99.869V23.405H4.128V75.049h43.7c.2,0,.442.067.6-.017.272-.144.663-.351.709-.588.425-2.22.787-4.451,1.185-6.785H30.36c-1.117,0-2.235.025-3.351-.01a1.912,1.912,0,0,1-2.027-1.854q-.061-4.163.011-8.327a1.98,1.98,0,0,1,3.923-.245,8.475,8.475,0,0,1,.105,1.511c.016.65,0,1.3,0,2.181L41.811,48.975m17.426,2.474c-1.806,1.344-3.562,2.657-5.325,3.962-1.381,1.023-2.082,1.023-3.455,0C48.7,54.11,46.944,52.8,45.13,51.447L32.2,63.531H50.94c.822-2.194,1.781-2.553,3.821-1.478a12.465,12.465,0,0,0,1.706.885,8.766,8.766,0,0,0,2.585.621c3.99.065,7.982.03,11.973.026.314,0,.628-.032,1.138-.06L59.237,51.449m-7.051.175L71.135,37.5H33.228L52.186,51.624m.3,27.667c1.127-.557,2-.992,2.877-1.422,1.768-.867,2.718-.54,3.578,1.243q2.155,4.47,4.3,8.946c.525,1.091,1.058,2.178,1.617,3.329l3.8-2.106c-.189-.395-.342-.729-.507-1.057q-2.624-5.2-5.249-10.4c-.855-1.7-.5-2.691,1.215-3.506.855-.405,1.712-.807,2.711-1.278L54.643,66.6,52.487,79.291M62.549,48.977,75.294,60.866V39.488l-12.745,9.49" transform="translate(0 -0.031)" fill="#cba124"/>
        <path id="Trazado_247735" data-name="Trazado 247735" d="M148.71,30.767a5.426,5.426,0,1,1-5.447,5.411,5.444,5.444,0,0,1,5.447-5.411m1.382,5.4a1.384,1.384,0,0,0-1.4-1.314,1.341,1.341,0,1,0,1.4,1.314" transform="translate(-114.162 -24.517)" fill="#cba124"/>
        <path id="Trazado_247736" data-name="Trazado 247736" d="M35.837,30.765a5.426,5.426,0,1,1-5.445,5.409,5.426,5.426,0,0,1,5.445-5.409m-1.344,5.416a1.36,1.36,0,0,0,2.719.018,1.365,1.365,0,0,0-1.354-1.354,1.346,1.346,0,0,0-1.366,1.336" transform="translate(-24.219 -24.516)" fill="#cba124"/>
        <path id="Trazado_247737" data-name="Trazado 247737" d="M92.379,41.61a5.426,5.426,0,1,1,5.443-5.4,5.419,5.419,0,0,1-5.443,5.4m1.342-5.4A1.322,1.322,0,0,0,92.4,34.839a1.343,1.343,0,1,0-.045,2.686,1.314,1.314,0,0,0,1.368-1.319" transform="translate(-69.285 -24.51)" fill="#cba124"/>
        <path id="Trazado_247738" data-name="Trazado 247738" d="M366.105,2.122a2.019,2.019,0,0,1-1.989,2.006,2.08,2.08,0,0,1-2.074-2.153A2.083,2.083,0,0,1,364.086,0a2.125,2.125,0,0,1,2.019,2.121" transform="translate(-288.502 0)" fill="#cba124"/>
        <path id="Trazado_247739" data-name="Trazado 247739" d="M124.835,234.728a2.105,2.105,0,0,1,2.08,2.052,2.033,2.033,0,1,1-4.065-.057,1.981,1.981,0,0,1,1.985-1.995" transform="translate(-97.896 -187.048)" fill="#cba124"/>
      </g>
    </g>
  </g>
</svg>
