<svg xmlns="http://www.w3.org/2000/svg" xmlns:xlink="http://www.w3.org/1999/xlink" width="97.811" height="104.438" viewBox="0 0 97.811 104.438">
  <defs>
    <clipPath id="clip-path">
      <rect id="Rectángulo_89940" data-name="Rectángulo 89940" width="97.81" height="104.438" fill="#cba124"/>
    </clipPath>
  </defs>
  <g id="Grupo_148869" data-name="Grupo 148869" transform="translate(5691 7486.281)">
    <g id="Grupo_148860" data-name="Grupo 148860" transform="translate(-5691 -7486.281)">
      <g id="Grupo_148589" data-name="Grupo 148589" clip-path="url(#clip-path)">
        <path id="Trazado_247730" data-name="Trazado 247730" d="M72.918,0a4.323,4.323,0,0,1,.766,1.029c.407,1.147-.372,2.027-1.759,2.028-6.817.006-13.635,0-20.452.01a12.026,12.026,0,0,0-2.121.169,8.175,8.175,0,0,0-6.785,7.915c-.074,5.776-.037,11.554-.007,17.33a1.628,1.628,0,0,0,.549,1.079,9.534,9.534,0,0,1,3.538,7.679c-.008,5.3.012,10.6-.019,15.9-.005.72.171,1.2.883,1.353a19.676,19.676,0,0,0,3.758.713c5.867.075,11.735.031,17.6.034,1.714,0,2.164.456,2.168,2.177.005,1.663,0,3.325,0,5.215.424-.3.711-.494.984-.7,2.586-1.98,5.185-3.945,7.744-5.959a3.242,3.242,0,0,1,2.241-.741c1.32.043,2.645.017,3.968.01a8.377,8.377,0,0,0,8.756-8.789q.022-14.681,0-29.361c0-1.835.019-3.671-.005-5.505a8.348,8.348,0,0,0-8.6-8.524c-1.187-.007-2.375-.013-3.561,0-.84.012-1.684.026-2.045-.935A1.816,1.816,0,0,1,81.265,0h6.514c.873.251,1.765.45,2.614.764A11.194,11.194,0,0,1,97.77,11.147q.068,18-.005,35.992A11.355,11.355,0,0,1,86.629,58.291a3.56,3.56,0,0,1-.711.005c-2.959-.478-5.311.575-7.527,2.544-2.379,2.114-5.035,3.913-7.561,5.86a1.723,1.723,0,0,1-1.948.436c-.812-.39-.908-1.084-.9-1.878.02-2.27.007-4.54.007-6.849-7.127-.5-14.224.55-21.289-.7v7.676h1.12c3.8,0,7.6.135,11.4-.033,4.916-.22,8.429,3.174,8.13,8.209-.123,2.066,0,4.146-.034,6.219a1.5,1.5,0,0,1-2.021,1.578c-.824-.256-1.021-.909-1.02-1.682,0-2.209.005-4.418,0-6.627-.011-3.044-1.54-4.6-4.563-4.6q-9.362-.014-18.724,0c-3.051,0-4.59,1.529-4.594,4.56q-.012,9.381,0,18.76c0,2.951,1.585,4.509,4.539,4.514q4.783,0,9.566,0c1.928,0,2.313.385,2.32,2.318,0,.3,0,.609,0,1.072a7.778,7.778,0,0,0,.727-.423,16.593,16.593,0,0,0,1.687-1.311A5.921,5.921,0,0,1,60,96.243c2.545.147,4.184-1.577,4.26-4.141.026-.849-.02-1.7.03-2.548A1.372,1.372,0,0,1,65.783,88.1a1.338,1.338,0,0,1,1.5,1.426,21.1,21.1,0,0,1-.264,4.553,6.685,6.685,0,0,1-6.672,5.224,5,5,0,0,0-3.566,1.287c-1.562,1.34-3.219,2.569-4.836,3.845H50.728a2.524,2.524,0,0,1-.982-2.393c.068-.843.014-1.7.014-2.7H48.632c-2.647,0-5.293.008-7.94,0a7.03,7.03,0,0,1-7.352-7.383c-.033-5.2-.009-10.4-.009-15.6V75.12c-.455.329-.743.525-1.02.737q-3.144,2.426-6.282,4.86a1.759,1.759,0,0,1-1.953.447c-.818-.378-.915-1.087-.906-1.878.019-1.659.006-3.318.006-5.126H21.887c-4.072,0-8.144.028-12.215-.008A9.329,9.329,0,0,1,.146,66.473a8.128,8.128,0,0,1-.134-1.519Q-.006,57.3,0,49.655c0-1.235.634-1.85,1.71-1.733.863.094,1.32.659,1.333,1.734.02,1.7.006,3.4.006,5.1,0,3.2-.006,6.391,0,9.587.01,4.152,2.572,6.734,6.735,6.752,4.683.021,9.365,0,14.047.005,2.016,0,2.389.372,2.392,2.37,0,.979,0,1.958,0,3.1.347-.215.575-.33.773-.482,1.991-1.532,3.985-3.059,5.952-4.62A2.107,2.107,0,0,0,33.6,70.5a7.006,7.006,0,0,1,6.539-5.082c1.108-.055,2.222-.009,3.454-.009V64.175q0-13.412,0-26.823c0-4.112-2.639-6.749-6.756-6.753q-13.539-.011-27.076,0c-4.076,0-6.682,2.613-6.7,6.68-.005.884.017,1.768-.007,2.651-.029,1.143-.579,1.725-1.568,1.71-.97-.014-1.486-.549-1.468-1.669A30.154,30.154,0,0,1,.231,35a9.072,9.072,0,0,1,8.86-7.433c9.5-.057,19-.021,28.5-.011.57,0,1.14.108,1.833.178.02-.383.054-.735.054-1.089q0-7.24,0-14.482c.005-6.447,3.46-10.7,9.757-12.021A1.1,1.1,0,0,0,49.507,0Z" transform="translate(0)" fill="#cba124"/>
        <path id="Trazado_247731" data-name="Trazado 247731" d="M18.8,45.04c.277-1.653.541-3.223.8-4.792.039-.234.066-.472.122-.7a1.49,1.49,0,0,1,1.734-1.325A1.442,1.442,0,0,1,22.7,40c-.141,1.179-.364,2.347-.548,3.52-.073.465-.14.931-.226,1.519,1.118,0,2.163.042,3.2-.035.213-.017.511-.458.568-.743.3-1.531.518-3.078.8-4.614a1.5,1.5,0,0,1,1.843-1.4A1.538,1.538,0,0,1,29.48,40.2c-.251,1.57-.51,3.138-.787,4.843,1.482,0,2.864,0,4.246,0a1.6,1.6,0,0,1,1.641.966,1.5,1.5,0,0,1-1.485,2.078c-1.59.037-3.182.009-4.894.009-.209,1.22-.412,2.4-.644,3.755,1.47,0,2.845,0,4.219,0,.475,0,.952-.019,1.424.022a1.453,1.453,0,0,1,1.486,1.485,1.425,1.425,0,0,1-1.451,1.517c-1.558.062-3.119.031-4.679.035-1.489,0-1.5,0-1.751,1.461-.226,1.3-.418,2.614-.657,3.916-.2,1.086-.9,1.619-1.826,1.445-.887-.168-1.331-.96-1.153-2.045.253-1.535.5-3.07.767-4.7H20.274c-.29,1.714-.576,3.413-.861,5.111-.2,1.2-.819,1.766-1.781,1.64S16.2,60.8,16.4,59.565c.245-1.5.5-3,.78-4.657-1.434,0-2.784.064-4.122-.03a2.5,2.5,0,0,1-1.585-.668,1.433,1.433,0,0,1,1.172-2.329c1.386-.073,2.779-.058,4.168-.018.678.02.963-.186,1.021-.889.077-.9.28-1.8.458-2.875-1.493,0-2.866,0-4.239,0-.442,0-.883.014-1.323-.011a1.518,1.518,0,1,1,.026-3.035c1.661-.037,3.323-.012,4.984-.013H18.8m2.011,6.746h3.662c.2-1.234.39-2.412.595-3.684-1.134,0-2.113-.028-3.088.021a.83.83,0,0,0-.631.444c-.221,1.05-.362,2.117-.538,3.22" transform="translate(0.379 1.3)" fill="#cba124"/>
        <path id="Trazado_247732" data-name="Trazado 247732" d="M48.916,73.817c2.457-1.453,4.744-1.382,6.685.158a6.194,6.194,0,0,1,1.785,6.849,8.152,8.152,0,0,1-3.021,4.122,48.089,48.089,0,0,1-4.525,2.9,1.879,1.879,0,0,1-1.527.112,19.276,19.276,0,0,1-6.262-4.439A7.264,7.264,0,0,1,40.2,78.79a5.616,5.616,0,0,1,2.853-5.371,5.154,5.154,0,0,1,5.868.4m5.746,4.88a2.648,2.648,0,0,0-1.7-2.741c-1.1-.388-1.8-.1-2.72,1.126a1.516,1.516,0,0,1-2.672-.153,2.148,2.148,0,0,0-2.309-1.106A2.288,2.288,0,0,0,43.357,77.7a3.847,3.847,0,0,0,1.127,3.923,41.13,41.13,0,0,0,4.074,3,.888.888,0,0,0,.809,0c1.338-.916,2.7-1.814,3.938-2.854A3.912,3.912,0,0,0,54.662,78.7" transform="translate(1.368 2.474)" fill="#cba124"/>
        <path id="Trazado_247733" data-name="Trazado 247733" d="M60.675,24.46a69.686,69.686,0,0,0,4.648-5.606A15.125,15.125,0,0,0,66.789,14.7c.175-.576.091-1.237.3-1.8a2.967,2.967,0,0,1,2.68-2.033,2.9,2.9,0,0,1,2.957,1.589,11.718,11.718,0,0,1,.829,9.927c-.133.381-.28.757-.486,1.308.949,0,1.806,0,2.663,0,1.594,0,3.189-.01,4.782.012A3.859,3.859,0,0,1,84.494,27.6q.05,7.391,0,14.782A3.874,3.874,0,0,1,81.077,46.2a6.412,6.412,0,0,1-.912.068c-4.612,0-9.225.014-13.837,0a10.548,10.548,0,0,1-5.343-1.3,15.043,15.043,0,0,1-2.573.574c-2.373.064-4.748.03-7.122.021-1.393-.006-1.883-.5-1.885-1.91q-.012-8.869,0-17.739c0-1.408.486-1.881,1.914-1.888,2.441-.013,4.884-.029,7.325.013a11.937,11.937,0,0,1,2.032.423M70.011,13.9a6.788,6.788,0,0,0-.141.691,12.42,12.42,0,0,1-3.534,8.024q-2.609,2.86-5.115,5.813a2.3,2.3,0,0,0-.546,1.33q-.067,5.25,0,10.5a1.766,1.766,0,0,0,.563,1.168A7.3,7.3,0,0,0,66.1,43.2c4.682.023,9.364,0,14.046.018.947,0,1.319-.4,1.313-1.361-.028-4.556-.009-9.111-.012-13.666,0-1.248-.179-1.427-1.406-1.431-2.986-.01-5.972,0-8.957-.023-1.573-.012-2.215-.985-1.637-2.433.427-1.071.937-2.114,1.3-3.206a8.664,8.664,0,0,0-.74-7.2M57.558,27.16H52.535V42.43h5.022Z" transform="translate(1.681 0.369)" fill="#cba124"/>
      </g>
    </g>
  </g>
</svg>
