<svg xmlns="http://www.w3.org/2000/svg" xmlns:xlink="http://www.w3.org/1999/xlink" width="105.213" height="101.702" viewBox="0 0 105.213 101.702">
  <defs>
    <clipPath id="clip-path">
      <rect id="Rectángulo_89937" data-name="Rectángulo 89937" width="105.213" height="101.702" fill="#cba124"/>
    </clipPath>
  </defs>
  <g id="Grupo_148866" data-name="Grupo 148866" transform="translate(6078.606 7490)">
    <g id="Grupo_148857" data-name="Grupo 148857" transform="translate(-81.394 -129)">
      <g id="Grupo_148633" data-name="Grupo 148633" transform="translate(-5997.213 -7361)">
        <g id="Grupo_148583" data-name="Grupo 148583" clip-path="url(#clip-path)">
          <path id="Trazado_247707" data-name="Trazado 247707" d="M105.213,6.052V74.686c-1.274,4.8-4.645,6.054-8.642,6.008-10.681-.124-21.365-.042-32.048-.042h-1.36c.161,1.148.244,2.167.453,3.159.989,4.684,3.523,7.44,8.608,7.345a26.079,26.079,0,0,1,4,.144,5.174,5.174,0,0,1,3.808,7.581,5.378,5.378,0,0,1-5.2,2.82q-22.239-.018-44.477-.008c-.308,0-.616-.022-.922-.049a5.174,5.174,0,0,1-4.849-5.053,5.11,5.11,0,0,1,4.549-5.307c1.558-.176,3.143-.115,4.716-.161a7.222,7.222,0,0,0,5.2-2.075c2.251-2.31,2.706-5.247,2.945-8.4H40.658q-16.538,0-33.076,0C2.945,80.647,0,77.713,0,73.082Q0,40.314,0,7.547C.005,2.97,2.906.013,7.5.011Q52.6-.014,97.691.035a9.564,9.564,0,0,1,3.655.788c2.244.963,3.3,2.947,3.867,5.229M94.64,10.6H10.559V62.967H94.64ZM3.609,66.717a1.118,1.118,0,0,0-.09.26q-.012,2.875-.016,5.751c0,3.182,1.233,4.424,4.394,4.424H97.355c.342,0,.686.01,1.027-.014a3.353,3.353,0,0,0,3.254-3.012c.132-2.447.034-4.906.034-7.408Zm98.1-3.7V61.945q0-27.125,0-54.249c0-2.885-1.3-4.178-4.22-4.179q-44.9,0-89.8,0c-2.9,0-4.19,1.306-4.19,4.208q0,27.073,0,54.147v1.132H7v-1.3Q7,35.71,7,9.716c0-2.22.476-2.69,2.724-2.69H95.518c2.222,0,2.694.478,2.694,2.721q0,25.995,0,51.989v1.282ZM63.277,91.1c-2.579-3.126-3.308-6.708-3.63-10.37h-14.1c-.276,3.769-1.1,7.307-3.582,10.37ZM52.5,98.182q10.993,0,21.986,0a7.018,7.018,0,0,0,1.228-.066,1.7,1.7,0,0,0,.142-3.3,5.194,5.194,0,0,0-1.32-.129c-3.9.015-7.806.068-11.708.064q-15.306-.016-30.612-.064a17.273,17.273,0,0,0-2.86.143,1.5,1.5,0,0,0-1.242,1.743A1.55,1.55,0,0,0,29.5,98.113a6.994,6.994,0,0,0,1.228.066q10.89.005,21.78,0" transform="translate(0 0)" fill="#cba124"/>
          <path id="Trazado_247708" data-name="Trazado 247708" d="M145.209,87.766c1.412,1.4,2.653,2.625,3.884,3.859,1.322,1.326,1.331,2.084.038,3.386-1.4,1.409-2.8,2.818-4.214,4.211-1.1,1.085-1.991,1.083-3.091-.007-1.285-1.274-2.547-2.57-3.95-3.989-.769.806-1.453,1.559-2.177,2.272-1.355,1.335-2.757.966-3.32-.865-.452-1.47-.921-2.937-1.3-4.425-.186-.73-.516-.95-1.268-.945-4.861.036-9.723.019-14.584.019q-12.068,0-24.136,0c-1.961,0-2.5-.541-2.5-2.494q-.005-15.919-.007-31.838c0-2,.487-2.5,2.457-2.5q23.827-.005,47.655,0c2.015,0,2.508.513,2.507,2.566,0,7.532.013,15.063-.027,22.595,0,.926.177,1.409,1.167,1.624,1.431.312,2.826.8,4.23,1.234,1.813.561,2.177,1.985.832,3.326-.675.674-1.417,1.281-2.191,1.974m-7.577-20.951H92.142V87.728h37.518c-.764-2.579-1.5-5.094-2.259-7.6a1.911,1.911,0,0,1,2.6-2.652c2.535.768,5.08,1.507,7.636,2.261ZM92.119,63.15h45.5V58.065h-45.5Zm53.65,30.2a2.021,2.021,0,0,0-.165-.251q-1.59-1.6-3.183-3.2c-1.6-1.6-1.6-2.452-.039-4.039.21-.213.406-.439.713-.773L131.611,81.7,135,93.163c.256-.217.413-.336.553-.471,1.929-1.862,2.845-1.87,4.7.017,1.018,1.034,1.995,2.11,2.954,3.13l2.554-2.488" transform="translate(-65.783 -40.433)" fill="#cba124"/>
          <path id="Trazado_247709" data-name="Trazado 247709" d="M184.349,272.561c1.606,0,3.213-.012,4.819,0,1.294.012,2.079.7,2.062,1.766a1.8,1.8,0,0,1-2.019,1.724q-4.973.029-9.945,0a1.8,1.8,0,0,1-2.011-1.731c-.012-1.064.774-1.747,2.07-1.759,1.674-.015,3.349,0,5.024,0" transform="translate(-131.635 -202.41)" fill="#cba124"/>
          <path id="Trazado_247710" data-name="Trazado 247710" d="M124.619,129.486c2.188,0,4.377-.014,6.565.005,1.507.013,2.109.611,2.125,2.122q.034,3.128,0,6.258c-.017,1.481-.66,2.124-2.142,2.129q-6.616.023-13.233,0c-1.47-.005-2.13-.679-2.143-2.146-.019-2.017-.011-4.035,0-6.053.006-1.7.594-2.3,2.266-2.311,2.188-.013,4.377,0,6.565,0m5.137,3.6h-10.4v3.349h10.4Z" transform="translate(-85.982 -96.157)" fill="#cba124"/>
        </g>
      </g>
    </g>
  </g>
</svg>
