<svg xmlns="http://www.w3.org/2000/svg" xmlns:xlink="http://www.w3.org/1999/xlink" width="104" height="97.109" viewBox="0 0 104 97.109">
  <defs>
    <clipPath id="clip-path">
      <rect id="Rectángulo_89939" data-name="Rectángulo 89939" width="104" height="97.109" fill="#cba124"/>
    </clipPath>
  </defs>
  <g id="Grupo_148868" data-name="Grupo 148868" transform="translate(5813 7486.281)">
    <g id="Grupo_148859" data-name="Grupo 148859" transform="translate(-5813 -7486.281)">
      <g id="Grupo_148587" data-name="Grupo 148587" clip-path="url(#clip-path)">
        <path id="Trazado_247717" data-name="Trazado 247717" d="M104,76.579c-.382,1.672-.633,3.387-1.166,5.009a22.5,22.5,0,0,1-43.56-3.226c-.363-2.075-.363-2.075-2.495-2.075H23.467c-2.243,0-2.68-.437-2.681-2.674q0-8.429,0-16.859V55.469H19.564q-8.633,0-17.265,0c-1.748,0-2.3-.554-2.3-2.31Q0,27.666,0,2.175C0,.556.56,0,2.2,0H63.54C65.36,0,65.9.519,65.9,2.354q-.01,8.581-.046,17.162c0,.366,0,.732,0,1.232h1.272q8.531,0,17.062,0c1.952,0,2.54.587,2.537,2.54q-.017,14.117-.054,28.233a1.19,1.19,0,0,0,1.012,1.389c9.177,3,14.6,9.265,16.134,18.836.042.26.124.513.187.769ZM3.527,51.926h58.8V17.394H3.527ZM62.454,73.894A19.044,19.044,0,1,0,82.1,55.523,19.053,19.053,0,0,0,62.454,73.894M24.324,72.74h34.43c2.577-13.546,10.631-20.492,24.395-20.9v-13.6H65.9V39.41q0,6.7,0,13.4c0,2.262-.409,2.672-2.652,2.672H24.324Zm37.986-69.2H3.537V13.812H62.309Zm3.712,31.072H83.067V24.392H66.021Z" transform="translate(0 0)" fill="#cba124"/>
        <path id="Trazado_247718" data-name="Trazado 247718" d="M105.794,124.813c-4.737,0-9.475-.009-14.212.008a1.874,1.874,0,0,1-2-1.069,1.7,1.7,0,0,1,1.263-2.344,5.351,5.351,0,0,1,1.111-.057q13.959,0,27.917,0c.237,0,.475-.011.71.007a1.763,1.763,0,0,1,1.778,1.723,1.709,1.709,0,0,1-1.85,1.724c-4.027.018-8.054.009-12.08.01h-2.64" transform="translate(-65.174 -88.417)" fill="#cba124"/>
        <path id="Trazado_247719" data-name="Trazado 247719" d="M45.828,99.293H34.567c-.3,0-.61.014-.912-.013a1.658,1.658,0,0,1-1.6-1.644,1.687,1.687,0,0,1,1.47-1.774,5.823,5.823,0,0,1,.911-.029q11.464,0,22.927,0c.237,0,.475-.012.71.01a1.712,1.712,0,0,1,1.655,1.814A1.656,1.656,0,0,1,58,99.28c-1.487.034-2.975.012-4.463.013h-7.71" transform="translate(-23.356 -69.824)" fill="#cba124"/>
        <path id="Trazado_247720" data-name="Trazado 247720" d="M45.722,150.37c-3.888,0-7.777.034-11.663-.035a2.8,2.8,0,0,1-1.834-.77,1.6,1.6,0,0,1,.851-2.524,4.068,4.068,0,0,1,1.2-.135q11.461-.011,22.922,0a5.912,5.912,0,0,1,.81.028,1.7,1.7,0,0,1,1.587,1.776,1.633,1.633,0,0,1-1.7,1.642c-1.757.044-3.516.021-5.274.022q-3.448,0-6.9,0" transform="translate(-23.22 -107.037)" fill="#cba124"/>
        <path id="Trazado_247721" data-name="Trazado 247721" d="M161.2,99.292c-1.926,0-3.853.008-5.779,0-1.3-.007-2.039-.654-2.031-1.736s.765-1.716,2.062-1.719q5.729-.013,11.458,0c1.266,0,2.056.7,2.046,1.749s-.791,1.7-2.078,1.706c-1.893.009-3.786,0-5.678,0" transform="translate(-111.764 -69.824)" fill="#cba124"/>
        <path id="Trazado_247722" data-name="Trazado 247722" d="M37.169,124.784c-1.113,0-2.226.023-3.338-.007a1.716,1.716,0,1,1-.09-3.431q3.488-.071,6.979,0a1.716,1.716,0,1,1-.112,3.429c-1.146.028-2.292.007-3.439.006" transform="translate(-23.357 -88.392)" fill="#cba124"/>
        <path id="Trazado_247723" data-name="Trazado 247723" d="M158.61,150.334c-1.146,0-2.294.027-3.439-.009a1.715,1.715,0,1,1-.079-3.428q3.487-.078,6.978,0a1.716,1.716,0,1,1-.122,3.428c-1.112.033-2.225.007-3.338.006" transform="translate(-111.769 -107.007)" fill="#cba124"/>
        <path id="Trazado_247724" data-name="Trazado 247724" d="M270.32,251.013c1.678-2.517,3.268-4.9,4.859-7.287,1.444-2.164,2.872-4.34,4.342-6.486a1.707,1.707,0,0,1,2.476-.519,1.76,1.76,0,0,1,.391,2.438c-.051.088-.108.172-.164.256q-5.025,7.554-10.053,15.106a1.729,1.729,0,0,1-2.965.28q-3.222-3.233-6.439-6.471c-.967-.975-1.081-1.975-.326-2.743s1.794-.674,2.754.283c1.674,1.668,3.337,3.347,5.127,5.144" transform="translate(-190.865 -172.244)" fill="#cba124"/>
        <path id="Trazado_247725" data-name="Trazado 247725" d="M122.466,220.622c-3.991,0-7.981.008-11.972-.007a1.718,1.718,0,0,1-1.895-1.679,1.783,1.783,0,0,1,1.833-1.772c.269-.017.541,0,.811,0h22.523c.237,0,.474-.009.71.005a1.768,1.768,0,0,1,1.841,1.759,1.717,1.717,0,0,1-1.88,1.692c-2.367.021-4.734.008-7.1.008h-4.87" transform="translate(-79.129 -158.227)" fill="#cba124"/>
        <path id="Trazado_247726" data-name="Trazado 247726" d="M259.9,166.137c.846,0,1.694-.028,2.538.007a1.716,1.716,0,0,1,.018,3.431q-2.638.063-5.28,0a1.705,1.705,0,0,1-1.677-1.7,1.757,1.757,0,0,1,1.761-1.732c.068,0,.135,0,.2,0H259.9Z" transform="translate(-186.165 -121.046)" fill="#cba124"/>
        <path id="Trazado_247727" data-name="Trazado 247727" d="M28.1,29c-1.729.011-2.571-.564-2.552-1.729s.876-1.726,2.6-1.72a6.185,6.185,0,0,1,1.209.065A1.7,1.7,0,0,1,29.108,29c-.335.028-.675,0-1.013,0" transform="translate(-18.611 -18.618)" fill="#cba124"/>
        <path id="Trazado_247728" data-name="Trazado 247728" d="M92.091,28.959c-.3,0-.609.018-.911,0a1.716,1.716,0,0,1-.07-3.428,11.625,11.625,0,0,1,1.72-.017,1.754,1.754,0,0,1,1.836,1.754,1.716,1.716,0,0,1-1.866,1.7c-.236.009-.473,0-.709,0v-.007" transform="translate(-65.214 -18.571)" fill="#cba124"/>
        <path id="Trazado_247729" data-name="Trazado 247729" d="M60.142,28.952c-.3,0-.609.019-.911,0a1.658,1.658,0,0,1-1.65-1.587A1.684,1.684,0,0,1,59.1,25.536a10.384,10.384,0,0,1,1.92-.022,1.691,1.691,0,0,1,1.7,1.763,1.671,1.671,0,0,1-1.768,1.679c-.269.014-.54,0-.81,0v-.005" transform="translate(-41.953 -18.566)" fill="#cba124"/>
      </g>
    </g>
  </g>
</svg>
