<svg xmlns="http://www.w3.org/2000/svg" xmlns:xlink="http://www.w3.org/1999/xlink" width="94.666" height="96.224" viewBox="0 0 94.666 96.224">
  <defs>
    <clipPath id="clip-path">
      <rect id="Rectángulo_89951" data-name="Rectángulo 89951" width="94.666" height="96.224" fill="#cba124"/>
    </clipPath>
  </defs>
  <g id="Grupo_148873" data-name="Grupo 148873" transform="translate(5868.595 7312)">
    <g id="Grupo_148863" data-name="Grupo 148863" transform="translate(-5868.595 -7312)">
      <g id="Grupo_148606" data-name="Grupo 148606" clip-path="url(#clip-path)">
        <path id="Trazado_247743" data-name="Trazado 247743" d="M132.105,167c-1.974-1.916-3.963-3.816-5.917-5.752-3.026-3-6.028-6.02-9.041-9.03-.154-.153-.317-.3-.525-.492-6.3,4.121-13.074,5.27-20.225,2.794S84.586,147,82.175,139.746h-21.7v-3.192H81.511a22.342,22.342,0,0,1,1.259-11.287,2.888,2.888,0,0,0,.087-1.019q.007-7.7,0-15.408v-1.11h3.185v11.431c1.032-.965,2.051-1.874,3.007-2.845a1.509,1.509,0,0,0,.207-.954c.014-3.257.009-6.514.009-9.771v-1.081h3.159v9.343c1.1-.5,2.073-.906,3-1.4.181-.1.246-.534.249-.815.021-1.81.011-3.62.011-5.5h3.188v5.22l3.212-.453V99.725h3.2v11.169l3.236.468V96.523h3.231v1.145c0,4.6.011,9.207-.012,13.811,0,.639.125,1.021.8,1.248a23.329,23.329,0,0,1,2.392,1.113v-10.9h3.238v1.036c0,3.789.012,7.579-.013,11.368a1.546,1.546,0,0,0,.607,1.366c.922.738,1.8,1.533,2.59,2.215v-9.578h3.224v1.03c0,4.635-.006,9.27.01,13.9a4.03,4.03,0,0,0,.219,1.37,21.655,21.655,0,0,1,1.16,10.436,4.044,4.044,0,0,0,0,.436h1.758v3.11c-.081.04-.14.1-.186.088-1.774-.346-2.8.345-3.09,2.152a2.977,2.977,0,0,1-.53,1.193c-.6.838-.408,1.4.32,2.117,4.644,4.568,9.234,9.192,13.84,13.8,1.255,1.255,1.25,1.959-.016,3.228s-2.516,2.533-3.792,3.782c-.376.368-.814.674-1.223,1.009Zm-28.381-52.933a19.242,19.242,0,1,0,19.228,19.255,19.244,19.244,0,0,0-19.228-19.255m31.241,46.568-13.518-13.516-2.355,2.6,13.394,13.35,2.479-2.433" transform="translate(-44.348 -70.78)" fill="#cba124"/>
        <path id="Trazado_247744" data-name="Trazado 247744" d="M114.343,112.691l-2.4-2.115c1.176-1.315,1.208-2.889,1.207-4.507q-.026-24.663-.011-49.327c0-3.6-1.9-5.49-5.512-5.49q-31.389,0-62.778,0c-3.605,0-5.486,1.889-5.487,5.515q0,24.945,0,49.891c0,3.7,1.855,5.562,5.533,5.563q9.445,0,18.89,0h1.171v3.163c-.32.018-.594.046-.869.046-6.516,0-13.032.015-19.547,0a8,8,0,0,1-8.17-6.265,10.053,10.053,0,0,1-.217-2.235q-.018-25.18-.005-50.36c0-4.186,2.355-7.348,6.141-8.261a10.022,10.022,0,0,1,2.326-.251q31.623-.02,63.247-.008c5.082,0,8.479,3.409,8.48,8.494q.008,25.227.011,50.455a8.381,8.381,0,0,1-2.008,5.7" transform="translate(-26.502 -35.229)" fill="#cba124"/>
        <path id="Trazado_247745" data-name="Trazado 247745" d="M80.167,9.569H77.075c-.017-.337-.044-.64-.046-.943C77.009,5.1,75.1,3.2,71.539,3.2H8.661c-3.523,0-5.447,1.929-5.447,5.47,0,16.506.023,33.014-.025,49.52-.008,2.762.821,4.834,3.626,5.847L6.038,67.1a12.614,12.614,0,0,1-1.323-.48,7.939,7.939,0,0,1-4.7-7.611Q-.018,45.81,0,32.608q0-12.122,0-24.243A8.014,8.014,0,0,1,6.943.088,10.6,10.6,0,0,1,8.628,0Q40.114,0,71.6,0c5.58,0,9.072,3.857,8.567,9.568" transform="translate(0 0)" fill="#cba124"/>
        <rect id="Rectángulo_89943" data-name="Rectángulo 89943" width="3.101" height="19.147" transform="translate(25.752 43.344)" fill="#cba124"/>
        <rect id="Rectángulo_89944" data-name="Rectángulo 89944" width="3.118" height="14.307" transform="translate(32.157 48.191)" fill="#cba124"/>
        <rect id="Rectángulo_89945" data-name="Rectángulo 89945" width="3.093" height="9.479" transform="translate(19.35 53.001)" fill="#cba124"/>
        <rect id="Rectángulo_89946" data-name="Rectángulo 89946" width="3.093" height="3.103" transform="translate(6.491 6.455)" fill="#cba124"/>
        <rect id="Rectángulo_89947" data-name="Rectángulo 89947" width="3.059" height="3.114" transform="translate(12.939 6.463)" fill="#cba124"/>
        <rect id="Rectángulo_89948" data-name="Rectángulo 89948" width="3.088" height="3.074" transform="translate(19.352 6.457)" fill="#cba124"/>
        <rect id="Rectángulo_89949" data-name="Rectángulo 89949" width="3.08" height="3.102" transform="translate(28.974 19.296)" fill="#cba124"/>
        <path id="Trazado_247746" data-name="Trazado 247746" d="M60.478,75.526V72.39H63.63c0,.906.028,1.771-.023,2.631a.7.7,0,0,1-.486.482c-.861.051-1.726.023-2.643.023" transform="translate(-44.348 -53.083)" fill="#cba124"/>
        <rect id="Rectángulo_89950" data-name="Rectángulo 89950" width="3.082" height="3.115" transform="translate(22.57 19.296)" fill="#cba124"/>
        <path id="Trazado_247747" data-name="Trazado 247747" d="M178.524,174.38A16.032,16.032,0,1,1,162.542,190.5a16.034,16.034,0,0,1,15.982-16.122m1.63,3.452v12.534h-3.227v-12.71c-.9.223-1.646.43-2.406.6-.637.138-.8.5-.8,1.135.033,3.318.017,6.637.013,9.956,0,.333-.028.667-.043,1.007h-3.167v-9.773c-3.745,2.412-5.881,9.053-4.284,13.023h24.663c1.5-4.216-.657-10.835-4.32-13v9.778h-3.2V181.05c0-2.888-.085-2.981-3-3.286a1.382,1.382,0,0,0-.237.067m9.49,19.075H167.475c2.7,4.09,6.314,6.312,11.091,6.31s8.4-2.209,11.079-6.31" transform="translate(-119.192 -127.872)" fill="#cba124"/>
      </g>
    </g>
  </g>
</svg>
