<svg xmlns="http://www.w3.org/2000/svg" xmlns:xlink="http://www.w3.org/1999/xlink" width="94.666" height="94.635" viewBox="0 0 94.666 94.635">
  <defs>
    <clipPath id="clip-path">
      <rect id="Rectángulo_89956" data-name="Rectángulo 89956" width="94.666" height="94.635" fill="#cba124"/>
    </clipPath>
  </defs>
  <g id="Grupo_148871" data-name="Grupo 148871" transform="translate(5624.405 7327)">
    <g id="Grupo_148865" data-name="Grupo 148865" transform="translate(-5624.405 -7327)">
      <g id="Grupo_148610" data-name="Grupo 148610" clip-path="url(#clip-path)">
        <path id="Trazado_247751" data-name="Trazado 247751" d="M72.633,59.184A12.8,12.8,0,0,1,78.3,62.352a4.86,4.86,0,0,1,.072,7.092,12.424,12.424,0,0,1-3.049,2.233A17.4,17.4,0,0,1,68.172,73.5a20.993,20.993,0,0,1-11.584-2,10.964,10.964,0,0,1-2.905-2.261,4.77,4.77,0,0,1-.019-6.588,10.806,10.806,0,0,1,4.576-2.994c.384-.147.772-.283,1.226-.448C58.416,57.68,57.382,56.2,56.38,54.7c-3.2-4.8-6.06-9.785-7.525-15.431-1.3-5.013-1.675-10.029.285-14.989a18.18,18.18,0,0,1,34.916,3.266c.964,5.145-.012,10.053-1.83,14.849-2.066,5.452-5.191,10.317-8.457,15.1-.373.546-.738,1.1-1.135,1.691m-6.546,4.048c1.653-2.385,3.217-4.62,4.759-6.87a80.776,80.776,0,0,0,7.73-13.123c2-4.574,3.273-9.283,2.619-14.348a15.23,15.23,0,0,0-30.34,1.83,29.218,29.218,0,0,0,2.409,12.062c3.107,7.485,8.186,13.727,12.823,20.45m.4,7.326c.646-.054,1.666-.084,2.669-.234a12.692,12.692,0,0,0,6.583-2.52c1.418-1.2,1.487-2.612-.03-3.652a30.955,30.955,0,0,0-4.24-2.064c-.533-.254-.858-.081-1.171.4-.862,1.334-1.769,2.639-2.664,3.951-.949,1.392-2.041,1.4-3.008.032-.952-1.35-1.889-2.712-2.857-4.052-.144-.2-.464-.469-.632-.427-1.955.49-3.865,1.115-5.209,2.751a1.644,1.644,0,0,0,0,2.415,8.276,8.276,0,0,0,2.161,1.669,18.309,18.309,0,0,0,8.4,1.727" transform="translate(-18.781 -4.92)" fill="#cba124"/>
        <path id="Trazado_247752" data-name="Trazado 247752" d="M10.594,109.374c-2.894,0-5.788.005-8.683,0-1.369,0-1.906-.538-1.907-1.907Q0,98.685,0,89.905C0,88.535.54,88,1.909,88q8.779-.008,17.557,0c1.37,0,1.907.537,1.908,1.906q.008,8.78,0,17.559c0,1.369-.539,1.906-1.907,1.909-2.958.007-5.916,0-8.874,0m7.661-3.1V91.1H15.27c0,1.881,0,3.718,0,5.554,0,1.544-.5,2.031-2.069,2.034q-2.481.005-4.961,0c-1.674,0-2.128-.464-2.13-2.165q0-2.7,0-5.4H3.1v15.154ZM9.232,95.586h2.931v-4.5H9.232Z" transform="translate(0 -34.593)" fill="#cba124"/>
        <path id="Trazado_247753" data-name="Trazado 247753" d="M142.137,98.685c0,2.926,0,5.853,0,8.78,0,1.368-.54,1.906-1.909,1.907q-8.778.008-17.557,0c-1.368,0-1.9-.539-1.9-1.909q-.008-8.78,0-17.559c0-1.37.536-1.9,1.907-1.906q8.779-.008,17.557,0c1.368,0,1.9.538,1.907,1.907.007,2.926,0,5.853,0,8.78M126.87,91.123h-3V106.26h15.147V91.1H136.03c0,1.885,0,3.722,0,5.558,0,1.508-.5,2.021-1.982,2.026q-2.576.009-5.152,0c-1.538,0-2.023-.5-2.025-2.077,0-1.809,0-3.618,0-5.484m3.121,4.43h2.934V91.091h-2.934Z" transform="translate(-47.474 -34.593)" fill="#cba124"/>
        <path id="Trazado_247754" data-name="Trazado 247754" d="M70.978,142.085c-2.894,0-5.788,0-8.683,0-1.372,0-1.91-.537-1.911-1.9q-.008-8.78,0-17.56c0-1.373.534-1.91,1.9-1.911q8.778-.008,17.556,0c1.372,0,1.911.535,1.913,1.9q.008,8.78,0,17.559c0,1.372-.538,1.91-1.9,1.913-2.958.008-5.916,0-8.874,0M75.726,123.8a1.645,1.645,0,0,0-.065.273c-.005,1.813,0,3.625-.013,5.438-.008,1.318-.547,1.873-1.837,1.882q-2.718.018-5.438,0c-1.353-.007-1.876-.547-1.883-1.932-.007-1.495,0-2.989,0-4.484v-1.161H63.5v15.137H78.65V123.8Zm-6.163,4.462h2.97v-4.428h-2.97Z" transform="translate(-23.737 -47.452)" fill="#cba124"/>
        <path id="Trazado_247755" data-name="Trazado 247755" d="M18.679,128.725c.475-.672.873-1.242,1.278-1.808.146-.2.307-.4.506-.654,5.8,3.928,12.306,5.923,19.118,7.163a3.5,3.5,0,0,1,0,.518c-.137.808-.285,1.614-.441,2.493-7.3-1.3-14.217-3.425-20.457-7.712" transform="translate(-7.343 -49.637)" fill="#cba124"/>
        <path id="Trazado_247756" data-name="Trazado 247756" d="M103.262,136.449c-.172-1.027-.333-1.981-.5-3,6.87-1.26,13.385-3.246,19.183-7.176.157.194.282.335.391.487.442.617.879,1.238,1.394,1.964-6.2,4.289-13.127,6.415-20.464,7.727" transform="translate(-40.397 -49.64)" fill="#cba124"/>
        <path id="Trazado_247757" data-name="Trazado 247757" d="M22.331,76.007l-1.6-2.253c5.339-3.71,11.276-5.784,17.636-7.167.208.985.405,1.925.589,2.793-2.917.929-5.8,1.679-8.552,2.773-2.722,1.084-5.3,2.516-8.071,3.854" transform="translate(-8.149 -26.177)" fill="#cba124"/>
        <path id="Trazado_247758" data-name="Trazado 247758" d="M125.67,73.782l-1.762,2.48a46.122,46.122,0,0,0-16.22-6.618c.2-.975.4-1.917.62-2.966a47.815,47.815,0,0,1,17.362,7.1" transform="translate(-42.335 -26.213)" fill="#cba124"/>
        <path id="Trazado_247759" data-name="Trazado 247759" d="M48.2,10.918l3.16,3.133L49.429,15.88l-3.065-3.1L48.2,10.918" transform="translate(-18.227 -4.292)" fill="#cba124"/>
        <path id="Trazado_247760" data-name="Trazado 247760" d="M103.387,16.109l-1.844-1.929,3.113-3.082,1.869,1.822-3.138,3.189" transform="translate(-39.919 -4.363)" fill="#cba124"/>
        <rect id="Rectángulo_89953" data-name="Rectángulo 89953" width="2.935" height="4.478" transform="translate(45.856)" fill="#cba124"/>
        <rect id="Rectángulo_89954" data-name="Rectángulo 89954" width="4.466" height="2.959" transform="translate(21.426 24.429)" fill="#cba124"/>
        <rect id="Rectángulo_89955" data-name="Rectángulo 89955" width="4.488" height="2.946" transform="translate(68.746 24.452)" fill="#cba124"/>
        <path id="Trazado_247761" data-name="Trazado 247761" d="M57.869,34.737A12.213,12.213,0,1,1,70,47.007a12.25,12.25,0,0,1-12.136-12.27m3.056.03a9.157,9.157,0,1,0,9.181-9.135,9.188,9.188,0,0,0-9.181,9.135" transform="translate(-22.75 -8.875)" fill="#cba124"/>
        <path id="Trazado_247762" data-name="Trazado 247762" d="M80.16,37.922a3.954,3.954,0,0,1-.8,1.108A2.883,2.883,0,0,0,78.278,42.6a1.6,1.6,0,0,1-.554,1.957,1.518,1.518,0,0,1-1.946-.116,2.5,2.5,0,0,0-3.469,0,1.534,1.534,0,0,1-1.947.134,1.616,1.616,0,0,1-.58-1.949c.008-.03.007-.064.017-.093a2.785,2.785,0,0,0-1.081-3.472,1.565,1.565,0,0,1-.686-1.913,1.7,1.7,0,0,1,1.752-1.071A2.318,2.318,0,0,0,72.335,34.2a2.907,2.907,0,0,1,.37-.771,1.44,1.44,0,0,1,2.608-.007c.672,1.731,1.623,2.776,3.6,2.777.757,0,1.173.677,1.244,1.722m-5.5,2.358.572-1.5-1.2-.8-1.179.8.53,1.5Z" transform="translate(-26.702 -12.815)" fill="#cba124"/>
      </g>
    </g>
  </g>
</svg>
