<svg id="Grupo_148677" data-name="Grupo 148677" xmlns="http://www.w3.org/2000/svg" xmlns:xlink="http://www.w3.org/1999/xlink" width="64.588" height="54.898" viewBox="0 0 64.588 54.898">
  <defs>
    <clipPath id="clip-path">
      <rect id="Rectángulo_89975" data-name="Rectángulo 89975" width="64.588" height="54.898" fill="none"/>
    </clipPath>
  </defs>
  <g id="Grupo_148676" data-name="Grupo 148676" clip-path="url(#clip-path)">
    <path id="Trazado_247763" data-name="Trazado 247763" d="M13.758,34.782c-.831.085-1.059-.037-1.367-.772a15.755,15.755,0,0,1-1.1-8.445c.114-.8.131-.8-.666-.928A12.4,12.4,0,0,1,.143,14.331c-.025-.13.05-.307-.143-.377V10.926A11.889,11.889,0,0,0,.411,9.184,12.371,12.371,0,0,1,11.918.049C13.325,0,14.734.032,16.142.018A1.033,1.033,0,0,1,17.31.84c.232.492-.014.807-.409,1.041a2.313,2.313,0,0,1-1.217.26H11.967A10.279,10.279,0,0,0,6.84,21.087a9.871,9.871,0,0,0,4.04,1.5c.825.135.912.062,1.227-.683a16.305,16.305,0,0,1,2.843-4.649,17.083,17.083,0,0,1,4.636-3.643,15.75,15.75,0,0,1,8.773-1.765A16.178,16.178,0,0,1,39.117,17.3a16.916,16.916,0,0,1,2.864,4.8.88.88,0,0,0,.944.647c3.048-.011,6.1.057,9.143-.021a10.133,10.133,0,0,0,9.484-5.989,9.846,9.846,0,0,0-.4-9.495,10.491,10.491,0,0,0-7.051-4.968,7.312,7.312,0,0,0-1.5-.113H22.166a3.314,3.314,0,0,1-1.483-.21.821.821,0,0,1-.51-1.108c.174-.733.719-.826,1.357-.826Q30.616.026,39.7.022c4.459,0,8.921-.083,13.375.065a12.346,12.346,0,0,1,1.71,24.4,13.156,13.156,0,0,1-2.882.273c-2.924,0-5.847.012-8.771-.011-.465,0-.551.115-.483.555a15.569,15.569,0,0,1-2.257,10.976c-.157.251-.189.411.047.638.729.7,1.441,1.414,2.142,2.139a.4.4,0,0,0,.578.079,1.719,1.719,0,0,1,2.144.314c2.537,2.519,5.1,5.015,7.568,7.6a4.7,4.7,0,0,1-6.705,6.566c-2.54-2.456-5.017-4.976-7.507-7.482a1.724,1.724,0,0,1-.314-2.191.372.372,0,0,0-.08-.527q-1.109-1.077-2.185-2.186c-.206-.213-.346-.192-.581-.043a15.444,15.444,0,0,1-9.91,2.41A15.646,15.646,0,0,1,15.11,38.312a.98.98,0,0,1,.028-1.418.849.849,0,0,1,1.362-.028c.572.494,1.081,1.056,1.669,1.537a13.563,13.563,0,0,0,8.073,3.158,13.355,13.355,0,0,0,10.334-3.825,13.509,13.509,0,0,0,4.169-8.68,14.925,14.925,0,0,0-.509-5.169,13.617,13.617,0,0,0-2.314-4.528,12.83,12.83,0,0,0-1.979-2.07,13.774,13.774,0,0,0-6.553-3.069,13.589,13.589,0,0,0-11.451,3.2A14.778,14.778,0,0,0,14.585,21.8c-.4.841-.356.927.561.928l20.627,0a2.681,2.681,0,0,1,1,.087,1.149,1.149,0,0,1,.731.953A1.045,1.045,0,0,1,37.5,24a1.258,1.258,0,0,1-1.072.937A5.078,5.078,0,0,1,35.3,25H14.568c-1.1,0-1.1.033-1.24,1.1a13.617,13.617,0,0,0,.918,6.911,2.058,2.058,0,0,1,.156,1.229c-.115.3-.268.553-.644.54" transform="translate(0 0)"/>
    <path id="Trazado_247764" data-name="Trazado 247764" d="M11.292,18.1A10.464,10.464,0,0,1,19.725,6.232a40.882,40.882,0,0,1,5.666-.176c.816-.023,1.081-.263,1.174-1.073a7.282,7.282,0,0,0,2.862,0c.1.864.361,1.071,1.364,1.071q15.1,0,30.2,0a11.414,11.414,0,0,1,3.485.434A10.156,10.156,0,0,1,70.593,11.4a2.008,2.008,0,0,1,.05,1.283,11.827,11.827,0,0,1-1.077,2.865c-.139.265-.24.592-.593.685-.323-.2-.28-.536-.332-.84A7.556,7.556,0,0,0,63.4,9.107a7.453,7.453,0,0,0-8.123,1.92,7.723,7.723,0,0,0-1.162,9.522c.176.3.546.575.282,1.01a1.412,1.412,0,0,1-.793.145c-1.486.005-2.972,0-4.459,0a1.845,1.845,0,0,1-.91-.195,17.279,17.279,0,0,0-5.25-3.926,15.839,15.839,0,0,0-18.214,3.438c-.157.166-.324.322-.486.483a1.48,1.48,0,0,1-.85.176c-1.575,0-3.153.062-4.724-.015a11.142,11.142,0,0,1-6.815-2.77,2.432,2.432,0,0,1-.6-.8" transform="translate(-9.256 -4.143)" fill="#cae1fe"/>
    <path id="Trazado_247765" data-name="Trazado 247765" d="M81.587,151.058l.475-.436a2.576,2.576,0,0,1,.867.5,14.778,14.778,0,0,0,22.922-10.19c.1-.62-.415-.51-.654-.729,0-.042,0-.084,0-.126.265-.239.59-.175.9-.183.7.051,1.42-.192,2.087.187a13.424,13.424,0,0,1-2.652,12.936,13.9,13.9,0,0,1-20.994.53c-.636-.677-.827-.722-1.576-.374l-1.38-2.111" transform="translate(-67.829 -116.275)" fill="#bdd7fa"/>
    <path id="Trazado_247766" data-name="Trazado 247766" d="M101.571,141.869c.927,0,.9,0,.756.995a14.365,14.365,0,0,1-2.966,6.9,14.932,14.932,0,0,1-18.6,4.089,8.1,8.1,0,0,1-2.328-1.564,1.7,1.7,0,0,0-.125-1.16,13.907,13.907,0,0,1-.874-7.832c.08-.476.251-.6.722-.6,7.33.015,14.661.007,21.991.017.668,0,1.215-.115,1.421-.847" transform="translate(-64.203 -117.946)" fill="#cae1fe"/>
    <path id="Trazado_247767" data-name="Trazado 247767" d="M107.38,108.368l-.874.008c-.248-.8-.424-.924-1.331-.925q-10.691,0-21.382,0c-.749,0-.751,0-.441-.693a13.1,13.1,0,0,1,3.7-4.936,3.558,3.558,0,0,1,.936-.086q8.056,0,16.111,0a5.967,5.967,0,0,1,1.125.094,8.907,8.907,0,0,1,1.9,2,10.237,10.237,0,0,1,.532,3.666,1.2,1.2,0,0,1-.274.873" transform="translate(-69.135 -84.578)" fill="#9cc5fa"/>
    <path id="Trazado_247768" data-name="Trazado 247768" d="M251.841,47.856a8.814,8.814,0,0,0,1.652-4.8,10.45,10.45,0,0,1-9.076,15.6c-3.234.048-6.468.01-9.7.01-.249,0-.481.039-.594-.3a16.806,16.806,0,0,0-2.989-5.2c1.85,0,3.7,0,5.548-.012.221,0,.467.083.656-.119.436.034.592.432.846.683a7.759,7.759,0,0,0,8.662,1.7,7.634,7.634,0,0,0,4.732-6.347,2.657,2.657,0,0,1,.265-1.211" transform="translate(-192.155 -35.794)" fill="#bdd7fa"/>
    <path id="Trazado_247769" data-name="Trazado 247769" d="M12.077,82.759a11.19,11.19,0,0,0,4.581,2.856,10.313,10.313,0,0,0,3.378.558c1.676-.03,3.353-.006,5.03,0a16.867,16.867,0,0,0-2.992,5.189c-.125.368-.364.268-.6.254a10.464,10.464,0,0,1-9.034-7.2,6.288,6.288,0,0,1-.364-1.647" transform="translate(-10.04 -68.803)" fill="#bdd7fa"/>
    <path id="Trazado_247770" data-name="Trazado 247770" d="M124.44,85.477c-.194.189-.438.109-.659.109q-8.429.007-16.857,0c-.221,0-.466.081-.656-.117a12.993,12.993,0,0,1,7.079-3.256,13.728,13.728,0,0,1,10.873,3.043,2.732,2.732,0,0,1,.22.22" transform="translate(-88.348 -68.227)" fill="#bdd7fa"/>
    <path id="Trazado_247771" data-name="Trazado 247771" d="M247.667,261.033a2.634,2.634,0,0,1-2.481-.757c-2.355-2.341-4.695-4.7-7.053-7.034-.258-.255-.252-.389.006-.631.795-.746,1.564-1.52,2.343-2.283.309-.065.454.18.624.349,1.938,1.929,3.878,3.855,5.8,5.8a3.91,3.91,0,0,1,1.156,3.859,1.13,1.13,0,0,1-.394.7" transform="translate(-197.818 -208.106)" fill="#7fb3fa"/>
    <path id="Trazado_247772" data-name="Trazado 247772" d="M260.186,254.852a3.917,3.917,0,0,0-1.065-4.653c-1.886-1.848-3.738-3.729-5.607-5.594-.162-.162-.342-.306-.513-.458a.479.479,0,0,1,.063-.106c.417-.413.81-1.114,1.263-1.156.469-.044.857.7,1.27,1.115q3.061,3.041,6.1,6.1a2.667,2.667,0,0,1,.686,2.843,2.6,2.6,0,0,1-2.2,1.907" transform="translate(-210.337 -201.926)" fill="#61a1f8"/>
    <path id="Trazado_247773" data-name="Trazado 247773" d="M225.528,118.7a17.556,17.556,0,0,0-.258-4.539,12.063,12.063,0,0,1,2.372,4.55l-2.115-.012" transform="translate(-187.283 -94.912)" fill="#7fb3f9"/>
    <path id="Trazado_247774" data-name="Trazado 247774" d="M225.441,234c-.78.892-.78.892-1.589.084-.43-.43-.834-.891-1.3-1.281-.408-.343-.349-.581.037-.857a5.42,5.42,0,0,0,.424-.372A6.959,6.959,0,0,1,225.441,234" transform="translate(-184.792 -192.528)" fill="#355d7c"/>
    <path id="Trazado_247775" data-name="Trazado 247775" d="M229.092,230.592a24.72,24.72,0,0,0-2.426-2.426c.791-.909.791-.908,1.615-.084.428.428.832.885,1.292,1.275.376.319.35.545-.019.817a5.9,5.9,0,0,0-.462.418" transform="translate(-188.443 -189.115)" fill="#2b4d65"/>
    <path id="Trazado_247776" data-name="Trazado 247776" d="M274.417,33.41a8.225,8.225,0,0,1-2.508,6.109,8.006,8.006,0,0,1-11.789-.707c-.066-.079-.139-.151-.209-.226a8.062,8.062,0,0,1,7.476-12.823,8.04,8.04,0,0,1,6.936,7.09c.02.187.062.371.094.556" transform="translate(-214.732 -21.347)"/>
    <path id="Trazado_247777" data-name="Trazado 247777" d="M34.976,67.17a1.071,1.071,0,0,1,1.057,1.036,1.06,1.06,0,0,1-1.07,1.081,1.059,1.059,0,0,1,.013-2.117" transform="translate(-28.205 -55.843)" fill="#010202"/>
    <path id="Trazado_247778" data-name="Trazado 247778" d="M59.543,68.25a1.04,1.04,0,1,1-1.007-1.077,1.052,1.052,0,0,1,1.007,1.077" transform="translate(-47.774 -55.845)" fill="#020202"/>
    <path id="Trazado_247779" data-name="Trazado 247779" d="M82.929,68.222a1.09,1.09,0,0,1-1.039,1.065,1.059,1.059,0,1,1-.015-2.118,1.1,1.1,0,0,1,1.054,1.053" transform="translate(-67.19 -55.842)" fill="#020202"/>
    <path id="Trazado_247780" data-name="Trazado 247780" d="M272.258,48.151a6.067,6.067,0,0,1-2.5-6.158,6.128,6.128,0,0,1,4.693-4.805,6.144,6.144,0,0,1,7.04,8.26,3.722,3.722,0,0,1-.23.438,8.9,8.9,0,0,1-4.157,2.1,10.333,10.333,0,0,1-4.845.165" transform="translate(-224.181 -30.786)" fill="#a7e446"/>
    <path id="Trazado_247781" data-name="Trazado 247781" d="M285.1,91.813a24.1,24.1,0,0,0,4.258-.211,12.177,12.177,0,0,0,4.2-1.754c.172-.115.364-.2.546-.3a6.084,6.084,0,0,1-8.5,2.624c-.178-.1-.337-.238-.5-.358" transform="translate(-237.026 -74.447)" fill="#85b638"/>
    <path id="Trazado_247782" data-name="Trazado 247782" d="M291.715,59.8a.915.915,0,0,1-.333.676c-1.011,1.011-2.015,2.029-3.036,3.031a.94.94,0,0,1-1.49.018c-.517-.493-1.022-1-1.517-1.516a.948.948,0,1,1,1.317-1.352c.327.287.606.883.95.824.376-.064.676-.582,1-.907.509-.5,1-1.018,1.524-1.508a.863.863,0,0,1,1.047-.167.911.911,0,0,1,.532.9" transform="translate(-236.928 -48.874)"/>
  </g>
</svg>
