<svg id="Grupo_148679" data-name="Grupo 148679" xmlns="http://www.w3.org/2000/svg" xmlns:xlink="http://www.w3.org/1999/xlink" width="61.255" height="54.425" viewBox="0 0 61.255 54.425">
  <defs>
    <clipPath id="clip-path">
      <rect id="Rectángulo_89976" data-name="Rectángulo 89976" width="61.255" height="54.424" fill="none"/>
    </clipPath>
  </defs>
  <g id="Grupo_148678" data-name="Grupo 148678" clip-path="url(#clip-path)">
    <path id="Trazado_247783" data-name="Trazado 247783" d="M317.7,111.945c-.237.384-.315.841-.591,1.211a3.236,3.236,0,0,1-2.648,1.39c-2.012.027-4.025.037-6.037,0a3.251,3.251,0,0,1-3.276-3.379q-.008-18.108,0-36.217a3.246,3.246,0,0,1,3.39-3.374c1.893-.01,3.786-.006,5.679,0a3.208,3.208,0,0,1,3.4,2.571c.008.028.058.043.088.065V99.287c-.138.433-.373.751-.882.751a1.1,1.1,0,0,1-1.079-1.059,6.953,6.953,0,0,1-.023-.893q0-11.12,0-22.24c0-.239,0-.477,0-.715-.037-1.08-.507-1.545-1.6-1.563-1.354-.021-2.708.018-4.062-.018-.518.027-1.037-.007-1.554.026a1.351,1.351,0,0,0-1.356,1.32,8.281,8.281,0,0,0-.016.835q0,17.276,0,34.553c0,1.974.319,2.283,2.274,2.311,1.495.021,2.989.009,4.484.017a1.942,1.942,0,0,0,.766-.086,1.371,1.371,0,0,0,1.074-1.567c.011-2.655,0-5.31.007-7.964,0-.892.17-1.141.885-1.418a.914.914,0,0,1,1.088.7Z" transform="translate(-256.449 -60.148)"/>
    <path id="Trazado_247784" data-name="Trazado 247784" d="M0,184.559c.183-.126.155-.349.235-.523a3.038,3.038,0,0,1,2.738-2c2.189-.067,4.384-.074,6.573,0a3.174,3.174,0,0,1,3.007,3.368q.01,8.293,0,16.586c0,.676.008,1.353,0,2.029a3.246,3.246,0,0,1-3.217,3.315c-2.031.048-4.065.037-6.1,0a3.261,3.261,0,0,1-3.1-2.292C.1,204.94.134,204.8,0,204.739Z" transform="translate(0 -152.943)"/>
    <path id="Trazado_247785" data-name="Trazado 247785" d="M100.887,8.089A33.02,33.02,0,0,0,90.2,8.928a36.865,36.865,0,0,0-10.7,4.555c-.308.19-.271.308-.038.512a8.352,8.352,0,0,1,.677.674,1.77,1.77,0,0,1-1.009,2.976q-4.892.783-9.786,1.556c-.55.087-1.1.2-1.653.245a2.923,2.923,0,0,1-3.273-3.409c.567-3.751,1.184-7.5,1.787-11.241A1.7,1.7,0,0,1,67.4,3.359a1.731,1.731,0,0,1,1.867.453c.45.451.917.887,1.347,1.356a.524.524,0,0,0,.755.122A46.662,46.662,0,0,1,82.286,1.226a41.629,41.629,0,0,1,19.293-.179c1.969.457,2.71,1.589,2.3,3.576-.1.466-.2.932-.315,1.394a2.547,2.547,0,0,1-2.673,2.072" transform="translate(-54.109 0)"/>
    <path id="Trazado_247786" data-name="Trazado 247786" d="M215.955,126.9c0,4.975-.047,9.951.022,14.925a3.437,3.437,0,0,1-3.649,3.64c-1.773-.053-3.549-.007-5.323-.012a3.317,3.317,0,0,1-3.6-3.614q0-14.955,0-29.91a3.306,3.306,0,0,1,3.613-3.592q2.662,0,5.323,0a3.284,3.284,0,0,1,3.609,3.578q0,7.492,0,14.985" transform="translate(-170.945 -91.044)"/>
    <path id="Trazado_247787" data-name="Trazado 247787" d="M102.6,154.563a.946.946,0,0,1-.841-1.1c.014-1.691-.01-3.381.01-5.072a3.224,3.224,0,0,1,3.289-3.29q2.959-.041,5.918,0a3.263,3.263,0,0,1,3.332,3.446c.016,1.989,0,3.978,0,5.967q0,9.04,0,18.079c0,2.448-1.3,3.742-3.766,3.743-1.754,0-3.507.006-5.261,0a3.27,3.27,0,0,1-3.519-3.491c-.006-5.112,0-10.223-.007-15.335,0-.616.173-1.053.845-1.151a.881.881,0,0,1,1.1.711,3.617,3.617,0,0,1,.071,1.007q0,7.182,0,14.364c0,1.515.419,1.915,1.961,1.934,1.612.02,3.224.014,4.836.017a1.732,1.732,0,0,0,.761-.105,1.376,1.376,0,0,0,.967-1.178,4.868,4.868,0,0,0,.072-.951q0-11.462,0-22.925c0-.868-.082-1.692-1.032-2.089a1.372,1.372,0,0,0-.638-.122c-1.752,0-3.5-.012-5.256.021-1.21.023-1.674.509-1.678,1.731,0,1.431,0,2.862,0,4.292a2.564,2.564,0,0,1-.085.827.891.891,0,0,1-1.081.67" transform="translate(-85.52 -121.928)"/>
    <path id="Trazado_247788" data-name="Trazado 247788" d="M107.029,163.965c.738-.142.959-.4.961-1.174.005-1.627,0-3.254,0-4.881a1.467,1.467,0,0,1,1.571-1.621c1.928-.024,3.856-.016,5.785-.019a.637.637,0,0,1,.454.1.971.971,0,0,1-.785.2c-1.016.01-2.032,0-3.048.006-.762.007-.933.154-1.081.9a4.236,4.236,0,0,0-.053.832q0,11.813,0,23.625c0,.1,0,.2,0,.3.043,1.2.267,1.424,1.442,1.425.917,0,1.833-.006,2.75,0,.273,0,.566-.037.781.2a1.056,1.056,0,0,1-.693.1q-2.688,0-5.375-.013a1.53,1.53,0,0,1-1.753-1.751q0-7.6,0-15.2c0-.84-.211-1.1-.958-1.234q0-.9,0-1.8" transform="translate(-89.948 -131.33)" fill="#cba124"/>
    <path id="Trazado_247789" data-name="Trazado 247789" d="M339.841,109.389c-.365.316-.157.739-.2,1.113a5.658,5.658,0,0,0-.005.651c-.668.178-.865.627-.859,1.291.024,2.713.013,5.427.008,8.14a1.424,1.424,0,0,1-1.194,1.59c-1.453.055-2.907,0-4.36.028a.7.7,0,0,1-.708-.521,3.575,3.575,0,0,1-.151-1.354q0-16.073,0-32.146c0-1.312-.007-2.624,0-3.936a1.523,1.523,0,0,1,.564-1.374c1.472-.007,2.945-.032,4.416-.014a1.427,1.427,0,0,1,1.425,1.4c.014.2.006.4.006.6q0,11.681,0,23.363c0,.851.246,1.121,1.053,1.178" transform="translate(-279.327 -69.628)" fill="#feca2e"/>
    <path id="Trazado_247790" data-name="Trazado 247790" d="M319.517,82.851a3.805,3.805,0,0,0-.389,2.071q.012,17.659.006,35.319c0,.239,0,.477,0,.716.035.952.267,1.172,1.209,1.176,1.274,0,2.548.015,3.822.022a1.089,1.089,0,0,1-.641.079q-2.661,0-5.322-.008c-1.26,0-1.808-.56-1.808-1.831q0-17.875,0-35.75c0-1.283.53-1.816,1.8-1.817.438,0,.876.015,1.313.024" transform="translate(-265.904 -69.609)" fill="#cba124"/>
    <path id="Trazado_247791" data-name="Trazado 247791" d="M27.822,193.261c1.491-.086,2.984-.062,4.474-.016a1.41,1.41,0,0,1,1.376,1.562c.012,1.57,0,3.139,0,4.709q0,6.855,0,13.71a1.464,1.464,0,0,1-1.168,1.685c-1.471.067-2.943.009-4.415.031a.669.669,0,0,1-.649-.433,1.8,1.8,0,0,1-.169-.809q-.013-9.593,0-19.186a1.327,1.327,0,0,1,.544-1.253" transform="translate(-22.915 -162.37)" fill="#feca2e"/>
    <path id="Trazado_247792" data-name="Trazado 247792" d="M14.352,193.389a3.158,3.158,0,0,0-.379,1.6q.017,9.238.007,18.476a6.493,6.493,0,0,0,.013.655c.068.669.325.9.985.9l4.058.022a1.423,1.423,0,0,1-.338.085c-1.974,0-3.947.012-5.92-.017a1.469,1.469,0,0,1-1.537-1.611q-.007-9.282,0-18.565a1.444,1.444,0,0,1,1.558-1.572c.516-.012,1.034.019,1.551.03" transform="translate(-9.445 -162.498)" fill="#cba124"/>
    <path id="Trazado_247793" data-name="Trazado 247793" d="M88.414,25.3l-4.389.7L77.6,27.024c-.157.025-.315.049-.474.064-1,.09-1.578-.481-1.425-1.463.439-2.827.9-5.651,1.353-8.475.135-.843.273-1.685.433-2.674.681.689,1.283,1.3,1.891,1.912.65.651.853.677,1.668.245a44.6,44.6,0,0,1,21.3-5.41,36.943,36.943,0,0,1,8.577,1.063c.67.162.881.5.738,1.186-.1.466-.211.93-.317,1.394-.164.714-.392.914-1.12.85a34.011,34.011,0,0,0-6.265.1,35.584,35.584,0,0,0-11.768,3.327A40.3,40.3,0,0,0,87,22.081c-.809.537-.869,1.051-.176,1.734.475.468.974.913,1.59,1.486" transform="translate(-63.598 -9.43)" fill="#a7e446"/>
    <path id="Trazado_247794" data-name="Trazado 247794" d="M231.088,119.6c1.433-.006,2.867-.033,4.3-.01a1.434,1.434,0,0,1,1.465,1.483c.012.278,0,.556,0,.835q0,14.7,0,29.4c0,1.045-.278,1.468-1.108,1.716-1.51.109-3.022.018-4.533.05a.579.579,0,0,1-.543-.391,3,3,0,0,1-.255-1.452q0-6.292,0-12.585,0-8.5,0-17a4.374,4.374,0,0,1,.053-1.01c.1-.406.18-.826.617-1.032" transform="translate(-193.642 -100.494)" fill="#feca2e"/>
    <path id="Trazado_247795" data-name="Trazado 247795" d="M217.828,119.594a3.306,3.306,0,0,0-.488,1.868q.019,14.924.009,29.848a4.933,4.933,0,0,0,.013.656c.112.836.352,1.04,1.18,1.041l3.947.006a.984.984,0,0,1-.635.1q-2.721,0-5.441-.006a1.546,1.546,0,0,1-1.772-1.752q-.007-15.04,0-30.08a1.516,1.516,0,0,1,1.695-1.7c.5,0,1,.012,1.493.019" transform="translate(-180.382 -100.491)" fill="#cba124"/>
    <path id="Trazado_247796" data-name="Trazado 247796" d="M134.855,184.382q-1.942-.008-3.885-.015c-.934,0-.953-.023-1.218-.935a2.469,2.469,0,0,1-.061-.708q0-12.084,0-24.168a3.825,3.825,0,0,1,.008-.477c.125-.991.333-1.17,1.323-1.173q1.913,0,3.825-.015a1.348,1.348,0,0,1,1.109,1.239,4.035,4.035,0,0,1,.034.594q0,11.909,0,23.819c0,1.129-.277,1.572-1.135,1.839" transform="translate(-108.989 -131.853)" fill="#feca2e"/>
  </g>
</svg>
