<svg id="Grupo_148681" data-name="Grupo 148681" xmlns="http://www.w3.org/2000/svg" xmlns:xlink="http://www.w3.org/1999/xlink" width="64.588" height="64.568" viewBox="0 0 64.588 64.568">
  <defs>
    <clipPath id="clip-path">
      <rect id="Rectángulo_89977" data-name="Rectángulo 89977" width="64.588" height="64.568" fill="none"/>
    </clipPath>
  </defs>
  <g id="Grupo_148680" data-name="Grupo 148680" clip-path="url(#clip-path)">
    <path id="Trazado_247797" data-name="Trazado 247797" d="M62.654,16.166c.908-.808,1.809-1.624,2.727-2.42.26-.226.145-.445.07-.679-.349-1.1-.706-2.191-1.049-3.289-.312-1-.027-1.5,1-1.74,1.1-.256,2.2-.508,3.315-.722a.772.772,0,0,0,.7-.708c.218-1.11.462-2.214.719-3.316.237-1.02.744-1.3,1.746-.989,1.1.344,2.195.694,3.285,1.061a.644.644,0,0,0,.809-.213C76.625,2.386,77.329,1.664,78,.91A5.6,5.6,0,0,1,79.007,0h.5c.867.154,1.3.879,1.827,1.448.456.492.934.968,1.37,1.478a.706.706,0,0,0,.838.22c1.05-.3,2.079-.673,3.129-.98a1.376,1.376,0,0,1,2,1.148c.247,1.043.456,2.095.677,3.143a.8.8,0,0,0,.688.7c1.008.211,2.01.449,3.017.664,1.3.28,1.665.857,1.274,2.126-.3.964-.594,1.929-.92,2.882a.89.89,0,0,0,.283,1.1c.772.711,1.588,1.376,2.317,2.134a2.174,2.174,0,0,1,.53.835v.631a4.311,4.311,0,0,1-1.493,1.735c-.518.458-.982.976-1.531,1.4-.3.228-.251.5-.145.789.356.987.633,2,.951,3,.409,1.286.049,1.875-1.285,2.158q-.4.085-.8.178c-.675.157-1.348.333-2.032.442a.919.919,0,0,0-.866.831c-.192.989-.418,1.973-.633,2.958a1.763,1.763,0,0,1-.7,1.221,1.408,1.408,0,0,1-1.2.072c-.784-.282-1.6-.464-2.382-.747a1.52,1.52,0,0,0-2.25.465,14.355,14.355,0,0,1-1.687,1.865c-.949.906-1.478.892-2.378-.038-.73-.754-1.406-1.557-2.13-2.317a.809.809,0,0,0-1-.238c-1,.373-2.038.657-3.062.968a1.325,1.325,0,0,1-1.928-1.085c-.234-.894-.421-1.8-.6-2.705-.216-1.086-.23-1.1-1.287-1.318-.884-.186-1.765-.384-2.645-.585-1.182-.27-1.505-.849-1.185-2.022.277-1.014.658-1.993.952-3a.815.815,0,0,0-.271-1.006c-.761-.808-1.614-1.518-2.44-2.254a1.248,1.248,0,0,1,.145-2.124" transform="translate(-31.952)"/>
    <path id="Trazado_247798" data-name="Trazado 247798" d="M132.936,90.521l-.107.037a.971.971,0,0,1-.222-.821q-.011-5.951,0-11.9a1.026,1.026,0,0,1,.211-.827l.118.017Z" transform="translate(-68.348 -39.693)" fill="#171717"/>
    <path id="Trazado_247799" data-name="Trazado 247799" d="M132.825,117.049a.077.077,0,0,1,.107.034v4.036l-.1.039a.663.663,0,0,1-.216-.56q-.037-1.493,0-2.986a.677.677,0,0,1,.213-.562" transform="translate(-68.344 -60.327)" fill="#1e1e1e"/>
    <path id="Trazado_247800" data-name="Trazado 247800" d="M64.481,95.418q0,2.054,0,4.109a4.231,4.231,0,0,1-4.152,3.73c-.125.008-.251.006-.377.006H4.654a4.357,4.357,0,0,1-4.207-2.454,3.961,3.961,0,0,1-.43-1.758C0,97.978-.006,96.907.011,95.835a1.075,1.075,0,0,1,1.181-1.173,8.031,8.031,0,0,1,1.322.006c.638.081.744-.181.742-.767-.024-5.17-.014-10.34-.014-15.51,0-.819.046-1.643-.016-2.458-.043-.585.165-.746.695-.661a1.829,1.829,0,0,0,.377-.016c.929-.4,1.329-.149,1.331.891.01,5.021,0,10.042,0,15.063,0,.819-.008,1.639,0,2.458.01.755.085.822.84.824.792,0,.884-.073.89-.848.012-1.765,0-3.53,0-5.294q0-5.767,0-11.534c0-.21,0-.42,0-.63.014-1,.137-1.115,1.14-1.1.082,0,.164,0,.246,0,1.034-.021,1.161.094,1.162,1.138q.007,8.539,0,17.077c0,1.189,0,1.19,1.218,1.19q7.185,0,14.369,0a3.365,3.365,0,0,1,1.871.445,4.769,4.769,0,0,1,1.052,1.076,1.445,1.445,0,0,0,1.292.638c1.7,0,3.4-.009,5.1,0a1.494,1.494,0,0,0,1.338-.679,3.342,3.342,0,0,1,3.015-1.479c4.768.028,9.534.011,14.3.011.21,0,.42-.006.629,0,.393.007.559-.174.574-.571a2.6,2.6,0,0,1,.165-1.415A4.127,4.127,0,0,1,56.7,92.4c.289.014.433.222.477.5a4.211,4.211,0,0,1,.033.563c.017,1.051.055,1.069,1.116,1.041.45-.012.66-.178.638-.633-.011-.208,0-.418,0-.628.034-.742.314-1.006,1.034-.852a9.932,9.932,0,0,0,1.242.107,4.957,4.957,0,0,1,.076,1.676c0,.4.126.507.506.489.565-.026,1.133-.014,1.7.009a.914.914,0,0,1,.951.744" transform="translate(0 -38.695)"/>
    <path id="Trazado_247801" data-name="Trazado 247801" d="M4.3,59.477q-1.447-.009-2.894-.02C.4,59.449.014,59.078.012,58.1q-.007-4.028,0-8.057c0-.865.263-1.177,1.083-1.34a1.2,1.2,0,0,1,.25-.027c5.289-.18,10.581-.107,15.872-.116a1.262,1.262,0,0,1,1.253,1.306c.055.69.025,1.383.015,2.075.037,2.035.025,4.07.009,6.105a1.42,1.42,0,0,1-1.594,1.6c-2.77.016-5.54.028-8.309-.005-1.193.034-2.386.011-3.578.012a1.052,1.052,0,0,1-.715-.18" transform="translate(-0.005 -25.026)"/>
    <path id="Trazado_247802" data-name="Trazado 247802" d="M18.423,40.84q-4.313.009-8.626.016c-2.517,0-5.034-.008-7.549-.012a16.543,16.543,0,0,1,2.67-.048c.447,0,.581-.14.551-.57-.034-.5-.008-1-.008-1.5.838-.139.945-.694.966-1.443a3.308,3.308,0,0,1,2.757-3.019A11.305,11.305,0,0,1,11,34.122c5.566.005,11.132-.007,16.7.016.7,0,1.286-.017,1.478-.832l2.681.028c-.788.955-.751,1.345.183,2.2.737.676,1.463,1.365,2.194,2.048a.584.584,0,0,1-.5.2,7.815,7.815,0,0,1-2.408-.121c-.164-.916-.832-.888-1.553-.886q-9.3.023-18.592.007a2.131,2.131,0,0,0-1.542.409,1.553,1.553,0,0,0-.6.933c-.076.58.544.323.739.585a1.667,1.667,0,0,1,.16.977c.02.822.046.86.854.862,2.248.006,4.5,0,6.744.009.312,0,.685-.106.886.28" transform="translate(-1.159 -17.167)" fill="#a7e446"/>
    <path id="Trazado_247803" data-name="Trazado 247803" d="M31.456,32.14c-.063,1.063-.063,1.063-1.141,1.063q-8.889,0-17.777,0A3.43,3.43,0,0,0,9.153,35.04a2.97,2.97,0,0,0-.306,1.713c.074.656-.168.887-.8.782a1.249,1.249,0,0,0-.312.026c-1.123-.1-1.123-.1-1.043-1.267a5.357,5.357,0,0,1,5.633-5.234c6.2-.024,12.4,0,18.6-.016.42,0,.567.121.515.532a3.348,3.348,0,0,0,.019.565" transform="translate(-3.435 -16.001)"/>
    <path id="Trazado_247804" data-name="Trazado 247804" d="M13.157,74.156c-1.035.055-1.035.055-1.035,1.09,0,5.861-.007,11.722.011,17.582,0,.547-.1.769-.711.75-1.45-.045-1.451-.011-1.451-1.442V75.311c0-1.1,0-1.1-1.1-1.154q.011-.557.021-1.114a16.6,16.6,0,0,1,4.273.077.867.867,0,0,1-.005,1.036" transform="translate(-4.571 -37.597)" fill="#a7e446"/>
    <path id="Trazado_247805" data-name="Trazado 247805" d="M13.139,72.212q-1.794,0-3.588,0a1.114,1.114,0,0,1-.668-.122q-.013-.5-.027-.994l4.3,0a.894.894,0,0,1-.017,1.11" transform="translate(-4.565 -36.647)" fill="#85b638"/>
    <path id="Trazado_247806" data-name="Trazado 247806" d="M39.29,42.153l2.91-.02c.511.251.563.605.372,1.13-.38,1.043-.695,2.11-1.019,3.172-.282.926.018,1.441.967,1.66,1.124.26,2.25.512,3.381.737a.73.73,0,0,1,.68.659c.217,1.132.472,2.258.734,3.381.229.985.74,1.274,1.708.974,1.121-.348,2.239-.707,3.35-1.085a.6.6,0,0,1,.753.209c.774.887,1.575,1.749,2.374,2.613a1.143,1.143,0,0,0,1.967,0c.758-.816,1.53-1.621,2.243-2.475a.767.767,0,0,1,1.062-.272,8.137,8.137,0,0,0,.824.3c.068.253-.124.385-.264.526q-2.205,2.221-4.425,4.428a1.109,1.109,0,0,1-.516.343c-1.271.1-2.543.028-3.815.046a1.2,1.2,0,0,0-1.3.849,2.746,2.746,0,0,0-.1,1.12c-.009.881-.023,1.763,0,2.643a1.677,1.677,0,0,1-.559,1.338c-1.825,1.771-1.112,1.44-3.535,1.489-.368.007-.756-.115-1.1.122a2.9,2.9,0,0,0-.081,1.469c.029.414.446.277.687.393.187.081.17.213.085.358a2.449,2.449,0,0,1-.413.471q-4.486,4.488-8.978,8.971c-.222.221-.406.575-.831.415a5.194,5.194,0,0,0-2.445-.439c-4.849.012-9.7,0-14.548.018-.524,0-.66-.133-.659-.656.019-5.9.012-11.8.012-17.695,0-1.012,0-1.012-.991-1.066-.1-.153-.038-.328-.064-.49-.08-.5.17-.684.635-.693.629-.012,1.259-.007,1.889-.007,2.351,0,4.7,0,7.052,0,.955,0,1-.052,1.007-.987,0-1.973-.022-3.946.013-5.918.014-.756.009-1.424-.924-1.6-.007-.645-.009-1.291-.023-1.936-.016-.769-.257-1.056-1.032-1.255-.2-.161-.444-.083-.666-.084-2.468-.006-4.937-.014-7.4.005-.452,0-.654-.1-.614-.589s.008-.961.008-1.443c.323-.28.718-.2,1.087-.2q9.393-.009,18.786,0c.21,0,.421-.014.63,0,.5.036.876-.076.915-.669a.375.375,0,0,1,.164-.26" transform="translate(-9.121 -21.717)" fill="#e0f6be"/>
    <path id="Trazado_247807" data-name="Trazado 247807" d="M82.392,5.516c.806.883,1.6,1.726,2.357,2.591a1.307,1.307,0,0,0,1.569.425c.929-.326,1.883-.582,2.812-.907.41-.143.581-.105.664.367.167.949.43,1.881.6,2.83a1.366,1.366,0,0,0,1.219,1.235c.969.179,1.925.427,2.891.616.365.071.494.16.348.566-.327.906-.573,1.842-.895,2.75a1.435,1.435,0,0,0,.46,1.788c.714.586,1.357,1.256,2.064,1.852.367.308.444.491.023.836-.731.6-1.386,1.287-2.11,1.895a1.409,1.409,0,0,0-.447,1.736c.322.908.565,1.845.895,2.749.159.435.024.528-.374.6-.968.183-1.924.429-2.891.616a1.34,1.34,0,0,0-1.181,1.2c-.174.948-.438,1.88-.6,2.83-.085.5-.272.539-.7.389-.909-.32-1.841-.574-2.75-.9a1.34,1.34,0,0,0-1.623.441c-.659.763-1.366,1.484-2.026,2.246-.245.282-.382.272-.621,0-.676-.776-1.385-1.523-2.069-2.292a1.286,1.286,0,0,0-1.524-.4c-.971.335-1.963.6-2.934.939-.359.124-.468.054-.537-.312-.188-.989-.433-1.966-.628-2.953a1.354,1.354,0,0,0-1.193-1.191c-.969-.18-1.924-.434-2.892-.613-.432-.08-.487-.227-.345-.626.33-.927.583-1.882.911-2.81a1.343,1.343,0,0,0-.444-1.623c-.747-.645-1.454-1.337-2.2-1.978-.311-.265-.348-.413-.014-.7.769-.652,1.49-1.36,2.251-2.021a1.309,1.309,0,0,0,.412-1.574c-.329-.95-.59-1.924-.926-2.872-.141-.4-.037-.5.345-.575.968-.185,1.923-.434,2.892-.615a1.385,1.385,0,0,0,1.22-1.24c.177-.948.428-1.882.6-2.83.075-.408.174-.527.6-.37.905.33,1.842.57,2.749.9a1.446,1.446,0,0,0,1.78-.5c.716-.849,1.488-1.651,2.257-2.5" transform="translate(-35.034 -2.843)" fill="#feca2e"/>
    <path id="Trazado_247808" data-name="Trazado 247808" d="M97.886,69.975q2.271-2.293,4.542-4.587c.175-.177.335-.37.5-.555.752.227,1.507.442,2.253.687a1.808,1.808,0,0,0,1.272.032,3.21,3.21,0,0,1,.053,2.311c-.89.134-1.05.708-1,1.507.036.637-.174.806-.84.814-2.049.024-4.1.017-6.148,0a.735.735,0,0,1-.631-.211" transform="translate(-50.454 -33.417)" fill="#f2fbe3"/>
    <path id="Trazado_247809" data-name="Trazado 247809" d="M115.577,62.743l-.006-2.277a2.143,2.143,0,0,0,.627-1.322c.219-1.04.452-2.076.658-3.119a.614.614,0,0,1,.556-.558c.818-.152,1.631-.332,2.446-.5q0,1.187,0,2.374c-.93.157-.958.8-.938,1.569.044,1.721.02,3.444.011,5.166-.005.9-.13,1.011-1.024,1.029-.084,0-.168,0-.252,0-1.165,0-1.305-.079-1.238-1.247.04-.7-.375-.885-.838-1.116" transform="translate(-59.57 -28.332)" fill="#a7e446"/>
    <path id="Trazado_247810" data-name="Trazado 247810" d="M100.433,65.263c1.026.053,1.026.053,1.026,1.094,0,1.075,0,1.075,1.1,1.075,1.054,0,1.054,0,1.054-1.05,0-1.891.026-3.782-.014-5.673-.013-.629.115-.954.806-.826a1.2,1.2,0,0,0,.312-.023c1.05.075,1.05.075,1.05,1.14,0,1.974.013,3.948-.01,5.922,0,.417.11.547.525.519a13.983,13.983,0,0,1,1.574,0,.99.99,0,0,1,1.044.729q.006,6.775.011,13.55c-.1.53-.493.7-.96.772-6.872.217-13.747.1-20.62.119-.778-.23-1.068-.544-1.079-1.333-.034-2.583-.124-5.172.028-7.746.1-1.7-.005-3.394.128-5.086a1.142,1.142,0,0,1,1.3-1.009c1.385-.015,2.77-.017,4.156-.025,2.348.008,4.7.008,7.044.03.343,0,.446-.114.412-.433a5.375,5.375,0,0,1,0-.566c0-1.119,0-1.119,1.123-1.177" transform="translate(-44.426 -30.851)"/>
    <path id="Trazado_247811" data-name="Trazado 247811" d="M119.627,108.82a8.042,8.042,0,0,1-1.631,0c-.321,0-.476.1-.436.434a1.445,1.445,0,0,1,0,.189c-.013,1.657-.167,1.78-1.843,1.543-.253-.036-.314-.143-.309-.364a8.745,8.745,0,0,1,.011-1.07c.094-.644-.188-.8-.769-.732-.457.053-.922.036-1.383.051a.156.156,0,0,1,.089-.2,7.267,7.267,0,0,0,1.055-1.006,7.577,7.577,0,0,1,2.11-.122,7.339,7.339,0,0,1,.752,0c.559.022,1.118.06,1.207-.716.01-.084.108-.114.2-.077-.006.462.016.926-.026,1.384-.045.485.1.707.614.629a1.222,1.222,0,0,1,.359.055" transform="translate(-58.378 -55.016)" fill="#a7e446"/>
    <path id="Trazado_247812" data-name="Trazado 247812" d="M105.943,106.614c-.038.047-.116.1-.109.14.143.838-.336.883-.987.855-1.062-.045-2.128-.013-3.192-.013-.19-.782-.758-.822-1.436-.818-3.574.024-7.147.016-10.72,0-.33,0-.728.124-.951-.282l16.223.011c1.464,0,2.929-.1,4.392,0-1.07.167-2.15-.018-3.22.1" transform="translate(-45.641 -54.877)" fill="#85b638"/>
    <path id="Trazado_247813" data-name="Trazado 247813" d="M34.439,124.179H7.078c-1.936,0-2.717-.772-2.7-2.709,0-.518-.236-1.2.108-1.5.29-.254.959-.086,1.46-.086,7.145,0,14.29.006,21.435-.015a1.563,1.563,0,0,1,1.557.8,2.633,2.633,0,0,0,2.3,1.324c2.245.064,4.493.119,6.737-.032a2.619,2.619,0,0,0,2.152-1.341,1.427,1.427,0,0,1,1.392-.748q11.254.028,22.507,0c.463,0,.691.071.636.6-.052.5,0,1.008-.016,1.511a2.17,2.17,0,0,1-2.149,2.191c-.21.013-.42.005-.63.005H34.439" transform="translate(-2.215 -61.762)" fill="#d5d8da"/>
    <path id="Trazado_247814" data-name="Trazado 247814" d="M71.99,91.609c.222.178.485.093.727.094q5.685.009,11.37,0c.986,0,.986,0,1.01,1a2.606,2.606,0,0,0,0,.374c.063.474-.1.707-.612.638-.17-.023-.381-.077-.511.125,0,.147,0,.294-.007.44-.037.537.236,1.24-.117,1.569s-1.042.094-1.583.094c-4.577.007-9.155.024-13.732-.008a3.367,3.367,0,0,0-3.28,1.664,1.008,1.008,0,0,1-.953.5q-2.929,0-5.858,0a.968.968,0,0,1-.915-.447,5.494,5.494,0,0,0-1.1-1.272.792.792,0,0,0,.524-.315q4.788-4.789,9.576-9.579a1.71,1.71,0,0,0,.152-.2c.4-.341.878-.178,1.322-.2.726-.035.758-.056.759-.875s-.035-.879-.742-.89c-.542-.009-1.085,0-1.628,0a1.023,1.023,0,0,1-.712-.175A1.687,1.687,0,0,1,67,84.022a3.429,3.429,0,0,0,3.466-1.439,1.826,1.826,0,0,0,.508-1.268c-.039-1.044-.015-2.09-.009-3.136,0-.2-.064-.422.1-.6q.005,6.335.012,12.671c0,.869.165,1.1.917,1.361" transform="translate(-29.083 -39.987)" fill="#f2fbe3"/>
    <path id="Trazado_247815" data-name="Trazado 247815" d="M27.44,55.438c1.111.005,1.111.005,1.111,1.132,0,2.286-.014,4.571.01,6.857.006.548-.167.729-.72.725-3-.022-6-.015-9-.008-1.135,0-1.006-.161-1.014.989h-.125l-.012-.994q.008-.555.017-1.111l8.176-.022c1.2,0,1.527-.333,1.531-1.532q.009-3.019.021-6.037" transform="translate(-9.121 -28.575)" fill="#f2fbe3"/>
    <path id="Trazado_247816" data-name="Trazado 247816" d="M11.427,53.3c2.123,0,4.246.021,6.368-.014.542-.009.653.157.644.668-.032,1.743-.025,3.488,0,5.232.005.418-.075.576-.54.574q-6.463-.028-12.926,0c-.456,0-.553-.14-.548-.568.023-1.765.032-3.531,0-5.3-.011-.526.174-.611.641-.606,2.122.022,4.245.01,6.368.01" transform="translate(-2.277 -27.463)" fill="#fc4b52"/>
    <path id="Trazado_247817" data-name="Trazado 247817" d="M38.206,41.046c-.063,1.09-.063,1.09-1.164,1.09q-9.833,0-19.665,0c-.251,0-.5.023-.753.035a1.539,1.539,0,0,0-.186-.03c-.93-.034-1.056-.263-.564-1.091A2,2,0,0,1,17.5,40.011c.271-.021.545-.026.817-.026q9.377,0,18.754,0c1.073,0,1.073,0,1.134,1.062" transform="translate(-8.037 -20.609)"/>
    <path id="Trazado_247818" data-name="Trazado 247818" d="M34.259,77.763c.711,1.643,1.387,3.2,2.058,4.753.535,1.241.106,1.883-1.261,1.888-1.135,0-2.271-.018-3.405.008a1.47,1.47,0,0,1-1.536-.944c-.578-1.257-1.23-2.48-1.826-3.729a.984.984,0,0,0-.725-.592,4.114,4.114,0,0,1-1.435-7.3,3.362,3.362,0,0,1,.522-.352,17.645,17.645,0,0,0,4.634-3.625c2.626-2.666,5.31-5.274,7.972-7.9.969-.957,1.758-.783,2.2.489q2.709,7.847,5.41,15.7c.4,1.172-.041,1.784-1.281,1.766q-5.3-.074-10.594-.158c-.209,0-.419,0-.73,0" transform="translate(-12.6 -30.596)"/>
    <path id="Trazado_247819" data-name="Trazado 247819" d="M73.471,75.4c.056.211-.1.248-.238.3-.986.345-1.975.684-2.957,1.04-.243.088-.333.011-.4-.213-.152-.478-.3-.959-.5-1.418-.129-.3.029-.362.241-.436.948-.328,1.9-.659,2.843-.986.153-.052.35-.159.435.061.21.545.39,1.1.581,1.656" transform="translate(-35.732 -37.944)"/>
    <path id="Trazado_247820" data-name="Trazado 247820" d="M66.218,56.227c.336.387,1.054.85,1.14,1.41.091.591-.758.991-1.195,1.471-.993,1.091-.993,1.06-2.09.051-.378-.348-.5-.571-.042-.95.706-.588,1.366-1.233,2.186-1.982" transform="translate(-32.853 -28.981)" fill="#000001"/>
    <path id="Trazado_247821" data-name="Trazado 247821" d="M75.514,91.091c.939-.009,1.879-.009,2.818-.033.319-.008.424.088.438.421.073,1.731.084,1.73-1.631,1.734-.208,0-.416.016-.625.024-1-.062-1-.062-1-1.09q0-.528,0-1.056" transform="translate(-38.922 -46.935)" fill="#000101"/>
    <path id="Trazado_247822" data-name="Trazado 247822" d="M86.71,35.255c-.153-.146-.291-.269-.419-.4-.347-.361-.932-.7-.967-1.094-.038-.414.6-.737.952-1.089,3.082-3.092,6.178-6.17,9.25-9.273.354-.358.557-.363.866.012s.932.709.961,1.1c.031.409-.607.736-.959,1.09q-4.623,4.638-9.26,9.263c-.132.132-.272.255-.425.4" transform="translate(-43.978 -11.921)"/>
    <path id="Trazado_247823" data-name="Trazado 247823" d="M105.4,35.527a3.23,3.23,0,1,1-3.217,3.2,3.266,3.266,0,0,1,3.217-3.2" transform="translate(-52.668 -18.312)"/>
    <path id="Trazado_247824" data-name="Trazado 247824" d="M86.4,25.4a3.2,3.2,0,0,1-3.224,3.237,3.24,3.24,0,0,1-3.22-3.2A3.275,3.275,0,0,1,83.2,22.184,3.237,3.237,0,0,1,86.4,25.4" transform="translate(-41.214 -11.434)"/>
    <path id="Trazado_247825" data-name="Trazado 247825" d="M100.239,79.915c2.859,0,5.718.009,8.577-.01.435,0,.569.107.566.557q-.028,4.824,0,9.648c0,.438-.119.568-.562.567q-8.609-.02-17.217,0c-.413,0-.532-.119-.53-.53q.023-4.856,0-9.712c0-.485.193-.53.593-.528,2.859.014,5.718.007,8.577.007" transform="translate(-46.94 -41.186)" fill="#fc4b52"/>
    <path id="Trazado_247826" data-name="Trazado 247826" d="M20.463,57.737c.735,0,1.47.015,2.2-.006.338-.01.47.068.479.444.045,1.715.058,1.715-1.661,1.715-1.071,0-2.142-.015-3.212.008-.39.008-.546-.072-.549-.51-.011-1.651-.029-1.651,1.6-1.651h1.134" transform="translate(-9.135 -29.756)"/>
    <path id="Trazado_247827" data-name="Trazado 247827" d="M11.031,58.886c0,1.012,0,1.012-1.032,1.012-1.121,0-1.121,0-1.121-1.112,0-1.042,0-1.042,1.064-1.042,1.089,0,1.089,0,1.089,1.142" transform="translate(-4.576 -29.763)" fill="#010000"/>
    <path id="Trazado_247828" data-name="Trazado 247828" d="M46.959,65.778l4.548,13.184c-.193.167-.387.095-.56.093-3.361-.044-6.723-.1-10.084-.137a.694.694,0,0,1-.728-.438c-.591-1.226-1.212-2.438-1.832-3.651-.124-.242-.175-.408.063-.642q4.207-4.127,8.391-8.277a1.521,1.521,0,0,1,.2-.132" transform="translate(-19.688 -33.904)" fill="#dfe2e5"/>
    <path id="Trazado_247829" data-name="Trazado 247829" d="M31.229,91.145A2.158,2.158,0,0,1,29.064,89.9a1.955,1.955,0,0,1,.6-2.27,15.828,15.828,0,0,1,1.648-1.041c.175-.113.287-.111.392.1.534,1.07,1.08,2.134,1.62,3.2.065.129.16.269-.053.361a7.774,7.774,0,0,1-2.041.893" transform="translate(-14.908 -44.593)" fill="#fc4b52"/>
    <path id="Trazado_247830" data-name="Trazado 247830" d="M39.035,102.41c-.626.2-.94-.2-1.191-.814-.293-.712-.657-1.4-1.017-2.08-.146-.278-.142-.4.17-.564,1.383-.714,1.377-.726,2,.724.314.728.6,1.469.955,2.177.242.486.139.628-.377.559a4.813,4.813,0,0,0-.542,0" transform="translate(-18.934 -50.761)" fill="#dee1e4"/>
    <path id="Trazado_247831" data-name="Trazado 247831" d="M107.7,40.027a1.047,1.047,0,1,1-1.022,1.038,1.03,1.03,0,0,1,1.022-1.038" transform="translate(-54.988 -20.631)" fill="#fbb52f"/>
    <path id="Trazado_247832" data-name="Trazado 247832" d="M86.549,27.7a1.033,1.033,0,0,1-1.057,1.076,1.066,1.066,0,0,1-1.061-1.021A1.088,1.088,0,0,1,85.5,26.673,1.058,1.058,0,0,1,86.549,27.7" transform="translate(-43.518 -13.748)" fill="#fbb42f"/>
    <path id="Trazado_247833" data-name="Trazado 247833" d="M102.5,95.377c-2.14,0-4.281-.011-6.421.009-.424,0-.575-.093-.574-.549,0-1.619-.016-1.619,1.573-1.619,3.924,0,7.848.009,11.772-.011.5,0,.688.1.677.645-.032,1.524-.006,1.525-1.551,1.525H102.5" transform="translate(-49.225 -48.042)"/>
    <path id="Trazado_247834" data-name="Trazado 247834" d="M112.538,86.5c-1.092,0-2.185-.013-3.277.007-.36.007-.455-.11-.463-.464-.042-1.7-.053-1.7,1.618-1.7,1.806,0,3.613.012,5.419-.009.412,0,.53.114.533.529.01,1.635.025,1.635-1.625,1.635h-2.206" transform="translate(-56.073 -43.471)"/>
    <path id="Trazado_247835" data-name="Trazado 247835" d="M97.643,84.351c.588,0,1.177.014,1.765-.005.307-.01.378.11.394.4.1,1.759.1,1.759-1.615,1.759-.756,0-1.513-.015-2.269.006-.333.009-.418-.107-.43-.432-.065-1.729-.074-1.728,1.65-1.728h.5" transform="translate(-49.208 -43.474)"/>
  </g>
</svg>
