<svg id="Grupo_148683" data-name="Grupo 148683" xmlns="http://www.w3.org/2000/svg" xmlns:xlink="http://www.w3.org/1999/xlink" width="64.533" height="64.567" viewBox="0 0 64.533 64.567">
  <defs>
    <clipPath id="clip-path">
      <rect id="Rectángulo_89978" data-name="Rectángulo 89978" width="64.533" height="64.567" fill="none"/>
    </clipPath>
  </defs>
  <g id="Grupo_148682" data-name="Grupo 148682" clip-path="url(#clip-path)">
    <path id="Trazado_247836" data-name="Trazado 247836" d="M64.533,34.931a8.068,8.068,0,0,0-.35,2.125,32.229,32.229,0,0,1-24.449,26.62A31.9,31.9,0,0,1,11.848,57.3a.979.979,0,0,1-.322-1.509.892.892,0,0,1,1.39-.238c.624.426,1.2.921,1.817,1.357A30.029,30.029,0,0,0,28.7,62.275a29.575,29.575,0,0,0,17.565-3.209,29.943,29.943,0,0,0,11.6-10.749,23.9,23.9,0,0,0,2.032-3.833A30.192,30.192,0,0,0,62.37,34.444a29.942,29.942,0,0,0-8.715-23.465A29.692,29.692,0,0,0,34.568,2.171,29.529,29.529,0,0,0,18.363,5.444,30,30,0,0,0,6.112,17.106,29.428,29.428,0,0,0,2.32,28.053a30.294,30.294,0,0,0,.926,12.718,33.641,33.641,0,0,0,1.339,3.667A28.284,28.284,0,0,0,8.515,51c.53.677,1.1,1.319,1.679,1.959.517.574.5,1.044-.015,1.506-.707.414-1.019.384-1.543-.185A31.54,31.54,0,0,1,.209,36.044,32.231,32.231,0,0,1,29.231.13c.128-.012.306.077.371-.13h.63c.081.087.188.058.287.065h.308c.1-.007.206.022.287-.065h2.27c.083.089.193.058.294.065h.55c.1-.007.209.023.292-.065h.252c1.348.148,2.7.205,4.039.487A32.083,32.083,0,0,1,52.862,7.228a32.33,32.33,0,0,1,8.259,10.2,31.513,31.513,0,0,1,3.257,10.34c.087.658.035,1.331.154,1.989v.378c-.085.078-.059.183-.065.279v.451c.005.1-.02.2.065.279v2.27c-.085.079-.06.183-.065.28v.45c.005.1-.02.2.065.279Z" transform="translate(0)"/>
    <path id="Trazado_247837" data-name="Trazado 247837" d="M55.739.112,55.363.106c-.047-.02-.063-.043-.05-.067S55.34,0,55.354,0h.378c.039.022.053.047.043.072s-.024.039-.036.039" transform="translate(-21.717)" fill="#4e4e4e"/>
    <path id="Trazado_247838" data-name="Trazado 247838" d="M50.534.106l-.377,0c-.036-.027-.047-.052-.033-.075S50.151,0,50.164,0h.378c.043.027.055.052.039.075a.064.064,0,0,1-.047.032" transform="translate(-19.68 0)" fill="#4d4d4d"/>
    <path id="Trazado_247839" data-name="Trazado 247839" d="M56.645,0c-.03.157-.143.12-.247.106-.045-.021-.061-.044-.047-.069S56.378,0,56.393,0Z" transform="translate(-22.125 0)" fill="#8f8f8f"/>
    <path id="Trazado_247840" data-name="Trazado 247840" d="M56.26,0a.787.787,0,0,0,.005.107l-.251,0A.624.624,0,0,1,56.008,0Z" transform="translate(-21.992)" fill="#707070"/>
    <path id="Trazado_247841" data-name="Trazado 247841" d="M106.073,49.871c-.014-.1-.047-.214.106-.246v.252c-.039.06-.074.055-.106-.006" transform="translate(-41.646 -19.486)" fill="#838383"/>
    <path id="Trazado_247842" data-name="Trazado 247842" d="M106.081,50.03a1.027,1.027,0,0,1,.106.006v.253c-.039.058-.074.056-.105-.007,0-.084,0-.168,0-.251" transform="translate(-41.654 -19.645)" fill="#646464"/>
    <path id="Trazado_247843" data-name="Trazado 247843" d="M106.079,50.443l.105.007V50.7c-.039.056-.077.058-.11-.005,0-.084,0-.169,0-.254" transform="translate(-41.651 -19.807)" fill="#494949"/>
    <path id="Trazado_247844" data-name="Trazado 247844" d="M106.071,50.862l.111.005v.252a.215.215,0,0,1-.111-.258" transform="translate(-41.648 -19.972)" fill="#373737"/>
    <path id="Trazado_247845" data-name="Trazado 247845" d="M106.071,55.281a.219.219,0,0,1,.11-.258v.252c-.034.055-.07.059-.11.005" transform="translate(-41.648 -21.605)" fill="#373737"/>
    <path id="Trazado_247846" data-name="Trazado 247846" d="M106.074,55.443l.11-.005v.253c-.031.055-.067.055-.105.007,0-.084,0-.169,0-.254" transform="translate(-41.651 -21.768)" fill="#494949"/>
    <path id="Trazado_247847" data-name="Trazado 247847" d="M106.081,55.861l.105-.007v.252c-.032.053-.068.058-.106.006,0-.084,0-.167,0-.251" transform="translate(-41.654 -21.932)" fill="#656565"/>
    <path id="Trazado_247848" data-name="Trazado 247848" d="M106.071,56.275l.107-.006v.253c-.155-.03-.122-.143-.107-.247" transform="translate(-41.645 -22.095)" fill="#848484"/>
    <path id="Trazado_247849" data-name="Trazado 247849" d="M55.221,0c0,.036,0,.071.008.106A.212.212,0,0,1,54.969,0Z" transform="translate(-21.584)" fill="#353535"/>
    <path id="Trazado_247850" data-name="Trazado 247850" d="M50.8.106c0-.035.007-.071.009-.107h.252A.213.213,0,0,1,50.8.106" transform="translate(-19.948 0)" fill="#353535"/>
    <path id="Trazado_247851" data-name="Trazado 247851" d="M50.031,0a.661.661,0,0,1-.007.109c-.1.012-.211.035-.245-.109Z" transform="translate(-19.546)" fill="#707070"/>
    <path id="Trazado_247852" data-name="Trazado 247852" d="M62.92,73.3A24.392,24.392,0,0,1,59.5,79.216,29.623,29.623,0,0,1,41.034,90.848a29.9,29.9,0,0,1-24.759-5.985c-.986-.757-1.185-.812-1.855-.3l-1.347-1.318a1.12,1.12,0,0,0-.233-1.566,29.841,29.841,0,0,1-5.249-7.8c-.088-.188-.149-.389-.224-.583.3-.086.349.177.439.342A31.3,31.3,0,0,0,23.882,87.794a30.01,30.01,0,0,0,8.123,1.948A31.182,31.182,0,0,0,62.393,73.806c.117-.213.143-.556.527-.507" transform="translate(-2.893 -28.775)" fill="#e5485d"/>
    <path id="Trazado_247853" data-name="Trazado 247853" d="M61.22,45.7c-.677,1.076-1.315,2.18-2.038,3.224A31.14,31.14,0,0,1,48.307,58.7a31.557,31.557,0,0,1-9.685,3.346,28.634,28.634,0,0,1-6.883.4A31.28,31.28,0,0,1,21.985,60.3,31.631,31.631,0,0,1,7.1,48.04c-.494-.771-.958-1.561-1.437-2.342a27,27,0,0,1-2.333-8.126,29.157,29.157,0,0,1,1.45-14.2C8.221,14.075,14.616,7.676,24.047,4.6A29.124,29.124,0,0,1,49.912,7.956,29.416,29.416,0,0,1,63.348,28.169a29.891,29.891,0,0,1-1.8,16.855c-.094.231-.218.449-.329.674" transform="translate(-1.193 -1.174)" fill="#fe5876"/>
    <path id="Trazado_247854" data-name="Trazado 247854" d="M55.2,18.34c.368.5.928.847,1.2,1.43-.244.828.286,1.371.717,1.954a24.937,24.937,0,0,1,4.8,12.347,25.344,25.344,0,0,1-1.8,12.385,3.184,3.184,0,0,1-.452.825c-.7,1-1.3,2.054-2.044,3.02A26.032,26.032,0,0,1,40.6,60.45a22.094,22.094,0,0,1-3.192.285c-.223,0-.589.131-.6-.323a1.743,1.743,0,0,0,.711-1.582c-.016-.543,0-1.087,0-1.63a2.158,2.158,0,0,0-.132-.8.724.724,0,0,0-.694-.536.713.713,0,0,0-.7.52,2.183,2.183,0,0,0-.138.8c0,.564.007,1.128,0,1.693a1.688,1.688,0,0,0,.7,1.522c.026.474-.357.338-.573.335a23.67,23.67,0,0,1-3.314-.3,26.258,26.258,0,0,1-18.4-12.291,7.079,7.079,0,0,0-.551-.841A16.751,16.751,0,0,1,12,42.582a23.348,23.348,0,0,1-.7-6.431A25.7,25.7,0,0,1,13.487,26.5,25.391,25.391,0,0,1,33.492,11.594a25.052,25.052,0,0,1,14.9,2.647A23.383,23.383,0,0,1,53.414,17.7a1.927,1.927,0,0,0,1.789.643" transform="translate(-4.433 -4.467)" fill="#e3edf8"/>
    <path id="Trazado_247855" data-name="Trazado 247855" d="M54.111,17.234a1.1,1.1,0,0,1-1.52-.179,24.107,24.107,0,0,0-13.315-6.326,24.653,24.653,0,0,0-22.465,8.162,24.007,24.007,0,0,0-6.124,12.942,24.322,24.322,0,0,0,2.031,14.3,30.358,30.358,0,0,0,5.409,7.44,24.975,24.975,0,0,0,14.2,6.89A25.017,25.017,0,0,0,56.87,48.818c.551-.884,1.1-1.772,1.591-2.69a21.894,21.894,0,0,0,2.067-6.885A24.883,24.883,0,0,0,57.2,22.682,21.976,21.976,0,0,0,55.416,20.1a1.078,1.078,0,0,1-.1-1.434c.709-.453,1.081-.4,1.6.275a26.275,26.275,0,0,1,5.68,14.75c.774,12.1-5.978,22.98-17.287,27.206-9.881,3.693-19.109,2.08-27.268-4.658A25.461,25.461,0,0,1,8.8,39.551a26.39,26.39,0,0,1,7.863-23.258,25.673,25.673,0,0,1,15.019-7.45A26.649,26.649,0,0,1,53.909,15.69c.573.511.6.821.2,1.544" transform="translate(-3.341 -3.362)"/>
    <path id="Trazado_247856" data-name="Trazado 247856" d="M32.978,38.467a.97.97,0,0,1-1.4-.132c-1.754-1.569-3.523-3.119-5.263-4.7A2.839,2.839,0,1,1,30.1,29.408q5.4,4.782,10.778,9.6a1.774,1.774,0,0,0,2.278-.053c1.725-1.751,3.441-3.512,5.18-5.249a2.838,2.838,0,0,1,4.69,2.954,3.15,3.15,0,0,1-.8,1.192c-1.832,1.852-3.64,3.727-5.5,5.555-.568.56-.4,1.339-.754,1.949-.089.15.168.261.291.365q4.7,3.952,9.406,7.9a5.938,5.938,0,0,1,.612.544.936.936,0,0,1-1.223,1.4,9.6,9.6,0,0,1-.78-.638q-4.583-3.85-9.16-7.705a.616.616,0,0,0-.854-.088,4.147,4.147,0,0,1-6.132-2.6,1.451,1.451,0,0,0-.47-.782c-.967-.841-1.92-1.7-2.876-2.55-.634-.565-.686-.833-.319-1.583a.9.9,0,0,1,1.354-.2c.637.412,1.111,1.02,1.725,1.461.676.7.676.7,1.24-.008.44-.553.44-.553-.231-1.192q-2.591-2.288-5.168-4.589c-1.327-1.188-2.666-2.363-3.982-3.562a6.733,6.733,0,0,0-.771-.644.731.731,0,0,0-1.069.105.756.756,0,0,0,.077,1.085c.477.469.984.909,1.49,1.349,1.28,1.113,2.537,2.254,3.809,3.377.679.6.662,1.193.032,1.667" transform="translate(-9.935 -11.242)"/>
    <path id="Trazado_247857" data-name="Trazado 247857" d="M61.183,70.416a22.788,22.788,0,0,1-4.438,6.668,24.682,24.682,0,0,1-15.792,7.905A25.188,25.188,0,0,1,15.54,70.714a2.439,2.439,0,0,1-.1-.3c.6.871,1.2,1.745,1.806,2.612a24.336,24.336,0,0,0,5.033,5.219,25.393,25.393,0,0,0,8.175,4.3,23.447,23.447,0,0,0,5.824,1.1,4.5,4.5,0,0,0,1.909.014.157.157,0,0,1,.254,0,1.911,1.911,0,0,0,1.168.09,31.317,31.317,0,0,0,5.605-.913,26.023,26.023,0,0,0,9.23-4.67,26.571,26.571,0,0,0,6.463-7.436c.072-.121.1-.282.277-.318" transform="translate(-6.062 -27.65)" fill="#d4dff1"/>
    <path id="Trazado_247858" data-name="Trazado 247858" d="M34.209,39.694c.478-.658.459-1.021-.152-1.568-1.656-1.48-3.323-2.946-4.984-4.42a2.891,2.891,0,0,1-.406-.393.915.915,0,0,1,.038-1.258A.888.888,0,0,1,30,32.012c.88.743,1.741,1.508,2.6,2.274q3.547,3.153,7.083,6.316a2.633,2.633,0,0,1,.208.233,2.175,2.175,0,0,1-1.167,1.419c-.5-.434-1.02-.853-1.507-1.305a1.07,1.07,0,0,0-1.513-.1c-.522-.352-.868-.934-1.495-1.152" transform="translate(-11.166 -12.469)" fill="#405b6c"/>
    <path id="Trazado_247859" data-name="Trazado 247859" d="M53.422,16.567c0,.481.027.963-.007,1.442a.9.9,0,0,1-.926.906.877.877,0,0,1-.935-.892c-.035-1-.035-2.007,0-3.009a.883.883,0,0,1,.924-.906.919.919,0,0,1,.946.892.955.955,0,0,1,.01.125q0,.722,0,1.443h-.009" transform="translate(-20.233 -5.54)" fill="#020202"/>
    <path id="Trazado_247860" data-name="Trazado 247860" d="M52.612,89.11h-.254a1.041,1.041,0,0,1-.825-1.162c.01-.858-.009-1.716.007-2.574.013-.7.363-1.086.945-1.086s.933.383.947,1.085c.017.858,0,1.716.007,2.573a1.043,1.043,0,0,1-.825,1.164" transform="translate(-20.235 -33.097)" fill="#020202"/>
    <path id="Trazado_247861" data-name="Trazado 247861" d="M16.438,53.479c-.481,0-.964.026-1.442-.007a.9.9,0,0,1-.937-.961.874.874,0,0,1,.916-.914c.982-.032,1.966-.035,2.947,0a.938.938,0,0,1,.021,1.875c-.5.034-1,.007-1.5.007v0" transform="translate(-5.52 -20.251)" fill="#020202"/>
    <path id="Trazado_247862" data-name="Trazado 247862" d="M86.582,53.478c-.481,0-.964.028-1.442-.007a.882.882,0,0,1-.9-.927.866.866,0,0,1,.888-.937c1-.038,2.007-.036,3.009,0a.933.933,0,0,1,.015,1.863c-.52.038-1.045.009-1.567.009v0" transform="translate(-33.076 -20.253)" fill="#020202"/>
    <path id="Trazado_247863" data-name="Trazado 247863" d="M58.482,43.314c1.4-1.421,2.79-2.846,4.2-4.259a.926.926,0,0,1,1.349-.08.975.975,0,0,1-.03,1.41c-1.444,1.463-2.906,2.907-4.362,4.358a2.908,2.908,0,0,1-1.153-1.43" transform="translate(-22.964 -15.204)" fill="#405b6c"/>
    <path id="Trazado_247864" data-name="Trazado 247864" d="M49.39,51.806a2.257,2.257,0,1,1,4.5,0,3.016,3.016,0,0,1-4.5,0" transform="translate(-19.393 -19.398)" fill="#fe5875"/>
    <path id="Trazado_247865" data-name="Trazado 247865" d="M49.392,53.361a6.741,6.741,0,0,0,1.489.757,3.105,3.105,0,0,0,2.638-.54c.118-.082.251-.145.377-.217a2.255,2.255,0,0,1-4.5,0" transform="translate(-19.394 -20.953)" fill="#e5485c"/>
    <path id="Trazado_247866" data-name="Trazado 247866" d="M45.377,48.124l1.167-1.42c.771.631.771.631.187,1.4-.6.8-.6.8-1.354.016" transform="translate(-17.818 -18.339)" fill="#2c4355"/>
    <path id="Trazado_247867" data-name="Trazado 247867" d="M58.08,46.284a13.106,13.106,0,0,1,1.153,1.43c-.623.721-.623.721-1.226.065l-.042-.046c-.693-.739-.693-.739.115-1.45" transform="translate(-22.562 -18.174)" fill="#2d4355"/>
  </g>
</svg>
