<svg id="Grupo_148685" data-name="Grupo 148685" xmlns="http://www.w3.org/2000/svg" xmlns:xlink="http://www.w3.org/1999/xlink" width="64.533" height="64.473" viewBox="0 0 64.533 64.473">
  <defs>
    <clipPath id="clip-path">
      <rect id="Rectángulo_89979" data-name="Rectángulo 89979" width="64.533" height="64.473" fill="none"/>
    </clipPath>
  </defs>
  <g id="Grupo_148684" data-name="Grupo 148684" clip-path="url(#clip-path)">
    <path id="Trazado_247868" data-name="Trazado 247868" d="M0,60.248V14.087a1.391,1.391,0,0,1,.971-.178c.084,0,.167-.006.251,0,.865.019.97.115.971.993q.009,7,0,14c0,1.106,0,1.057,1.1,1.122a2.5,2.5,0,0,0,2.1-.858c2.163-2.222,4.375-4.4,6.572-6.584,2.288-2.251,4.545-4.533,6.823-6.795a6.521,6.521,0,0,1,.548-.52A1.221,1.221,0,0,1,21,15.275a6.55,6.55,0,0,1,.548.519q3.52,3.512,7.039,7.024c.649.647.653.647,1.288.013l9.935-9.914c.148-.148.295-.3.447-.443a1.33,1.33,0,0,1,2.178.017c.167.159.328.324.491.487,5.465,5.453,10.947,10.89,16.376,16.377.852.861,1.789.62,2.745.628.2,0,.268-.174.284-.356s.01-.335.01-.5q0-8.991,0-17.981c0-.9-.011-.912-.913-.912H34.468c-1.332,0-1.332,0-1.384-1.351.034-.949.128-1.034,1.208-1.034q13.247,0,26.494,0c1.726,0,1.507.11,1.527-1.518,0-.084.008-.167.017-.25-.021-.356,0-.712-.017-1.068a2.876,2.876,0,0,0-2.72-2.788c-.293-.02-.588-.011-.882-.011H36.734c-.168,0-.336,0-.5,0-1.039-.011-1.142-.118-1.123-1.169A1.489,1.489,0,0,1,35.291,0H60.247A4.757,4.757,0,0,1,64.22,2.9a7.8,7.8,0,0,1,.313,1.377V60.248a4.731,4.731,0,0,1-2.967,3.9,4.138,4.138,0,0,1-1.782.308q-27.518.01-55.035.019A4.829,4.829,0,0,1,0,60.248"/>
    <path id="Trazado_247869" data-name="Trazado 247869" d="M0,12.075V4.151A4.778,4.778,0,0,1,4.159,0H25.082a4.52,4.52,0,0,1,2.532.981,5.144,5.144,0,0,1,1.812,4.1c-.01.73.006,1.461,0,2.192-.006.427.181.618.6.594.042,0,.084,0,.126,0,1.287.037,1.287.037,1.3,1.307,0,.932-.119,1.087-.955,1.087q-10.122.01-20.244,0c-.042,0-.083-.007-.125-.01-2.31.028-4.62,0-6.931.013-.952,0-.953.006-.975.93-.023.983-.136,1.086-1.168,1.066-.359,0-.734.076-1.048-.184"/>
    <path id="Trazado_247870" data-name="Trazado 247870" d="M185.046,1.023q.008-.512.017-1.024h2.017c.258.312.176.683.183,1.039.021,1.054-.1,1.184-1.135,1.171-.185,0-.369-.025-.554-.014-.712-.143-.845-.44-.528-1.171" transform="translate(-153.805 0.001)"/>
    <path id="Trazado_247871" data-name="Trazado 247871" d="M59.058,53.781q3.968-.011,7.936-.02,6.079-.005,12.157,0c1.048,0,1.048,0,1.1-1a2.243,2.243,0,0,1,1.975,0c.052,1,.052,1,1.1,1q13.734,0,27.468-.014c.582,0,.708.155.706.716q-.031,9.4,0,18.8c0,.539-.166.587-.654.65a3.743,3.743,0,0,1-3.372-1.383C102.182,67.141,96.809,61.833,91.464,56.5c-1-1-1.3-.993-2.317.022q-5.19,5.179-10.37,10.368c-.42.423-.635.5-1.1.026-2.48-2.533-5-5.023-7.515-7.527-.82-.818-1.217-.812-2.05.014Q64.6,62.879,61.1,66.354c-.233.044-.3-.142-.338-.291a16.245,16.245,0,0,1-.653-2.807,1.014,1.014,0,0,1,.4-.47,3.85,3.85,0,0,0-.714-6.427c-.274-.145-.6-.226-.728-.56-.056-.673-.4-1.345,0-2.018" transform="translate(-48.973 -43.698)" fill="#a7e446"/>
    <path id="Trazado_247872" data-name="Trazado 247872" d="M75.949,97.347C78.29,95,80.638,92.661,82.964,90.3c.373-.378.526-.088.739.125q5.237,5.224,10.463,10.459c.384.387.587.422.976.008.924-.986.948-.964.012-1.9-.342-.341-.667-.7-1.03-1.017-.294-.257-.279-.429,0-.7.907-.873,1.788-1.773,2.68-2.662q3.632-3.624,7.26-7.252c.256-.257.414-.378.745-.046q7.535,7.555,15.1,15.084a1.51,1.51,0,0,1,.116.147c-.06.178-.209.107-.318.107q-20.7,0-41.4,0c-.063,0-.126-.009-.188-.014a.978.978,0,0,1-.47-.558,39.151,39.151,0,0,1-1.7-4.017.841.841,0,0,1,.009-.72" transform="translate(-63.111 -72.471)" fill="#16cc37"/>
    <path id="Trazado_247873" data-name="Trazado 247873" d="M16.951,191.673H29.935a4.781,4.781,0,0,1,1.126,1.7.275.275,0,0,1-.2.433,4.09,4.09,0,0,1-1,.059q-5.133,0-10.267,0c-1.215,0-1.429.213-1.431,1.43q-.007,4.337,0,8.674c0,1.388.175,1.567,1.552,1.567q10.3,0,20.6,0a6.754,6.754,0,0,1,1.13.041,18.708,18.708,0,0,1,2.652,1.939c.183.13.122.285-.091.362a9.548,9.548,0,0,1-1.885.064c-1.512.011-3.024,0-4.536.006-1.006.006-1.265.26-1.268,1.276q-.014,4.558,0,9.117c0,1.035.255,1.279,1.325,1.281,3.36.008,6.72,0,10.081,0,1.029,0,2.058.01,3.087,0,.975-.013,1.229-.266,1.236-1.242.012-1.635,0-3.269.005-4.9a2.76,2.76,0,0,1,.078-.934c.048-.092.115-.208.225-.17a3.828,3.828,0,0,1,2.04,1.033,26.266,26.266,0,0,1,.067,3.072c.015.649-.006,1.3.006,1.947.017.925.275,1.189,1.217,1.2,1.825.017,3.65.005,5.475.005H72.479c.252,0,.5.009.755-.011.673-.053.936-.313.981-.98.024-.355,0-.712.013-1.067a1.289,1.289,0,0,1,.164-.785.956.956,0,0,1,1.078,0,4.48,4.48,0,0,1-.031,2.831,2.1,2.1,0,0,1-1.867,1.393,8.084,8.084,0,0,1-.944.023H19.7a8.712,8.712,0,0,1-.882-.02,2.241,2.241,0,0,1-2.053-2.042,6.771,6.771,0,0,1-.02-.691q0-12.764,0-25.528c0-.368-.083-.763.2-1.082" transform="translate(-13.924 -159.453)" fill="#f1f1f1"/>
    <path id="Trazado_247874" data-name="Trazado 247874" d="M119.548,213.183l-1.975-.88c-.257-.224-.209-.531-.214-.817-.013-.834.01-1.669-.01-2.5s-.285-1.119-1.147-1.128c-1.923-.021-3.847,0-5.771-.012-.325,0-.678.072-.944-.213a24.754,24.754,0,0,1-2.521-1.971c.266-.287.621-.217.947-.218,2.6-.008,5.21,0,7.814,0a6.1,6.1,0,0,0,.818-.029.825.825,0,0,0,.776-.774,4.581,4.581,0,0,0,.028-.628q0-4.4,0-8.8c0-1.21-.22-1.433-1.432-1.434q-9.2-.007-18.4-.007c-.386,0-.807.107-1.137-.217l-1.132-1.97c.167-.007.335-.02.5-.021h44.488c.168,0,.335.013.5.02a1.063,1.063,0,0,1,.206.828q.008,11.739,0,23.478a1.04,1.04,0,0,1-.207.827h-.983c-.326-.329-.219-.749-.219-1.134q-.011-10-.005-20c0-1.723-.086-1.808-1.814-1.808H121.461c-.252,0-.5-.011-.756.013a.865.865,0,0,0-.914.915,7.836,7.836,0,0,0-.017.817q0,8.3-.005,16.6c0,.365.094.764-.22,1.071" transform="translate(-79.237 -159.351)" fill="#fefefe"/>
    <path id="Trazado_247875" data-name="Trazado 247875" d="M15.072,59.882c-.088.713.16,1.406.123,2.115-.2.191-.437.072-.659.061a3.877,3.877,0,0,0-3.391,6.379,3.905,3.905,0,0,0,4.3,1.056c.241-.088.464-.3.758-.163.211.839.417,1.679.635,2.515a1,1,0,0,0,.269.608Q13.449,76.13,9.792,79.81a.794.794,0,0,1-.7.17c-.684-.034-1.6.3-1.985-.13-.338-.376-.1-1.273-.1-1.941q0-6.474,0-12.949c0-1.044,0-1.044-1.009-1.1V61.894C7,61.841,7,61.841,7,60.8c0-.939,0-.941.959-.938q3.555.009,7.11.021" transform="translate(-4.986 -49.798)" fill="#85b638"/>
    <path id="Trazado_247876" data-name="Trazado 247876" d="M71.35,216.717V191.584c1.012-.052,1.012-.052,1.012.921q0,12.892,0,25.784c0,2.3-1.175,3.462-3.5,3.462q-26.751,0-53.5.025a3.327,3.327,0,0,1-3.526-3.548c.066-8.573.027-17.147.027-25.721,0-.974,0-.974,1.01-.922q0,13.516,0,27.032A2,2,0,0,0,15,220.743q27.12,0,54.24,0a2.033,2.033,0,0,0,2.116-2.078c0-.65,0-1.3,0-1.949" transform="translate(-9.846 -159.364)" fill="#ddd"/>
    <path id="Trazado_247877" data-name="Trazado 247877" d="M190.536,5.978h1.975c.052,1.008.052,1.008,1.094,1.008,7.447,0,14.9.06,22.342-.034,2.463-.031,4.117,1.317,3.789,4.056a2.676,2.676,0,0,1-1.977.07c-.326-.378-.175-.836-.206-1.262-.041-.586-.086-.629-.813-.63s-.787.042-.83.613c-.032.427.112.884-.194,1.271a3.311,3.311,0,0,1-1.981.013c-.292-.288-.205-.662-.214-1.008-.021-.864-.035-.887-.81-.889-.8,0-.817.026-.837.862-.008.348.073.718-.191,1.022a3.312,3.312,0,0,1-1.981.014c-.339-.371-.187-.831-.216-1.255-.041-.6-.088-.648-.862-.643-.7,0-.748.048-.782.659-.023.408.1.839-.177,1.213a1.488,1.488,0,0,1-.855.145q-7.233,0-14.465,0a2.706,2.706,0,0,1-3.029-2.732,9,9,0,0,1-.3-1.461c.145-.007.291-.02.437-.022,1.031-.008,1.031-.007,1.084-1.008" transform="translate(-157.241 -4.973)" fill="#a7e446"/>
    <path id="Trazado_247878" data-name="Trazado 247878" d="M188.205,11.1h2.033a2.435,2.435,0,0,1,2,0h2.033a2.435,2.435,0,0,1,2,0l2,0c-.006.646.227,1.468-.085,1.887-.3.4-1.174.123-1.794.123q-13.131.012-26.261.006c-1.048,0-1.048,0-1.1,1.009h-1.975c-.052-1.009-.052-1.009-1.1-1.009-.937,0-.937,0-.937-.966,0-.733,0-1.466,0-2.2a5.066,5.066,0,0,0-1.8-3.856l3.8,0a2.4,2.4,0,0,1,.014.5c-.077.438.154.537.52.514a2.539,2.539,0,0,1,.493,1.52,2.465,2.465,0,0,0,2.542,2.478q7.807.011,15.614,0a2.435,2.435,0,0,1,2,0" transform="translate(-135.78 -5.069)" fill="#85b638"/>
    <path id="Trazado_247879" data-name="Trazado 247879" d="M50.6,147.982a12.528,12.528,0,0,0,.989,2.811c.338.849.778,1.658,1.172,2.484H45.394l5.207-5.295" transform="translate(-37.763 -123.106)" fill="#12a22c"/>
    <path id="Trazado_247880" data-name="Trazado 247880" d="M39.9,21.986c-1.47.007-2.94.019-4.41.02q-9.043,0-18.086,0c-.231,0-.461-.013-.692-.02a6.514,6.514,0,0,1,.136-4.1A1.926,1.926,0,0,1,18.514,16.8a7.136,7.136,0,0,1,.818-.025H37.274a5.749,5.749,0,0,1,.942.041,2.147,2.147,0,0,1,1.83,1.826,18.908,18.908,0,0,1,.025,2.949.552.552,0,0,1-.175.393" transform="translate(-13.682 -13.957)" fill="#f1f1f1"/>
    <path id="Trazado_247881" data-name="Trazado 247881" d="M36.174,17.968c0-.984.008-1.968,0-2.952a1.966,1.966,0,0,0-2.059-2.056q-9.535-.007-19.071,0a1.966,1.966,0,0,0-2.059,2.056c-.008.984,0,1.968,0,2.952-1.011.053-1.011.053-1.01-.919,0-.712-.012-1.424,0-2.135a2.986,2.986,0,0,1,2.976-2.956q9.721-.022,19.442,0a2.821,2.821,0,0,1,2.781,2.767c.022.878-.032,1.76.018,2.636.031.532-.131.723-.649.629a3.06,3.06,0,0,0-.376-.023" transform="translate(-9.959 -9.939)" fill="#ddd"/>
    <path id="Trazado_247882" data-name="Trazado 247882" d="M36.106,79.31a4.051,4.051,0,0,1-5.852-1.861,4.029,4.029,0,0,1,4.468-5.518c.123.021.248.031.372.046a4.032,4.032,0,0,1,2.887,4.033,3.988,3.988,0,0,1-1.875,3.3" transform="translate(-24.886 -59.778)"/>
    <path id="Trazado_247883" data-name="Trazado 247883" d="M288.475,71.784c1.993,0,3.986.011,5.979-.009.407,0,.524.1.522.515-.006,1.507.011,1.507-1.469,1.507-3.692,0-7.385-.009-11.077.011-.466,0-.6-.1-.587-.58.027-1.444,0-1.444,1.471-1.444h5.161" transform="translate(-234.465 -59.709)"/>
    <path id="Trazado_247884" data-name="Trazado 247884" d="M160.931,71.793c1.531,0,3.062.01,4.593-.008.35,0,.453.089.459.448.025,1.572.038,1.572-1.528,1.572-2.663,0-5.327-.012-7.99.011-.464,0-.6-.1-.589-.578.027-1.445,0-1.446,1.468-1.446h3.586" transform="translate(-129.674 -59.718)"/>
    <path id="Trazado_247885" data-name="Trazado 247885" d="M132.974,71.831c1.006,0,1.006,0,1.006,1.008s0,1-1.01,1-1.006,0-1.006-1.008,0-1,1.01-1" transform="translate(-109.781 -59.756)"/>
    <path id="Trazado_247886" data-name="Trazado 247886" d="M239.807,223.141c.007-2.345.018-4.691.021-7.036q.005-5.592,0-11.185c0-1.1.3-1.4,1.426-1.4H258.57c1.121,0,1.424.3,1.424,1.4q0,10.525,0,21.05c0,.23.013.46.02.69-.007.627-.008,1.255-.023,1.882a1.016,1.016,0,0,1-1.121,1.135q-8.964.009-17.929,0a1.009,1.009,0,0,1-1.112-1.141c-.015-1.8-.017-3.6-.024-5.4" transform="translate(-199.495 -169.309)"/>
    <path id="Trazado_247887" data-name="Trazado 247887" d="M37.1,203.4c1.888.007,3.775.018,5.663.02q7.081,0,14.161,0c1.027,0,1.349.322,1.349,1.35q0,4.679,0,9.358c0,1.056-.318,1.363-1.4,1.366l-9.187.021c-2.161-.007-4.322-.019-6.483-.02q-7.9,0-15.8,0c-1.112,0-1.412-.3-1.412-1.415q0-4.618,0-9.235c0-1.123.3-1.422,1.4-1.424L37.1,203.4" transform="translate(-19.959 -169.207)"/>
    <path id="Trazado_247888" data-name="Trazado 247888" d="M140.028,287.2q3.386.01,6.772.021c.943,0,1.286.343,1.293,1.274q.012,1.689.021,3.378-.01,3.046-.021,6.092c0,.991-.332,1.329-1.309,1.33q-6.767,0-13.534,0c-.944,0-1.288-.343-1.289-1.285q0-4.743,0-9.486c0-.976.335-1.3,1.333-1.3l6.734-.02" transform="translate(-109.777 -238.926)"/>
    <path id="Trazado_247889" data-name="Trazado 247889" d="M31.99,299.4q-3.337,0-6.674,0c-.989,0-1.325-.332-1.326-1.311q0-4.744,0-9.488c0-.936.345-1.274,1.3-1.274q6.769,0,13.537,0c.949,0,1.294.34,1.3,1.279q0,4.775,0,9.551c0,.894-.358,1.242-1.268,1.243q-3.432.005-6.863,0" transform="translate(-19.956 -239.022)"/>
    <path id="Trazado_247890" data-name="Trazado 247890" d="M349.915,25.792h-2c0-.167-.007-.333-.008-.5,0-1.593,0-1.584,1.635-1.513.3.013.4.086.387.388-.024.541-.011,1.083-.014,1.625" transform="translate(-289.424 -19.762)"/>
    <path id="Trazado_247891" data-name="Trazado 247891" d="M325.921,25.792h-2c0-.167-.007-.333-.008-.5,0-1.593,0-1.584,1.635-1.513.3.013.4.086.387.388-.024.541-.011,1.083-.014,1.625" transform="translate(-269.463 -19.762)"/>
    <path id="Trazado_247892" data-name="Trazado 247892" d="M301.928,25.792h-2c0-.167-.007-.333-.008-.5,0-1.593,0-1.584,1.635-1.513.3.013.4.086.387.388-.024.541-.011,1.083-.014,1.625" transform="translate(-249.503 -19.762)"/>
    <path id="Trazado_247893" data-name="Trazado 247893" d="M32.446,25.9c-2.667,0-5.334-.009-8,.01-.409,0-.52-.1-.517-.513.009-1.509-.008-1.509,1.526-1.509,5.019,0,10.038.007,15.057-.012.469,0,.592.106.582.578-.029,1.445-.006,1.446-1.465,1.446H32.446" transform="translate(-19.906 -19.86)"/>
    <path id="Trazado_247894" data-name="Trazado 247894" d="M139.979,24.951c0,1,0,1-1.01,1s-1.006,0-1.006-1.008,0-1,1.01-1,1.006,0,1.006,1.008" transform="translate(-114.771 -19.918)"/>
    <path id="Trazado_247895" data-name="Trazado 247895" d="M46.033,85.8a2.014,2.014,0,1,1-2.021-1.987A2.02,2.02,0,0,1,46.033,85.8" transform="translate(-34.944 -69.726)" fill="#fede63"/>
    <path id="Trazado_247896" data-name="Trazado 247896" d="M251.907,233.811c-.007-2.221-.018-4.442-.02-6.663,0-3.73.005-7.461-.01-11.191,0-.4.095-.523.514-.522q7.56.022,15.121,0c.337,0,.52.015.519.452q-.024,10.28-.014,20.559a.884.884,0,0,1-.018.124,2.637,2.637,0,0,1-1.715.177,47.427,47.427,0,0,1-7.238-.833c-.224-.047-.59.045-.589-.381a1.393,1.393,0,0,1,.909-.163c1.866-.006,3.732,0,5.6-.009.275,0,.644.106.77-.252a1.835,1.835,0,0,0-.007-1.173c-.042-.13-.192-.147-.318-.167a2.862,2.862,0,0,0-.439-.02q-5,0-10,0c-.448,0-.85.027-.949.576-.051.1-.13.192-.236.179a2.789,2.789,0,0,1-1.878-.7" transform="translate(-209.537 -179.22)" fill="#f2fbe3"/>
    <path id="Trazado_247897" data-name="Trazado 247897" d="M251.872,324.751a13.255,13.255,0,0,0,1.975.626c.032.027.074.05.09.086.365.851.364.851,1.331.852.795,0,1.59-.007,2.384,0,.266,0,.552-.031.755.211,1.081.2,2.155.464,3.245.587a47.092,47.092,0,0,0,6.311.4c.053,1.007.053,1.007-.93,1.007-4.848,0-9.7-.009-14.544.013-.518,0-.679-.112-.652-.644.052-1.044.027-2.093.034-3.139" transform="translate(-209.502 -270.16)" fill="#e0f6be"/>
    <path id="Trazado_247898" data-name="Trazado 247898" d="M55.219,223.476q-5.573.01-11.145.02c-2.54,0-5.08-.009-7.62.01-.41,0-.524-.106-.521-.518.02-2.346.011-4.693.008-7.039,0-.279-.046-.514.393-.512,4.03.023,8.06.023,12.09.03.317.13.435.441.617.689a48.4,48.4,0,0,0,5.686,6.575c.213.2.532.364.493.745" transform="translate(-29.892 -179.223)" fill="#85b638"/>
    <path id="Trazado_247899" data-name="Trazado 247899" d="M117.035,223.472c-1.1-1.2-2.323-2.288-3.376-3.538a42.9,42.9,0,0,1-3.42-4.471l12.409-.02c1.617,0,3.234.014,4.851-.01.413-.006.522.108.518.518-.02,2.347-.011,4.694-.008,7.041,0,.278.05.513-.392.51-3.527-.024-7.055-.023-10.582-.03" transform="translate(-91.708 -179.218)" fill="#a7e446"/>
    <path id="Trazado_247900" data-name="Trazado 247900" d="M144.125,311.172v-6.114l1.751,1.248,1.843,1.313c.695.495.695.494-.026,1.008l-3.568,2.545" transform="translate(-119.898 -253.778)" fill="#f1f1f1"/>
    <path id="Trazado_247901" data-name="Trazado 247901" d="M195.147,305v6.014c-.2.079-.3-.1-.418-.184-1.179-.831-2.351-1.672-3.527-2.508-.2-.14-.411-.234-.065-.476,1.316-.917,2.617-1.855,4.01-2.846" transform="translate(-158.854 -253.731)" fill="#f1f1f1"/>
    <path id="Trazado_247902" data-name="Trazado 247902" d="M156.913,299.428h7.738c-.791.57-1.48,1.077-2.18,1.569-.561.394-1.128,1.059-1.7,1.07-.54.011-1.1-.674-1.642-1.059-.7-.495-1.394-1-2.212-1.58" transform="translate(-130.536 -249.094)" fill="#fefefe"/>
    <path id="Trazado_247903" data-name="Trazado 247903" d="M164.693,333.635h-7.739c1.3-.928,2.5-1.779,3.694-2.639.155-.112.257-.065.386.027,1.182.847,2.366,1.69,3.659,2.612" transform="translate(-130.57 -275.301)" fill="#fefefe"/>
    <path id="Trazado_247904" data-name="Trazado 247904" d="M36.221,305.091c1.375.981,2.694,1.932,4.025,2.866.269.189.135.272-.037.394-1.311.931-2.621,1.865-3.988,2.839Z" transform="translate(-30.132 -253.805)" fill="#f1f1f1"/>
    <path id="Trazado_247905" data-name="Trazado 247905" d="M87.305,305.009v6c-.145.122-.224-.036-.307-.094-1.2-.844-2.38-1.7-3.581-2.54-.313-.217-.41-.328-.024-.593,1.289-.885,2.552-1.806,3.912-2.774" transform="translate(-69.165 -253.737)" fill="#f1f1f1"/>
    <path id="Trazado_247906" data-name="Trazado 247906" d="M48.948,299.432H56.7c-1.3.93-2.5,1.777-3.69,2.638-.189.137-.3.046-.438-.052l-3.622-2.586" transform="translate(-40.72 -249.097)" fill="#fefefe"/>
    <path id="Trazado_247907" data-name="Trazado 247907" d="M57.2,333.7h-7.68a1.9,1.9,0,0,1,.656-.551c.93-.675,1.87-1.336,2.805-2,.169-.121.3-.255.541-.078,1.172.856,2.358,1.692,3.678,2.634" transform="translate(-41.192 -275.342)" fill="#fefefe"/>
    <path id="Trazado_247908" data-name="Trazado 247908" d="M268.308,325.217c-1.259-.007-2.519-.054-3.776,0-.63.025-.887-.137-.768-.774a1.622,1.622,0,0,0-.016-.375c.046-.88.046-.88.969-.88,3.525,0,7.05.009,10.575-.011.462,0,.6.1.59.577-.028,1.446,0,1.444-1.469,1.447q-3.052.007-6.1.021" transform="translate(-219.402 -268.847)"/>
    <path id="Trazado_247909" data-name="Trazado 247909" d="M269.859,301.251c-1.825,0-3.65-.012-5.475.01-.408,0-.523-.1-.522-.515.006-1.507-.011-1.507,1.469-1.507,3.356,0,6.713.01,10.069-.012.467,0,.6.105.587.58-.027,1.444,0,1.444-1.471,1.444h-4.657" transform="translate(-219.508 -248.927)"/>
    <path id="Trazado_247910" data-name="Trazado 247910" d="M269.908,251.361c1.846,0,3.692.012,5.538-.009.4,0,.526.093.525.512-.006,1.51.011,1.51-1.529,1.51-3.335,0-6.671-.01-10.006.011-.462,0-.6-.1-.59-.577.028-1.446,0-1.447,1.468-1.447h4.594" transform="translate(-219.493 -209.1)"/>
    <path id="Trazado_247911" data-name="Trazado 247911" d="M280.91,277.306c-1.51,0-3.02-.014-4.53.01-.408.007-.523-.1-.521-.515.006-1.507-.011-1.507,1.468-1.507,2.684,0,5.369.012,8.053-.012.467,0,.6.106.586.58-.027,1.444,0,1.444-1.47,1.444H280.91" transform="translate(-229.487 -229.007)"/>
    <path id="Trazado_247912" data-name="Trazado 247912" d="M291.966,227.425c1.174,0,2.348.013,3.522-.008.354-.006.451.1.456.451.024,1.57.037,1.57-1.529,1.57-2.013,0-4.025-.011-6.038.01-.409,0-.522-.1-.521-.515.006-1.507-.011-1.507,1.467-1.507h2.642" transform="translate(-239.468 -189.188)"/>
    <path id="Trazado_247913" data-name="Trazado 247913" d="M264.9,229.477c-.971,0-.971,0-.971-.981,0-1.032,0-1.032,1.045-1.032.971,0,.971,0,.971.981,0,1.032,0,1.032-1.045,1.032" transform="translate(-219.562 -189.228)"/>
  </g>
</svg>
