<svg id="Grupo_148687" data-name="Grupo 148687" xmlns="http://www.w3.org/2000/svg" xmlns:xlink="http://www.w3.org/1999/xlink" width="64.115" height="64.106" viewBox="0 0 64.115 64.106">
  <defs>
    <clipPath id="clip-path">
      <rect id="Rectángulo_89980" data-name="Rectángulo 89980" width="64.115" height="64.106" fill="none"/>
    </clipPath>
  </defs>
  <g id="Grupo_148686" data-name="Grupo 148686" transform="translate(0 0)" clip-path="url(#clip-path)">
    <path id="Trazado_247914" data-name="Trazado 247914" d="M31.469,0h1.251a3.734,3.734,0,0,1,3.11,2.179c1.156,1.978,2.307,3.959,3.43,5.956a1.244,1.244,0,0,0,1.249.7q9.623-.024,19.247-.008a4.261,4.261,0,0,1,4.029,2.364,6.3,6.3,0,0,1,.33,1.441v.125a1.279,1.279,0,0,0-.061.674q-.005,18.214,0,36.427a1.279,1.279,0,0,0,.061.674v.375a4,4,0,0,1-2.968,3.422,4.415,4.415,0,0,1-1.423.15H40.837c-.188,0-.375,0-.563,0-.992.005-.968.028-.908,1.039.1,1.685.194,3.369.426,5.042.2,1.408.194,1.406,1.612,1.409.563,0,1.126-.025,1.688.02a1.12,1.12,0,0,1,1.059.745A.988.988,0,0,1,43.3,64.1a4.2,4.2,0,0,1-.438,0H21.29c-.441,0-.887.022-1.164-.427A1.1,1.1,0,0,1,20.989,62a16.122,16.122,0,0,1,1.812-.035c1.352-.032,1.338.278,1.6-1.41.278-1.816.318-3.651.471-5.477.032-.386-.111-.6-.519-.6-.229,0-.459-.005-.688-.005q-9.694,0-19.388,0a4.113,4.113,0,0,1-3.986-2.6A4.018,4.018,0,0,1,.018,50.16C.011,37.819.03,25.477,0,13.136A4.279,4.279,0,0,1,4.414,8.8c6.254.026,12.508-.012,18.762.032A1.826,1.826,0,0,0,25.181,7.67a1.309,1.309,0,0,1,1.449-.944c.888.336,1.1.944.594,1.832q-1.236,2.174-2.5,4.334Q19.681,21.6,14.664,30.327c-.332.578-.693,1.14-1,1.73a1.928,1.928,0,0,0,1.376,2.992,2.479,2.479,0,0,0,.746.054H48.407c.146,0,.292,0,.437-.008a1.95,1.95,0,0,0,1.672-3.007c-1.013-1.844-2.092-3.651-3.143-5.473Q40.862,15.33,34.35,4.044c-.186-.325-.371-.652-.585-.961a1.889,1.889,0,0,0-2.643-.759,5.6,5.6,0,0,0-1.458,2,1.151,1.151,0,0,1-1.6.628,1.135,1.135,0,0,1-.321-1.686c.273-.489.569-.966.863-1.443A3.572,3.572,0,0,1,31.469,0" transform="translate(0 0)"/>
    <path id="Trazado_247915" data-name="Trazado 247915" d="M126.44,62.963c-.224-.151-.121-.381-.121-.573q-.008-18.315,0-36.629c0-.191-.106-.422.121-.572Z" transform="translate(-62.326 -12.431)" fill="#464646"/>
    <path id="Trazado_247916" data-name="Trazado 247916" d="M52.6,59.162a.983.983,0,0,0-.91.776c-.045.093-.1.206-.2.218a4.727,4.727,0,0,1-2.4-.092c-.162-.685-.606-.893-1.288-.893q-17.728.02-35.457.021c-.546,0-.728-.1-.726-.7q.032-13.788.015-27.577c0-.9.051-.954.956-.954H26.1c.687,0,.689,0,.351.589q-4.4,7.62-8.793,15.241a3.938,3.938,0,0,0,2.219,5.941,5.057,5.057,0,0,0,1.422.17q16.54,0,33.08,0c3.518,0,5.325-3.172,3.562-6.233q-4.345-7.542-8.7-15.077c-.1-.17-.281-.315-.239-.55a1.267,1.267,0,0,1,.614-.054q6.125,0,12.251,0c.723,0,.777.053.808.765.008.187,0,.375,0,.563q0,13.25,0,26.5c0,1.31,0,1.31-1.329,1.31q-4.031,0-8.063,0a2.344,2.344,0,0,0-.683.034" transform="translate(-5.734 -14.786)" fill="#c7eefd"/>
    <path id="Trazado_247917" data-name="Trazado 247917" d="M39.706,9.064,40.93,7.01c.809.166,1.016.048,1.472-.671.427-.674.641-1.506,1.4-1.943.355-.143.541.126.738.323a8.322,8.322,0,0,1,1.2,1.822q6.915,12,13.849,23.991c.8,1.389,1.643,2.758,2.375,4.188a2.928,2.928,0,0,1,.35,1.872c-.111.636-.261.764-.906.764q-4.815,0-9.631,0-11.664,0-23.328,0a1.977,1.977,0,0,1-.681-.039A2.013,2.013,0,0,1,26.308,34.2c1.1-1.955,2.24-3.893,3.363-5.838Q34.787,19.507,39.9,10.647c.423-.732.382-1.025-.2-1.583" transform="translate(-12.826 -2.15)" fill="#fcb341"/>
    <path id="Trazado_247918" data-name="Trazado 247918" d="M61.641,96.569c-.228.008-.457.023-.686.023q-27.173,0-54.346.024a2.455,2.455,0,0,1-2.743-2.751c.065-1,.024-2,.006-3-.006-.319.075-.471.414-.428a3.5,3.5,0,0,0,.438,0q19.574,0,39.149.008c.679,0,1.19-.158,1.387-.873a15.77,15.77,0,0,1,2.376-.051c.114,0,.179.082.227.177.206.632.693.745,1.283.744q6.342-.013,12.684,0c.228,0,.457.014.685.022a.858.858,0,0,1,.185.641c.005,1.163.042,2.328-.014,3.489a2,2,0,0,1-1.045,1.976" transform="translate(-1.904 -44.169)" fill="#d8e6eb"/>
    <path id="Trazado_247919" data-name="Trazado 247919" d="M25.43,21.462c-.463.8-.867,1.475-1.248,2.164-.176.318-.456.237-.714.237q-7.345.005-14.691.006a4.926,4.926,0,0,0-.869.062,2.218,2.218,0,0,0-1.961,2.29c-.016,1.625-.006,3.251-.006,4.876V54.165c0,.81,0,.81-.815.811-1.262,0-1.262,0-1.262-1.281,0-9.835.019-19.671-.018-29.507A2.515,2.515,0,0,1,6.614,21.44c6,.059,12,.022,18,.022Z" transform="translate(-1.899 -10.58)" fill="#596b75"/>
    <path id="Trazado_247920" data-name="Trazado 247920" d="M29.494,36.994c.27-.006.541-.017.812-.017H62.868c.887,0,.987-.093,1.04-.98a4.176,4.176,0,0,0-.788-2.328q-3.459-6.026-6.948-12.035Q52.8,15.809,49.42,9.99c-.948-1.636-1.884-3.277-2.836-4.91a2.053,2.053,0,0,0-1.055-1.006,2,2,0,0,1,2.97.769c1.458,2.5,2.9,5.01,4.342,7.515Q58.976,22.982,65.114,33.6a2.594,2.594,0,0,1,.451,1.59,2.046,2.046,0,0,1-1.516,1.786,4.218,4.218,0,0,1-1.055.093q-16.351,0-32.7,0a1.6,1.6,0,0,1-.8-.075" transform="translate(-14.555 -1.827)" fill="#fda513"/>
    <path id="Trazado_247921" data-name="Trazado 247921" d="M62.887,110.692a48.528,48.528,0,0,0,.627,5.6H51.8a48.8,48.8,0,0,0,.627-5.606c.1-.942.1-.947,1.092-.948q4.14,0,8.28,0c.987,0,.987.007,1.09.949" transform="translate(-25.562 -54.156)" fill="#c4d2dc"/>
    <path id="Trazado_247922" data-name="Trazado 247922" d="M99.813,25.732a2.448,2.448,0,0,0-2.632-1.849c-4.919,0-9.838-.01-14.757.011a1.009,1.009,0,0,1-1.065-.632c-.276-.576-.626-1.116-.938-1.661.143-.182.3-.12.433-.12q9.129-.006,18.259,0c.1,0,.208.011.312.017.718.3.873.959,1.026,1.611a4.6,4.6,0,0,1,.052,1.059q0,14.749,0,29.5a3.321,3.321,0,0,1-.069.993.319.319,0,0,1-.364.266c-.2-.025-.2-.178-.2-.327,0-.167,0-.333,0-.5q0-13.812,0-27.624a1.9,1.9,0,0,0-.048-.742" transform="translate(-39.687 -10.596)" fill="#586b75"/>
    <path id="Trazado_247923" data-name="Trazado 247923" d="M118.328,25.754c.2.236.112.519.112.78q.008,13.717,0,27.433a2.427,2.427,0,0,0,0,.374c.029.184-.113.508.185.5s.177-.327.177-.512q.009-6.937.005-13.873c0-5.5-.011-11,.01-16.5a3.405,3.405,0,0,0-.887-2.444,2.234,2.234,0,0,1,2.483,2.342q.013,15.309.012,30.619c0,.392-.09.542-.517.548-1.586.02-1.586.036-1.586-1.528q0-13.872,0-27.744" transform="translate(-58.202 -10.618)" fill="#465a60"/>
    <path id="Trazado_247924" data-name="Trazado 247924" d="M89.015,59.137c.2-.165.441-.091.663-.091,2.834-.006,5.669-.016,8.5.007.52,0,.72-.093.719-.676q-.029-13.849,0-27.7c0-.524-.151-.664-.667-.662-4.272.015-8.545,0-12.817,0,.153-.169.353-.081.527-.081q6.783-.006,13.567,0c.867,0,.931.063.931.917q0,13.849.012,27.7c0,.5-.134.618-.621.614-3.6-.027-7.209-.024-10.814-.03" transform="translate(-42.151 -14.762)" fill="#98e5fb"/>
    <path id="Trazado_247925" data-name="Trazado 247925" d="M63.484,109.345c-.029-.71-.458-.77-1.063-.763q-4.167.049-8.336,0c-.6-.007-1.034.05-1.064.762.047-.722-.153-1.632.212-2.11.324-.423,1.286-.115,1.964-.119,2.557-.015,5.114,0,7.67-.014.384,0,.558.072.547.5-.015.579.043,1.161.069,1.741" transform="translate(-26.159 -52.809)" fill="#b5c3ce"/>
    <path id="Trazado_247926" data-name="Trazado 247926" d="M117.939,97.472a3.112,3.112,0,0,0,.884-2.491c-.033-1.2-.01-2.41-.01-3.616,1.6-.094,1.6-.094,1.6,1.5,0,.766.012,1.533,0,2.3a2.209,2.209,0,0,1-2.475,2.306" transform="translate(-58.202 -45.071)" fill="#c4d2dc"/>
    <path id="Trazado_247927" data-name="Trazado 247927" d="M88.2,89.523a10.778,10.778,0,0,0-2.6-.126c0-.043,0-.085,0-.128a10.755,10.755,0,0,0,2.6-.126l0,.38" transform="translate(-42.241 -43.991)" fill="#a2bac3"/>
    <path id="Trazado_247928" data-name="Trazado 247928" d="M57.383,24.59c0-1.645-.009-3.29,0-4.934a3.054,3.054,0,1,1,6.106-.056q.047,5,0,9.993a3.06,3.06,0,0,1-6.011.858,3.823,3.823,0,0,1-.1-1.052c0-1.6,0-3.206,0-4.809" transform="translate(-28.316 -8.136)"/>
    <path id="Trazado_247929" data-name="Trazado 247929" d="M60.137,58.194a3.238,3.238,0,0,1-3.2-3.3,3.253,3.253,0,1,1,6.506.114,3.235,3.235,0,0,1-3.31,3.187" transform="translate(-28.1 -25.507)"/>
    <path id="Trazado_247930" data-name="Trazado 247930" d="M60.316,97.44c-.644,0-1.289.007-1.933,0-.669-.009-1.086-.379-1.08-.943a.947.947,0,0,1,1.037-.927q2.027-.018,4.054,0a.951.951,0,0,1,1.049.916c.013.564-.4.945-1.068.954-.686.009-1.372,0-2.058,0" transform="translate(-28.278 -47.158)"/>
    <path id="Trazado_247931" data-name="Trazado 247931" d="M62,32.644a1.011,1.011,0,0,1-.887-1.1q-.013-5.077,0-10.154A1.053,1.053,0,0,1,62,20.283c.5.275.513.782.551,1.25.057.7.02,1.414.02,2.121,0,2.455.012,4.909-.007,7.364,0,.592.032,1.227-.564,1.627" transform="translate(-30.156 -10.01)" fill="#596b75"/>
    <path id="Trazado_247932" data-name="Trazado 247932" d="M62.87,32.637a3.088,3.088,0,0,0,.377-1.554q-.008-4.658,0-9.316a2.918,2.918,0,0,0-.375-1.491c.944-.066,1.462.323,1.47,1.25q.04,4.935,0,9.87a1.158,1.158,0,0,1-1.468,1.241" transform="translate(-31.026 -10.003)" fill="#455960"/>
    <path id="Trazado_247933" data-name="Trazado 247933" d="M61.11,57.8a1.273,1.273,0,0,1-.272-1.676,1.353,1.353,0,0,1,1.672-.573,1.771,1.771,0,0,1-1.4,2.249" transform="translate(-29.922 -27.378)" fill="#586b75"/>
    <path id="Trazado_247934" data-name="Trazado 247934" d="M61.573,57.868a2.222,2.222,0,0,0,1.4-2.249,1.352,1.352,0,1,1-1.4,2.249" transform="translate(-30.386 -27.448)" fill="#465960"/>
  </g>
</svg>
