<svg id="Grupo_148691" data-name="Grupo 148691" xmlns="http://www.w3.org/2000/svg" xmlns:xlink="http://www.w3.org/1999/xlink" width="58.051" height="64.105" viewBox="0 0 58.051 64.105">
  <defs>
    <clipPath id="clip-path">
      <rect id="Rectángulo_89982" data-name="Rectángulo 89982" width="58.051" height="64.105" fill="none"/>
    </clipPath>
  </defs>
  <g id="Grupo_148690" data-name="Grupo 148690" clip-path="url(#clip-path)">
    <path id="Trazado_247970" data-name="Trazado 247970" d="M8.634,63.994a8.787,8.787,0,0,1-7.379-7.3,20.683,20.683,0,0,1-.094-3.373,2.138,2.138,0,0,1,2.147-2.1c2.043-.03,4.087-.009,6.131-.01a1.045,1.045,0,0,1,1.091.986c.129.589-.245.834-.705,1a2.549,2.549,0,0,1-.869.074c-1.648,0-3.3-.007-4.943,0-.723,0-.781.081-.806.786a7.924,7.924,0,0,0,1.08,4.863,6.438,6.438,0,0,0,5.56,3.088c10.8.037,21.6.014,32.407.016a.451.451,0,0,0,.285-.063c-.049-.17-.2-.273-.324-.394a8.948,8.948,0,0,1-2.584-6.26c-.013-.417.006-.834,0-1.251-.018-.7-.093-.769-.812-.786-.208,0-.417,0-.626,0H14.478a4.526,4.526,0,0,1-1.059-.056.872.872,0,0,1-.762-1.016c.263-.839.458-.985,1.34-.987.959,0,1.919-.013,2.878.007.322.007.422-.074.421-.41-.012-4.567-.007-9.135-.012-13.7,0-.152.055-.308-.118-.45a31.438,31.438,0,0,1-3.248-3.456Q7.312,25.9.746,18.553A1.938,1.938,0,0,1,.909,15.38q1.026-.918,2.046-1.84a1.912,1.912,0,0,1,3.087.157q5.438,6.046,10.87,12.1c.092.1.186.2.375.409v-.79c0-7.508.022-15.017-.02-22.524A2.725,2.725,0,0,1,18.915,0H56.223a2.255,2.255,0,0,1,1.815,2.477c.016,2.959.005,5.919,0,8.878,0,.959.022,1.918-.01,2.876-.027.8-.288,1.094-1.074,1.308A1.14,1.14,0,0,1,55.8,14.4a7.4,7.4,0,0,1-.02-.812q0-5.248,0-10.5c0-.981-.037-1.01-1.02-1.017-.458,0-.917.018-1.374-.013-5.257.018-10.514.005-15.77.008q-8.48,0-16.96,0c-.229,0-.459.007-.688,0-.421,0-.607.205-.6.616,0,.188,0,.375,0,.563q0,11.954-.011,23.908a2.406,2.406,0,0,0,.7,1.848c.67.682,1.3,1.41,1.926,2.137a2.191,2.191,0,0,1,.6,1.08,18.555,18.555,0,0,0,1.1,3.45,11.591,11.591,0,0,1,.446,1.368,1.578,1.578,0,0,1-.542,1.634,1.49,1.49,0,0,1-1.638.265c-.631-.274-1.256-.563-1.881-.851-.657-.3-.7-.284-.7.429q0,3.911,0,7.823c0,1.252,0,2.5,0,3.755,0,.884.032.917.913.917q8.824,0,17.648,0c.5,0,1-.016,1.5.009a2.442,2.442,0,0,1,2.47,2.523,19.567,19.567,0,0,0,.1,2.748,6.7,6.7,0,0,0,6.769,5.738c.146,0,.292-.008.438,0A6.742,6.742,0,0,0,55.3,57.8a7.932,7.932,0,0,0,.489-2.755q-.012-12.1,0-24.2c0-.271-.006-.542,0-.813.041-.987.42-1.314,1.437-1.246a1.125,1.125,0,0,1,.806,1.137c.013.229.009.458.009.688,0,8.194.033,16.389-.014,24.584a8.8,8.8,0,0,1-5.471,8.393,5.513,5.513,0,0,1-2.122.455c-.28.031-.571-.066-.845.065H9.275c-.194-.151-.442.011-.64-.111" transform="translate(0)"/>
    <path id="Trazado_247971" data-name="Trazado 247971" d="M122.66,157.271a.112.112,0,0,0-.015.111h-.751a1,1,0,0,1,.766-.111" transform="translate(-72.306 -93.276)" fill="#616161"/>
    <path id="Trazado_247972" data-name="Trazado 247972" d="M21.225,157.265a.687.687,0,0,1,.64.111h-.626a.1.1,0,0,0-.014-.111" transform="translate(-12.59 -93.271)" fill="#636363"/>
    <path id="Trazado_247973" data-name="Trazado 247973" d="M17.05,128.328c.182.707.655.9,1.355.9q11.924-.025,23.848,0c.617,0,1.389-.269,1.814.135s.144,1.188.147,1.8a9.394,9.394,0,0,0,.891,4.117,8.925,8.925,0,0,0,2.347,2.973c-.187.172-.381.094-.553.094q-16.149.007-32.3,0a6.9,6.9,0,0,1-7.182-7.161c0-.417.026-.837-.007-1.251-.044-.542.156-.736.712-.727,1.836.027,3.672-.011,5.508.021a1.135,1.135,0,0,0,1.292-.9H17.05" transform="translate(-4.393 -76.122)" fill="#9bc5da"/>
    <path id="Trazado_247974" data-name="Trazado 247974" d="M77.145,64.933a6.9,6.9,0,0,1-7.5-7.058c0-.48,0-.96,0-1.439a2.235,2.235,0,0,0-2.52-2.488q-4.13,0-8.26,0-5.632,0-11.264.006c-.34,0-.511-.021-.509-.452.018-4.422.011-8.845.011-13.354.837.412,1.64.783,2.42,1.2a1.57,1.57,0,0,0,1.914-.1,1.546,1.546,0,0,0,.309-1.888q-.534-1.465-1.079-2.926a3.313,3.313,0,0,1-.265-1.144,1.915,1.915,0,0,0-.609-1.265c-.8-.88-1.587-1.771-2.393-2.644a1.054,1.054,0,0,1-.3-.776q.013-12.674,0-25.347c0-.421.07-.655.575-.654q16.74.017,33.48.012a.806.806,0,0,1,.123.019c.284.318.2.711.2,1.077q.009,6.913,0,13.825,0,19.111,0,38.222a8.217,8.217,0,0,1-2.76,6.337,2.794,2.794,0,0,1-1.567.844" transform="translate(-27.931 -2.727)" fill="#e2f3fe"/>
    <path id="Trazado_247975" data-name="Trazado 247975" d="M120.975,64.924A7.7,7.7,0,0,0,125,59.105a13.867,13.867,0,0,0,.1-2.114q0-26.186,0-52.371c.646-.007,1.293.015,1.936-.032.563-.041.708.183.7.72-.019,3.857-.011,7.714-.009,11.571,0,.826.181,1.044,1,1.243,0,.551.011,1.1-.009,1.653a.617.617,0,0,0,.257.574c-.013.016-.024.043-.04.047-.97.218-1.051.915-1.031,1.754q.063,2.687,0,5.377a1.8,1.8,0,0,0,.823,1.863c0,.55.011,1.1-.009,1.65a.624.624,0,0,0,.253.576c-.918-.052-1.242.251-1.242,1.186q0,12.538,0,25.077a6.869,6.869,0,0,1-5.335,6.882,4.217,4.217,0,0,1-1.42.163" transform="translate(-71.761 -2.719)" fill="#bcdef3"/>
    <path id="Trazado_247976" data-name="Trazado 247976" d="M24.9,62.52a.857.857,0,0,1-.389.426c-.241.169-.327-.089-.437-.21q-2.245-2.482-4.477-4.976-4.326-4.817-8.646-9.64c-.124-.138-.457-.251-.189-.543.22-.24.384-.425.714-.048,1.552,1.772,3.142,3.512,4.716,5.265q4.18,4.654,8.357,9.311c.124.138.24.283.351.414" transform="translate(-6.324 -28.066)" fill="#9adf57"/>
    <path id="Trazado_247977" data-name="Trazado 247977" d="M29.773,58.126a.856.856,0,0,1-.417.461c-.207.141-.287-.1-.384-.205q-1.765-1.948-3.516-3.908Q20.647,49.118,15.84,43.76c-.17-.189-.5-.33-.112-.683.368-.335.489-.057.672.147Q22.947,50.511,29.491,57.8c.1.107.188.218.282.327" transform="translate(-9.222 -25.46)" fill="#bffd65"/>
    <path id="Trazado_247978" data-name="Trazado 247978" d="M8.563,37.55c-.081.088-.142.166-.214.231-.678.613-1.365,1.216-2.032,1.84-.228.213-.355.157-.552-.045-.89-.909-.9-.9.028-1.74.462-.418.935-.824,1.386-1.254.207-.2.344-.236.541.016.254.326.548.621.844.952" transform="translate(-3.024 -21.605)" fill="#fc4b52"/>
    <path id="Trazado_247979" data-name="Trazado 247979" d="M51.1,87.4l-1.728-.865a5.728,5.728,0,0,1,1.053-.946L51.1,87.4" transform="translate(-29.289 -50.77)" fill="#4c728e"/>
    <path id="Trazado_247980" data-name="Trazado 247980" d="M138.583,52.372c-.816-.2-1-.419-1-1.242q0-3.31,0-6.621c0-.93.325-1.231,1.246-1.178a1.087,1.087,0,0,1,.636,1.112c-.012,2.23-.018,4.46,0,6.69a1.1,1.1,0,0,1-.886,1.239" transform="translate(-81.612 -25.7)"/>
    <path id="Trazado_247981" data-name="Trazado 247981" d="M72.481,14.522h12.2c1.138,0,1.418.274,1.419,1.39q0,2.316,0,4.632c0,1.008-.309,1.325-1.3,1.325q-12.329,0-24.658,0c-.967,0-1.289-.316-1.292-1.264q-.006-2.41,0-4.819c0-.949.322-1.262,1.294-1.263q6.164,0,12.329,0" transform="translate(-34.912 -8.614)"/>
    <path id="Trazado_247982" data-name="Trazado 247982" d="M87.269,82.38h7.574a4.042,4.042,0,0,1,.624.026.917.917,0,0,1,.131,1.768,2.826,2.826,0,0,1-.8.081q-7.512.007-15.023,0c-.991,0-1.467-.321-1.449-.973.017-.628.454-.9,1.434-.9h7.511" transform="translate(-46.46 -48.867)" fill="#010101"/>
    <path id="Trazado_247983" data-name="Trazado 247983" d="M87.216,59.816q-3.844,0-7.687,0c-.786,0-1.216-.342-1.207-.939s.456-.936,1.233-.936q7.719,0,15.437,0c.771,0,1.179.3,1.225.869.051.623-.365,1-1.126,1.006q-3.719.008-7.437,0h-.437" transform="translate(-46.459 -34.367)" fill="#000101"/>
    <path id="Trazado_247984" data-name="Trazado 247984" d="M87.285,106.754h7.563a4.168,4.168,0,0,1,.562.013.852.852,0,0,1,.8.816.883.883,0,0,1-.606.978,1.708,1.708,0,0,1-.678.07q-7.658,0-15.315,0a3.382,3.382,0,0,1-.375-.007.956.956,0,0,1-.912-.995.912.912,0,0,1,.957-.871c.812-.018,1.625-.006,2.438-.007h5.563" transform="translate(-46.462 -63.323)"/>
    <path id="Trazado_247985" data-name="Trazado 247985" d="M64.3,98.314a3.205,3.205,0,0,1-6.411.06,3.205,3.205,0,1,1,6.411-.06" transform="translate(-34.339 -56.421)"/>
    <path id="Trazado_247986" data-name="Trazado 247986" d="M64.3,49.567a3.205,3.205,0,1,1-3.231-3.186A3.206,3.206,0,0,1,64.3,49.567" transform="translate(-34.339 -27.512)"/>
    <path id="Trazado_247987" data-name="Trazado 247987" d="M61.1,70.765a3.2,3.2,0,1,1-.028,6.4,3.2,3.2,0,0,1,.028-6.4" transform="translate(-34.338 -41.977)"/>
    <path id="Trazado_247988" data-name="Trazado 247988" d="M81.538,54.292c-.729,0-1.459.013-2.188,0a.938.938,0,0,1-1.028-.934.952.952,0,0,1,1.039-.933q2.188-.024,4.376,0c.684.007,1.07.392,1.049.975-.019.552-.393.881-1.059.894-.729.015-1.458,0-2.188,0" transform="translate(-46.46 -31.088)" fill="#010101"/>
    <path id="Trazado_247989" data-name="Trazado 247989" d="M81.564,76.836c.729,0,1.459-.012,2.188,0,.658.014,1.03.358,1.036.915a.918.918,0,0,1-1.011.952q-2.219.03-4.438,0a.938.938,0,1,1,.037-1.866c.729-.014,1.458,0,2.188,0" transform="translate(-46.461 -45.575)" fill="#010101"/>
    <path id="Trazado_247990" data-name="Trazado 247990" d="M81.53,103.092c-.688,0-1.376.006-2.064,0-.714-.007-1.152-.38-1.144-.957.008-.558.423-.914,1.108-.917q2.126-.012,4.253,0c.7,0,1.094.341,1.1.914.01.595-.4.952-1.13.96-.709.008-1.418,0-2.126,0" transform="translate(-46.46 -60.037)" fill="#000001"/>
    <path id="Trazado_247991" data-name="Trazado 247991" d="M80.185,46.856a.906.906,0,0,1-.907.916.936.936,0,0,1-.96-.939.966.966,0,0,1,.919-.93.944.944,0,0,1,.949.953" transform="translate(-46.457 -27.229)" fill="#020202"/>
    <path id="Trazado_247992" data-name="Trazado 247992" d="M79.28,70.3a.926.926,0,0,1,.906.985.9.9,0,0,1-.943.874.924.924,0,0,1-.917-.974.945.945,0,0,1,.954-.885" transform="translate(-46.461 -41.703)" fill="#010101"/>
    <path id="Trazado_247993" data-name="Trazado 247993" d="M80.187,95.646a.933.933,0,0,1-.895.938.957.957,0,0,1-.969-.939.915.915,0,0,1,.906-.921.9.9,0,0,1,.958.922" transform="translate(-46.46 -56.189)" fill="#020202"/>
    <path id="Trazado_247994" data-name="Trazado 247994" d="M75.2,22.714c-3.711,0-7.422-.01-11.133.011-.494,0-.647-.125-.622-.622.042-.811.037-1.627,0-2.438-.019-.448.131-.557.563-.554,2.585.019,5.171.009,7.756.009,4.858,0,9.715.008,14.573-.011.5,0,.647.129.622.624-.041.811-.037,1.627,0,2.438.02.449-.133.553-.563.552-3.732-.016-7.464-.009-11.2-.009" transform="translate(-37.631 -11.335)" fill="#fc4b52"/>
    <path id="Trazado_247995" data-name="Trazado 247995" d="M63.832,102.389a1.32,1.32,0,0,1-1.321-1.3,1.352,1.352,0,0,1,1.339-1.354,1.325,1.325,0,0,1,1.307,1.373,1.285,1.285,0,0,1-1.325,1.278" transform="translate(-37.081 -59.163)" fill="#f7b100"/>
    <path id="Trazado_247996" data-name="Trazado 247996" d="M63.82,51.012a1.29,1.29,0,0,1,1.338,1.329,1.332,1.332,0,0,1-1.3,1.323,1.354,1.354,0,0,1-1.349-1.345,1.319,1.319,0,0,1,1.31-1.307" transform="translate(-37.08 -30.26)" fill="#f7b100"/>
    <path id="Trazado_247997" data-name="Trazado 247997" d="M63.848,75.386a1.322,1.322,0,0,1-.015,2.644,1.322,1.322,0,1,1,.015-2.644" transform="translate(-37.08 -44.718)" fill="#f7b100"/>
  </g>
</svg>
