<svg id="Grupo_148693" data-name="Grupo 148693" xmlns="http://www.w3.org/2000/svg" xmlns:xlink="http://www.w3.org/1999/xlink" width="64.427" height="64.42" viewBox="0 0 64.427 64.42">
  <defs>
    <clipPath id="clip-path">
      <rect id="Rectángulo_89983" data-name="Rectángulo 89983" width="64.427" height="64.42" fill="none"/>
    </clipPath>
  </defs>
  <g id="Grupo_148692" data-name="Grupo 148692" clip-path="url(#clip-path)">
    <path id="Trazado_247998" data-name="Trazado 247998" d="M48.265,64.42H16.088a.61.61,0,0,1-.168-.4,17.334,17.334,0,0,1,.131-3.818A3.582,3.582,0,0,1,19.6,57.318c.67-.012,1.339,0,2.01,0,.393,0,.568-.179.568-.572,0-1.36,0-2.721,0-4.082,0-.415-.164-.627-.593-.617-.209.005-.419,0-.628,0q-7.788,0-15.575,0a5.842,5.842,0,0,1-2.977-.627A4.343,4.343,0,0,1,0,47.7V9.992A4.338,4.338,0,0,1,1.067,7.318,5.21,5.21,0,0,1,5.057,5.65c3.6-.01,7.2,0,10.806,0,.209,0,.419-.012.628,0,.488.027.665-.206.661-.678-.01-1.235,0-2.471,0-3.707C17.15,0,17.151,0,18.408,0H46.3c.836,0,.886.044.9.873.013.67-.006,1.34.007,2.01s.073.747.771.749c2.534.007,5.068,0,7.6,0,.189,0,.377,0,.566,0,1.005.012,1.094.1,1.114,1.126.017.851.042.873.891.885a11.541,11.541,0,0,1,2.5.147,4.6,4.6,0,0,1,3.759,4.68c.006,12.251-.013,24.5.015,36.754a4.831,4.831,0,0,1-4.918,4.808c-.419.014-.837.011-1.256.011H43.364c-.23,0-.46,0-.691.01-.294.015-.476.147-.481.459-.024,1.445-.026,2.89,0,4.334.006.363.252.443.552.452.565.016,1.131.005,1.7.007a3.692,3.692,0,0,1,3.985,3.576A27.035,27.035,0,0,1,48.45,63.9a.764.764,0,0,1-.185.521"/>
    <path id="Trazado_247999" data-name="Trazado 247999" d="M33.914,76.613q14.765,0,29.53-.014c.587,0,.717.165.706.724-.035,1.864-.01,3.728-.014,5.592a2.883,2.883,0,0,1-3.119,3.143q-27.173.006-54.347,0a2.884,2.884,0,0,1-3.111-3.15c0-1.885.02-3.771-.014-5.655-.01-.525.128-.652.651-.651q14.86.025,29.719.013" transform="translate(-1.671 -36.113)" fill="#afbdc4"/>
    <path id="Trazado_248000" data-name="Trazado 248000" d="M11.916,37.855q-.01-6.88-.026-13.76c0-.333.107-.462.432-.42a1.9,1.9,0,0,0,.252,0q13.854,0,27.709-.012c.555,0,.752.112.739.712-.042,1.862-.015,3.726-.015,5.586-.23.112-.314-.088-.425-.182C39.142,28.562,37.7,27.35,36.286,26.1c-.363-.321-.549-.321-.885.044-2.226,2.42-4.487,4.808-6.717,7.224-.3.327-.451.326-.763.014-1.553-1.557-3.147-3.073-4.694-4.635-.363-.367-.549-.312-.881.019q-4.361,4.349-8.75,8.667c-.148.147-.307.282-.461.423a1.021,1.021,0,0,1-1.218,0" transform="translate(-5.606 -11.157)" fill="#1bb8da"/>
    <path id="Trazado_248001" data-name="Trazado 248001" d="M57.783,36.276c-.057-.936-.057-.936-1-.936-6.555,0-13.109-.007-19.663.013-.57,0-.773-.136-.726-.724a11.9,11.9,0,0,0,0-2.008c-.056-.616.2-.71.741-.708,5.486.017,10.973.011,16.459.011.845,0,.845,0,.845-.832q0-8.953,0-17.906c0-.91.1-.784-.816-.784-5.486,0-10.973-.016-16.459.016-.665,0-.777-.194-.77-.8.033-2.429.007-4.858.015-7.288,0-.191-.111-.417.1-.579a1.15,1.15,0,0,1,.2.891c.008,1.736,0,3.473.006,5.209,0,.772.052.824.816.825q8.534.006,17.067,0c.76,0,.8-.048.816-.831.041-1.632-.022-3.263,0-4.894.014-.923.136-1.043,1.063-1.045,1.653,0,3.305,0,4.957,0a.944.944,0,0,0,.715-.153A4.226,4.226,0,0,1,62.23,5.4c0,.327-.314.2-.493.2-1.319.011-2.637.02-3.956,0-.409-.007-.582.058-.58.532q.027,7.976,0,15.953c0,.409.111.534.524.526,1.339-.024,2.68,0,4.019-.016.371-.005.505.091.512.488.022,1.408.038,1.408-1.339,1.408-1.19,0-1.19,0-1.19,1.171,0,2.764.026,5.528-.019,8.29-.011.67.2.817.807.77.665-.052,1.339,0,2.008-.017.33-.008.517.066.484.448s-.024.752-.034,1.127a.82.82,0,0,1-.637.189q-1.96.017-3.919,0a.808.808,0,0,1-.636-.189" transform="translate(-17.152 -1.768)" fill="#f4b11b"/>
    <path id="Trazado_248002" data-name="Trazado 248002" d="M16.31,42.427l1.21.018a1.129,1.129,0,0,1,.211.771.487.487,0,0,0,.55.533q.377.008.754.008H44.417c.272,0,.545-.008.817.007.71.038.882.219.891.922.009.737-.1.846-.867.846q-20.514,0-41.028,0a1.234,1.234,0,0,1-.617-.056c-.013-.165-.039-.331-.039-.5q0-13.584,0-27.169A2.785,2.785,0,0,1,5.828,14.79a1.2,1.2,0,0,1,.557-.05c3.517,0,7.033,0,10.55-.007.42,0,.748.023.767.559.021.553-.182.855-.7.938a5.054,5.054,0,0,1-.815.03H5.956c-.23,0-.46,0-.69.015a.443.443,0,0,0-.474.468c-.01.189-.013.377-.013.565q0,10.049,0,20.1c0,.084,0,.168,0,.251.016.755.067.817.835.818q5.212.01,10.425,0c.209,0,.419,0,.628,0,.911.018,1.053.163,1.056,1.069,0,.887-.054.973-.946.941-.485-.017-.649.146-.578.6.068.44-.127.9.112,1.33" transform="translate(-1.684 -6.946)" fill="#8fc9f8"/>
    <path id="Trazado_248003" data-name="Trazado 248003" d="M3.648,45.417q10.587,0,21.174-.01,10.211,0,20.421-.006c.231,0,.585.142.671-.153a2.2,2.2,0,0,0-.016-1.234c-.017-.057-.177-.093-.273-.1-.187-.016-.376-.007-.565-.007q-13.258,0-26.515,0c-1.128,0-.975.142-.989-1.014,0-.168,0-.335,0-.5.249-.013.5-.035.748-.035q11.5,0,23.01,0c.979,0,.979,0,1.036-.955h5.192v2.6c.314,0,.448-.209.614-.344q2.151-1.736,4.287-3.49a1.406,1.406,0,0,1,.969-.34c2.6.014,5.195,0,7.792.016.446,0,.608-.082.6-.578q-.039-4.525,0-9.05c0-.521-.165-.61-.637-.608-3.917.017-7.834,0-11.751.022-.543,0-.76-.093-.733-.7.053-1.2.014-1.2,1.235-1.2,2.723,0,5.446-.015,8.169.012.531.005.7-.1.7-.674-.03-3.938-.008-7.876-.026-11.815,0-.476.095-.676.609-.623a14.453,14.453,0,0,1,2.556.115.873.873,0,0,1-.763.2c-.53-.032-.688.218-.684.714.013,1.927.006,3.853.005,5.779,0,1.843,0,3.686,0,5.528,0,.86.057.909.936.919.356,0,.712,0,1.068,0,.854.019.988.15,1.01.982.006.23,0,.461,0,.691V39.912c0,.209,0,.419,0,.628-.017.911-.14,1.033-1.075,1.044-.649.008-1.3,0-1.947,0-2.031,0-4.062.011-6.093-.006a2.223,2.223,0,0,0-1.553.542c-1.189,1.017-2.442,1.957-3.674,3.029a1.646,1.646,0,0,0,.715.065q6.627,0,13.254.007c.346,0,.719-.084,1.016.2-.177.175-.4.083-.594.083q-29.655.008-59.311,0c-.2,0-.418.094-.593-.084" transform="translate(-1.72 -6.888)" fill="#64b4f5"/>
    <path id="Trazado_248004" data-name="Trazado 248004" d="M92.58,17.412c0,2.03-.008,4.06.007,6.089,0,.391-.08.544-.512.542q-6.089-.024-12.178,0c-.464,0-.542-.164-.541-.579q.02-6.058,0-12.116c0-.393.083-.541.514-.54q6.089.025,12.178,0c.465,0,.544.161.54.576-.019,2.009-.008,4.018-.008,6.027" transform="translate(-37.413 -5.096)" fill="#fc4b52"/>
    <path id="Trazado_248005" data-name="Trazado 248005" d="M62.258,3.721c0,.453-.339.336-.587.337-1.757.006-3.515.028-5.272-.011-.575-.013-.7.179-.689.715.031,1.841,0,3.683.021,5.524,0,.439-.131.573-.571.572q-8.976-.019-17.952,0c-.478,0-.6-.149-.6-.61.021-2.176.007-4.352.006-6.528.166-.011.332-.032.5-.032q12.322,0,24.644,0c.166,0,.332.021.5.032" transform="translate(-17.261 -1.738)" fill="#fccb15"/>
    <path id="Trazado_248006" data-name="Trazado 248006" d="M104.171,45.527H88.546c.725-.612,1.3-1.107,1.885-1.587.806-.66,1.632-1.3,2.428-1.967a1.87,1.87,0,0,1,1.3-.484c2.847.022,5.7,0,8.543.02.482,0,.649-.115.646-.627q-.031-6.031,0-12.062c0-.539-.172-.693-.681-.655s-1.049-.025-1.569.017c-.6.05-.8-.164-.791-.776.025-3.623.012-7.245.012-10.869,0-.419.014-.838,0-1.256-.013-.33.126-.449.446-.438.4.014.795,0,1.192,0a2.752,2.752,0,0,1,2.24,2.518c.017.187.016.376.016.564q0,13.522,0,27.044c0,.187-.025.373-.039.559" transform="translate(-41.745 -6.997)" fill="#8fc9f8"/>
    <path id="Trazado_248007" data-name="Trazado 248007" d="M17.19,42.373c-.378-.573-.147-1.2-.129-1.8.01-.3.381-.206.582-.181.6.076.86-.143.758-.755a.99.99,0,0,1,0-.313c.087-.548-.124-.71-.687-.706-3.854.025-7.708,0-11.562.024-.534,0-.717-.112-.715-.687q.031-10.652,0-21.3c0-.534.167-.663.678-.66,3.854.02,7.708.005,11.562.017.473,0,.737-.075.737-.644,0-.506-.162-.632-.649-.63-3.687.016-7.373.006-11.059,0a1.834,1.834,0,0,1,.922-.11c3.895,0,7.79.01,11.685-.007.479,0,.67.1.628.612a11.542,11.542,0,0,0,0,1.757c.033.458-.135.546-.562.544-3.916-.016-7.833,0-11.748-.025-.567,0-.68.149-.679.691q.031,9.079,0,18.158c0,.6.185.707.732.7,3.874-.022,7.749,0,11.623-.021.467,0,.673.081.64.609-.049.793-.025,1.591-.006,2.386.007.326-.1.443-.428.434-.649-.018-1.3.012-1.947,0-.306-.007-.475.056-.441.409a8.669,8.669,0,0,0,.067,1.5" transform="translate(-2.564 -6.892)" fill="#64b4f5"/>
    <path id="Trazado_248008" data-name="Trazado 248008" d="M87.4,55.206c0-.686-.019-1.23.007-1.772.017-.365-.125-.474-.471-.466-.774.017-1.55-.014-2.323.013-.391.014-.5-.12-.495-.5.018-1.821.015-3.643,0-5.465,0-.347.094-.474.459-.473q6.406.016,12.812,0c.356,0,.465.108.462.465-.015,1.821-.022,3.643,0,5.465.006.445-.169.51-.55.508-2.2-.014-4.4,0-6.594-.014a1.448,1.448,0,0,0-1.021.372c-.711.609-1.45,1.186-2.291,1.868" transform="translate(-39.658 -21.943)" fill="#a7e446"/>
    <path id="Trazado_248009" data-name="Trazado 248009" d="M40.886,41.974q4.253-4.574,8.5-9.15c.176-.19.29-.226.5-.041,1.56,1.36,3.132,2.708,4.7,4.06a23.353,23.353,0,0,1,.062,2.929c.019.646-.014,1.295.01,1.941a.477.477,0,0,1-.493.574c-.062.006-.125.015-.187.015-2.588,0-5.176.053-7.762-.029-.346-.073-.4-.254-.186-.527.2-.245.435-.451.651-.679a.345.345,0,0,0,.013-.546c-.044-.044-.088-.09-.131-.135-.678-.727-1.214-.638-1.659.261-.1.2,0,.311.126.432a7.724,7.724,0,0,1,.654.675c.18.227.2.418-.143.5-1.378.1-2.756.043-4.133.027-.208,0-.485.016-.526-.312" transform="translate(-19.276 -15.399)" fill="#9bcb65"/>
    <path id="Trazado_248010" data-name="Trazado 248010" d="M62.3,114.695a6.377,6.377,0,0,1,.082,1.675c.012.154-.074.23-.225.233s-.293,0-.44,0q-13.511,0-27.022.014c-.562,0-.758-.141-.672-.69.064-.408-.091-.834.089-1.235a12.6,12.6,0,0,0,1.566.076q12.527,0,25.054,0a12.6,12.6,0,0,0,1.567-.076" transform="translate(-16.033 -54.073)" fill="#bcbcbc"/>
    <path id="Trazado_248011" data-name="Trazado 248011" d="M62.4,113.594c-.042.146-.1.279-.284.279-.146,0-.293,0-.439,0q-13.37,0-26.74-.006c-.259,0-.616.16-.724-.277a1.527,1.527,0,0,1,1.7-1.233q6.085,0,12.169,0,6.3,0,12.608,0a1.527,1.527,0,0,1,1.705,1.233" transform="translate(-16.13 -52.972)" fill="#dfdfdf"/>
    <path id="Trazado_248012" data-name="Trazado 248012" d="M19.712,44.363q3.251-3.228,6.5-6.46c.212-.212.346-.22.557-.005.924.939,1.862,1.864,2.794,2.794a.629.629,0,0,1-.279.593c-.958.9-1.765,1.946-2.713,2.858a1.709,1.709,0,0,1-1.274.542c-1.606-.016-3.213,0-4.818-.014-.275,0-.646.127-.764-.308" transform="translate(-9.293 -17.793)" fill="#9bcb65"/>
    <path id="Trazado_248013" data-name="Trazado 248013" d="M53.8,103.737c-2.429,0-4.857-.013-7.285.011-.472.005-.6-.121-.594-.593.034-1.528.035-3.057.014-4.585-.006-.43.146-.516.542-.515q7.348.018,14.7,0c.457,0,.553.15.548.573-.019,1.507-.018,3.015.014,4.521.01.461-.1.606-.587.6-2.449-.025-4.9-.012-7.348-.012" transform="translate(-21.648 -46.228)" fill="#8fa3ad"/>
    <path id="Trazado_248014" data-name="Trazado 248014" d="M44.523,45.827c2.711,0,5.422,0,8.133.019.455,0,.559-.16.554-.58-.019-1.564,0-3.129,0-4.693.177.148.1.351.1.529,0,1.9-.011,3.81,0,5.715,0,.359-.028.578-.492.577-4.836-.015-9.671-.01-14.508-.011a3.288,3.288,0,0,1-.353-.052L39.5,45.7c.118.16.292.133.454.132q2.239,0,4.477-.013l.047-.04Z" transform="translate(-17.892 -19.128)" fill="#7bb242"/>
    <path id="Trazado_248015" data-name="Trazado 248015" d="M18.313,47c.156.2.381.136.58.136,1.733,0,3.465,0,5.2,0a.831.831,0,0,0,.685-.22c1.124-1.2,2.256-2.4,3.385-3.592,1.22,1.026,1.219,1.025.128,2.184q-1.334,1.416-2.662,2.838a.818.818,0,0,1-.632.34c-2.739-.01-5.479-.005-8.25-.005L18.313,47" transform="translate(-7.894 -20.425)" fill="#7bb242"/>
    <path id="Trazado_248016" data-name="Trazado 248016" d="M11.94,50.513l1.218,0a7.207,7.207,0,0,1-1.218,1.176Z" transform="translate(-5.629 -23.814)" fill="#07789c"/>
    <path id="Trazado_248017" data-name="Trazado 248017" d="M61.18,83.047c0,.8-.01,1.591,0,2.387.006.318-.09.44-.427.437q-2.418-.022-4.836,0c-.342,0-.425-.128-.423-.441q.016-2.418,0-4.836c0-.3.094-.4.4-.4q2.45.016,4.9,0c.308,0,.4.115.392.407-.014.816,0,1.633,0,2.449" transform="translate(-26.165 -37.806)"/>
    <path id="Trazado_248018" data-name="Trazado 248018" d="M24.053,27.256c1.246,0,1.218,0,1.252,1.248.015.533-.152.7-.667.651a10.783,10.783,0,0,0-1.443,0c-.334.016-.461-.113-.423-.435a1.488,1.488,0,0,0,0-.188c-.009-1.272-.009-1.272,1.279-1.272" transform="translate(-10.733 -12.85)" fill="#fdfefe"/>
    <path id="Trazado_248019" data-name="Trazado 248019" d="M17.524,28.216c0,.926,0,.926-1.06.925-.831,0-.84,0-.828-1.089.011-.961-.147-.792,1.119-.8.9,0,.755-.11.769.961" transform="translate(-7.37 -12.846)" fill="#fcfdfe"/>
    <path id="Trazado_248020" data-name="Trazado 248020" d="M75.61,47.2c0,1.4-.019,2.8.011,4.2.01.481-.156.6-.613.6-1.534-.005-1.534.012-1.534-1.545,0-2.447.012-4.893-.01-7.339,0-.491.088-.7.644-.693,1.5.024,1.5,0,1.5,1.517V47.2" transform="translate(-34.635 -20)" fill="#fccb15"/>
    <path id="Trazado_248021" data-name="Trazado 248021" d="M21.336,65.465c-1.04-.008-.913.1-.911-.951,0-1.085-.133-.929,1.051-.934.972,0,.825-.085.833,1.029.006.857,0,.857-.973.857" transform="translate(-9.627 -29.972)" fill="#fdfdfe"/>
    <path id="Trazado_248022" data-name="Trazado 248022" d="M93.106,19.05l-7.715,4.825V14.233l7.715,4.817" transform="translate(-40.258 -6.71)"/>
    <path id="Trazado_248023" data-name="Trazado 248023" d="M49.322,12.944c-1.318,0-2.637-.011-3.955.007-.357,0-.454-.107-.462-.461-.032-1.434-.045-1.434,1.366-1.434,2.3,0,4.6.012,6.9-.011.445,0,.56.123.555.56-.013,1.339.006,1.339-1.334,1.339H49.322" transform="translate(-21.167 -5.208)" fill="#fefefe"/>
    <path id="Trazado_248024" data-name="Trazado 248024" d="M66.926,12.948h-.439c-1.512,0-1.5,0-1.382-1.534.021-.271.1-.361.37-.358.961.011,1.922.022,2.882,0,.61-.015.453.456.381.688-.126.4.482,1.073-.373,1.194a10.287,10.287,0,0,1-1.439.012" transform="translate(-30.671 -5.212)" fill="#fefefe"/>
    <path id="Trazado_248025" data-name="Trazado 248025" d="M90.718,50.823c.877,0,1.754.012,2.631,0,.342-.007.468.1.48.459.05,1.436.063,1.436-1.378,1.436s-2.881-.015-4.321.01c-.447.007-.622-.09-.616-.582.017-1.317-.007-1.317,1.325-1.317h1.879" transform="translate(-41.259 -23.958)" fill="#fefdfe"/>
    <path id="Trazado_248026" data-name="Trazado 248026" d="M104.9,51.753c-.019,1.116.149.956-1.034.96-1,0-.85.11-.855-1.013,0-1.015-.09-.866,1.07-.874.818-.006.818,0,.818.927" transform="translate(-48.563 -23.961)" fill="#fdfcfd"/>
    <path id="Trazado_248027" data-name="Trazado 248027" d="M56.765,38.838a4.018,4.018,0,0,1-.248.323c-.683.736-1.378,1.461-2.051,2.207-.209.231-.344.258-.6.049-1.183-.956-1.188-.945-.156-2.031.5-.531,1.01-1.061,1.493-1.612.22-.25.378-.258.6-.014.239.262.512.493.767.742.087.085.2.156.2.336" transform="translate(-24.965 -17.718)" fill="#fefefe"/>
    <path id="Trazado_248028" data-name="Trazado 248028" d="M49.254,48.238c-.031,0-.06,0-.09,0l-.252-.274c-.318-.35-.955-.622-.926-1.014.028-.377.59-.7.889-1.076.19-.234.313-.239.546-.04,1.172,1,1.178.993.128,2.088-.1.105-.2.214-.3.321" transform="translate(-22.623 -21.539)" fill="#fefefd"/>
    <path id="Trazado_248029" data-name="Trazado 248029" d="M53.9,100.94c2.346,0,4.692.029,7.038-.018.67-.013.813.2.78.814-.049.9-.023,1.8-.007,2.7.006.351-.063.533-.477.532q-7.321-.017-14.642,0c-.369,0-.462-.149-.457-.487.015-.985.029-1.97-.005-2.954-.017-.479.144-.6.608-.6,2.388.022,4.776.01,7.164.01" transform="translate(-21.748 -47.58)" fill="#afbdc4"/>
    <path id="Trazado_248030" data-name="Trazado 248030" d="M60.013,83.762c.941,0,.941,0,.94,1.091,0,.8,0,.8-1.17.8-.721,0-.649-.006-.744-1.187-.075-.929.5-.677.973-.707" transform="translate(-27.831 -39.485)" fill="#f8f8f8"/>
    <path id="Trazado_248031" data-name="Trazado 248031" d="M91.228,22.088l-2.269,1.419V20.685l2.269,1.4" transform="translate(-41.94 -9.752)" fill="#fdfdfd"/>
  </g>
</svg>
