<svg id="Grupo_148689" data-name="Grupo 148689" xmlns="http://www.w3.org/2000/svg" xmlns:xlink="http://www.w3.org/1999/xlink" width="59.92" height="64.105" viewBox="0 0 59.92 64.105">
  <defs>
    <clipPath id="clip-path">
      <rect id="Rectángulo_89981" data-name="Rectángulo 89981" width="59.92" height="64.105" fill="none"/>
    </clipPath>
  </defs>
  <g id="Grupo_148688" data-name="Grupo 148688" transform="translate(0 0)" clip-path="url(#clip-path)">
    <path id="Trazado_247935" data-name="Trazado 247935" d="M41.87,52.46a1.083,1.083,0,0,1-1.163.742c-1.416-.012-2.832.016-4.246-.016-.44-.01-.568.157-.613.552a5.571,5.571,0,0,0,2.063,5.149.937.937,0,0,0,.674.237,6.449,6.449,0,0,1,1.616.094A2.7,2.7,0,0,1,42.222,60.9c.138.346.26.7.387,1.051.407,1.128.25,1.573-.756,2.158H18.065c-1.008-.584-1.164-1.029-.756-2.159.092-.254.186-.507.271-.764a2.914,2.914,0,0,1,2.637-2.056c.6-.079,1.245.231,1.8-.248a5.98,5.98,0,0,0,1.9-2.809,6.5,6.5,0,0,0,.166-2.233c-.023-.488-.2-.651-.714-.65q-10.046.028-20.092.011A3.094,3.094,0,0,1,.107,50.959,3.69,3.69,0,0,1,0,49.9Q0,33.288,0,16.67a3.024,3.024,0,0,1,3.306-3.3c1.606,0,3.213-.02,4.819.011.468.009.593-.111.589-.585C8.694,9.523,8.7,6.247,8.7,2.972A2.629,2.629,0,0,1,11.664.007C17.4.007,23.139.019,28.877,0a4.369,4.369,0,0,1,4.161,2.461c.344.638.536,1.515,1.125,1.821a4.975,4.975,0,0,0,2.092.083c1.648,0,3.3.024,4.944-.01a1.1,1.1,0,0,1,1.276.91A1.008,1.008,0,0,1,41.607,6.4a4.581,4.581,0,0,1-1.122.065H11.949c-1.192,0-1.192,0-1.193,1.208q0,14.174.006,28.348c0,.42-.127.892.292,1.219a1.276,1.276,0,0,0,.786.143q17.894,0,35.787,0c1.507,0,1.534-.037,1.534-1.541V7.754c0-1.233,0-1.233-1.235-1.3-.746.023-1.493.006-2.239,0a2.011,2.011,0,0,1-.849-.163c-.552-.255-.678-.577-.5-1.273a1.089,1.089,0,0,1,1.157-.658c1.042.025,2.086.005,3.13.008a2.371,2.371,0,0,1,2.588,2.611c.007,1.94.019,3.881-.011,5.821-.007.476.123.593.591.584,1.647-.03,3.3-.02,4.944-.01a2.989,2.989,0,0,1,3.177,3.173q.013,16.711,0,33.423a3.035,3.035,0,0,1-3.21,3.226q-5.852.014-11.7,0c-.821,0-1.043-.178-1.277-.984-.04-.6.156-.825.914-1.039,3.817-.034,7.634-.006,11.451-.016A3.079,3.079,0,0,0,56.9,51.1a.994.994,0,0,0,.883-1.053c.045-1.856.02-3.712.014-5.569a.508.508,0,0,0-.57-.577c-.271-.009-.541-.028-.812-.028q-26.658,0-53.315,0c-.3,0-.636-.095-.878.193a1.21,1.21,0,0,0-.1.612c0,1.711-.014,3.421,0,5.132.01.932.352,1.262,1.294,1.311.292.016.584.008.876.008H40.027a6.141,6.141,0,0,1,1,.033.948.948,0,0,1,.844,1.293" transform="translate(0 0)"/>
    <path id="Trazado_247936" data-name="Trazado 247936" d="M21.322,42.423c-.39-.165-.287-.515-.288-.81q-.009-4.911,0-9.821c0-6.651.007-13.3-.013-19.955,0-.528.142-.646.653-.645q14.92.023,29.84.011c.944,0,1.157-.15,1.414-.978.427,0,.856-.014,1.283.006a.613.613,0,0,0,.578-.253c.009.921.3,1.215,1.229,1.227l2.3.027a.688.688,0,0,1,.318.639c.018.25.012.5.012.751V41.034c0,.083,0,.167,0,.25-.008,1.124-.057,1.175-1.148,1.175q-17.712,0-35.424,0a2.8,2.8,0,0,1-.747-.035" transform="translate(-10.448 -4.96)" fill="#f8f5f5"/>
    <path id="Trazado_247937" data-name="Trazado 247937" d="M46.341,94.568a1.146,1.146,0,0,0-.76.9c-.425,0-.851.015-1.276-.005a.619.619,0,0,0-.576.252c-.041-.9-.315-1.14-1.316-1.14H5.443c-1.375,0-1.71-.325-1.7-1.684.008-1.938.024-3.875.036-5.813a1.375,1.375,0,0,1,.676-.057q26.779,0,53.558,0c.865,0,.922.045.927.905.01,1.689.006,3.379,0,5.068,0,.125-.005.25-.016.375-.092,1.014-.25,1.16-1.262,1.16q-5.318,0-10.637,0a1.788,1.788,0,0,0-.681.045" transform="translate(-1.858 -43.249)" fill="#d9e6ee"/>
    <path id="Trazado_247938" data-name="Trazado 247938" d="M58.449,60.095c-.208.008-.416.022-.624.022q-23.441,0-46.882.017c-.62,0-.731-.166-.73-.751q.033-10.953,0-21.906c0-.536.1-.728.671-.683a15.514,15.514,0,0,0,2.189,0c.548-.034.725.1.723.695-.026,5.779-.016,11.558-.016,17.338,0,2.019.873,2.892,2.89,2.892h36.8c1.921,0,2.814-.9,2.814-2.843q0-8.731-.011-17.463c0-.479.1-.666.607-.616s1.041.026,1.561.034a1.11,1.11,0,0,1,.2.828q.007,10.8,0,21.609a1.1,1.1,0,0,1-.2.827" transform="translate(-5.077 -18.287)" fill="#b0e3f8"/>
    <path id="Trazado_247939" data-name="Trazado 247939" d="M21.623,43.624c.292-.009.583-.025.875-.025H57.85c.885,0,.885,0,.885-.906q0-14.7,0-29.408a1.493,1.493,0,0,0-.123-.853c1.474-.1,1.474-.1,1.474,1.345V42.682c0,.976-.056,1.034-1.015,1.034q-18.4,0-36.79,0c-.219,0-.46.085-.658-.093" transform="translate(-10.749 -6.161)" fill="#d8e5ed"/>
    <path id="Trazado_247940" data-name="Trazado 247940" d="M3.747,43.948q0-6.068,0-12.136c0-1.157.324-1.476,1.489-1.477,1.585,0,3.17.028,4.754-.015.6-.016.571.3.559.7-.011.372.09.741-.537.717-1.229-.047-2.46-.016-3.691-.013-.9,0-1.187.292-1.188,1.2q0,11.6,0,23.209a.794.794,0,0,1-1.214.747c-.289-.133-.165-.4-.165-.606q-.012-6.162-.006-12.324" transform="translate(-1.853 -15.072)" fill="#2b388f"/>
    <path id="Trazado_247941" data-name="Trazado 247941" d="M58.093,108.98a7.346,7.346,0,0,0,1.555,3.749H48.586a7.493,7.493,0,0,0,1.543-3.75c.113-1.07.113-1.071,1.213-1.072q2.769,0,5.539,0c1.1,0,1.1,0,1.211,1.073" transform="translate(-24.152 -53.641)" fill="#c0d4e3"/>
    <path id="Trazado_247942" data-name="Trazado 247942" d="M106.13,60.108V36.845c1.4-.087,1.4-.087,1.4,1.28v21.2c0,.8,0,.806-.835.8-.187,0-.374-.015-.561-.022" transform="translate(-52.758 -18.3)" fill="#90d7f8"/>
    <path id="Trazado_247943" data-name="Trazado 247943" d="M112.325,30.378c1.2-.03,1.518.279,1.518,1.489q0,11.983,0,23.966c0,1.128,0,1.128-1.145,1.075a1.414,1.414,0,0,1-.119-.91q-.007-11.464,0-22.929c0-.584-.045-1.164-.093-1.743-.036-.318-.261-.606-.16-.949" transform="translate(-55.825 -15.1)" fill="#242e7a"/>
    <path id="Trazado_247944" data-name="Trazado 247944" d="M38.3,122.509c.257-1.026.484-1.215,1.455-1.215q9.259,0,18.517,0c.959,0,1.219.231,1.406,1.215Z" transform="translate(-19.04 -60.296)" fill="#d8e5ed"/>
    <path id="Trazado_247945" data-name="Trazado 247945" d="M31.677,6.214H30.621c-3,0-6.007-.011-9.01.011-.469,0-.593-.119-.592-.589,0-1.985-.033-1.921,1.862-1.906,1.877.015,3.755.046,5.631-.011a2.665,2.665,0,0,1,2.8,1.659,2.424,2.424,0,0,1,.369.837" transform="translate(-10.448 -1.847)" fill="#7fb3fa"/>
    <path id="Trazado_247946" data-name="Trazado 247946" d="M46.377,94.493c.215-.194.479-.108.72-.108,3.588-.006,7.175-.014,10.763.007.516,0,.79-.139.819-.67.01-.184.086-.366.086-.549.007-1.877,0-3.755.012-5.631,0-.4-.1-.593-.526-.544a4.357,4.357,0,0,1-.5,0L3.81,87c.143-.24.375-.114.559-.114q27.464-.008,54.927-.013c.521,0,.659.128.65.649-.033,1.835-.009,3.67-.015,5.5,0,1.069-.4,1.468-1.481,1.469q-6.037.009-12.073,0" transform="translate(-1.894 -43.174)" fill="#c0d4e3"/>
    <path id="Trazado_247947" data-name="Trazado 247947" d="M59.568,107.923c-.265-.872-.265-.872-1.26-.872H52.866c-1,0-1,0-1.262.871-.013-.6,0-1.205-.048-1.8-.024-.314.11-.338.352-.338q3.679.006,7.357,0c.243,0,.375.027.351.339-.047.6-.036,1.2-.048,1.8" transform="translate(-25.628 -52.584)" fill="#97b8d2"/>
    <path id="Trazado_247948" data-name="Trazado 247948" d="M107.128,30.355a1.467,1.467,0,0,1,.251.752c.027.422.248.863-.116,1.249a1.212,1.212,0,0,0-1.24-.642c-1.226.033-2.455-.015-3.681.021-.594.017-.494-.354-.486-.694.008-.324-.14-.723.468-.711,1.6.032,3.2.02,4.8.025" transform="translate(-50.628 -15.077)" fill="#2b388f"/>
    <path id="Trazado_247949" data-name="Trazado 247949" d="M44.016,3.768c2.591-.343,3.429.107,4.443,2.419-1,0-1.957,0-2.916,0A.316.316,0,0,1,45.248,6c-.41-.738-.816-1.478-1.232-2.233" transform="translate(-21.881 -1.822)" fill="#e8b04c"/>
    <path id="Trazado_247950" data-name="Trazado 247950" d="M54.514,3.759c.745,0,1.407-.044,2.061.012a2.115,2.115,0,0,1,1.642,1.011c.168.262.318.537.47.809.351.634.349.636-.367.636q-1.03,0-2.061,0c-.184,0-.382.034-.484-.189-.043-.094-.1-.182-.151-.272l-1.11-2.007" transform="translate(-27.099 -1.86)" fill="#db5ba1"/>
    <path id="Trazado_247951" data-name="Trazado 247951" d="M112.6,33.126c.236-.4.062-.834.117-1.249.2.186.121.43.121.649q.005,12.564,0,25.129c-.39-.037-.229-.343-.23-.53-.013-1.875-.008-3.75-.008-5.625q0-9.187,0-18.374" transform="translate(-55.961 -15.846)" fill="#293689"/>
    <path id="Trazado_247952" data-name="Trazado 247952" d="M59.738,15.492a2.2,2.2,0,0,1-2.681,2.138.813.813,0,0,0-.831.211q-2.2,2-4.44,3.954a.862.862,0,0,0-.338.74,2.2,2.2,0,0,1-1.618,2.191,2.181,2.181,0,0,1-2.554-1.075.873.873,0,0,0-.655-.48c-1.158-.256-2.31-.541-3.462-.819a.679.679,0,0,0-.725.15,2.064,2.064,0,0,1-2.427.383.61.61,0,0,0-.675.061q-2.069,1.285-4.155,2.545a.561.561,0,0,0-.3.595,2.2,2.2,0,0,1-1.519,2.2,2.236,2.236,0,0,1-2.536-3.417,2.182,2.182,0,0,1,2.549-.8.8.8,0,0,0,.749-.11c1.4-.868,2.8-1.735,4.2-2.585a.68.68,0,0,0,.386-.627A2.222,2.222,0,0,1,43,20.037a.685.685,0,0,0,.553.484c1.117.247,2.228.524,3.34.8a.563.563,0,0,0,.646-.2,2.077,2.077,0,0,1,2.428-.638.586.586,0,0,0,.7-.191c1.464-1.3,2.925-2.613,4.4-3.9a.685.685,0,0,0,.236-.7,2.228,2.228,0,1,1,4.441-.194" transform="translate(-15.116 -6.567)"/>
    <path id="Trazado_247953" data-name="Trazado 247953" d="M84.316,40.5q0,4.128,0,8.255c0,1.224-.567,1.785-1.8,1.792-1.063.006-2.126.009-3.189,0a1.55,1.55,0,0,1-1.738-1.74q-.013-8.317,0-16.635a1.543,1.543,0,0,1,1.75-1.722q1.626-.011,3.252,0a1.533,1.533,0,0,1,1.724,1.735q.007,4.159,0,8.317" transform="translate(-38.566 -15.132)"/>
    <path id="Trazado_247954" data-name="Trazado 247954" d="M44.636,45.148q0-3.346,0-6.692c0-1.222.569-1.783,1.8-1.789,1.084,0,2.168-.011,3.252,0a1.528,1.528,0,0,1,1.683,1.664q.014,6.818,0,13.635a1.535,1.535,0,0,1-1.685,1.667q-1.688.023-3.377,0A1.539,1.539,0,0,1,44.637,51.9c-.005-2.251,0-4.5,0-6.755" transform="translate(-22.188 -18.225)"/>
    <path id="Trazado_247955" data-name="Trazado 247955" d="M29.069,52.851a1.057,1.057,0,0,1-.911-1.207c.029-1.125,0-2.251.011-3.376a1.5,1.5,0,0,1,1.623-1.644c1.167-.017,2.335-.02,3.5,0a1.476,1.476,0,0,1,1.593,1.556q.039,4.408,0,8.816a1.5,1.5,0,0,1-1.636,1.583q-1.719.029-3.439,0a1.523,1.523,0,0,1-1.645-1.692c0-.354.012-.709,0-1.063a.975.975,0,0,1,.9-1.134.953.953,0,0,1,1.144.895c.051.281-.03.586.158.839a5.158,5.158,0,0,0,2.153.067c.3-.011.329-.279.343-.513.027-.437.011-.875.012-1.313q0-2.406,0-4.813c0-1.17,0-1.188-1.149-1.193-.462,0-.955-.178-1.381.154a11.22,11.22,0,0,0-.1,2.359,2.57,2.57,0,0,1-.136,1.043c-.21.421-.461.81-1.043.636" transform="translate(-13.997 -23.17)"/>
    <path id="Trazado_247956" data-name="Trazado 247956" d="M67.84,54.528c0,1.209.007,2.418,0,3.627a1.519,1.519,0,0,1-1.616,1.664q-1.75.034-3.5,0a1.524,1.524,0,0,1-1.62-1.665q-.018-3.689,0-7.378a1.529,1.529,0,0,1,1.684-1.661q1.688-.019,3.376,0a1.533,1.533,0,0,1,1.678,1.724c.006,1.23,0,2.46,0,3.689" transform="translate(-30.369 -24.411)"/>
    <path id="Trazado_247957" data-name="Trazado 247957" d="M29.964,54.74c.792-.229.965-.458.975-1.275q.019-1.491.042-2.983a4.755,4.755,0,0,1,1.236-.061c.23-.017.337.122.39.324a1.934,1.934,0,0,1,.051.5c.006,2.165.012,4.33,0,6.5-.005.764-.074.824-.817.813a2.018,2.018,0,0,1-.861-.058c-.013-.245-.031-.491-.037-.737-.018-.751-.24-1.019-.982-1.174l.006-1.84" transform="translate(-14.892 -25.059)" fill="#85f0a6"/>
    <path id="Trazado_247958" data-name="Trazado 247958" d="M57.519,94.479c-.354,0-.709.02-1.061,0a.914.914,0,0,1-.9-.93.9.9,0,0,1,.892-.929c.748-.028,1.5-.027,2.246,0a.9.9,0,0,1,.9.925.929.929,0,0,1-.892.939c-.041,0-.083,0-.125,0H57.519Z" transform="translate(-27.62 -46.029)"/>
    <path id="Trazado_247959" data-name="Trazado 247959" d="M67.5,31.121a.359.359,0,0,1-.044.714.344.344,0,0,1-.367-.4.35.35,0,0,1,.41-.315" transform="translate(-33.352 -15.47)" fill="#dfdcdc"/>
    <path id="Trazado_247960" data-name="Trazado 247960" d="M83.954,16.945a.344.344,0,0,1,.344.346.33.33,0,0,1-.316.377A.337.337,0,0,1,83.6,17.3a.35.35,0,0,1,.357-.352" transform="translate(-41.557 -8.423)" fill="#e3e1e1"/>
    <path id="Trazado_247961" data-name="Trazado 247961" d="M51,27.7c.2.057.36.172.341.383a.341.341,0,0,1-.42.338.329.329,0,0,1-.3-.395A.374.374,0,0,1,51,27.7" transform="translate(-25.161 -13.768)" fill="#dedbdb"/>
    <path id="Trazado_247962" data-name="Trazado 247962" d="M34.864,38.628c-.022.2-.105.345-.334.351a.341.341,0,1,1-.04-.68c.224-.015.334.115.374.329" transform="translate(-16.982 -19.038)" fill="#efecec"/>
    <path id="Trazado_247963" data-name="Trazado 247963" d="M81.468,34.251a14.342,14.342,0,0,1,2.656-.086.208.208,0,0,1,.235.227c.006.146.006.292.006.438,0,5.007-.012,10.015.016,15.022,0,.587-.183.72-.707.663a11.493,11.493,0,0,1-2.215-.1.6.6,0,0,1,.509-.192c.574.024.683-.3.683-.792q-.009-7.095,0-14.19c0-.537-.154-.836-.738-.806a.533.533,0,0,1-.449-.183" transform="translate(-40.494 -16.973)" fill="#d94092"/>
    <path id="Trazado_247964" data-name="Trazado 247964" d="M81.384,34.358c1.381.026,1.381.026,1.381,1.432q0,6.9,0,13.8c0,1.014.107.909-.888.917-.166,0-.333.006-.5.009-.129-.167-.071-.362-.071-.544q0-7.54,0-15.079c0-.181-.064-.377.079-.539" transform="translate(-40.41 -17.08)" fill="#db5ba1"/>
    <path id="Trazado_247965" data-name="Trazado 247965" d="M48.436,40.477a14.185,14.185,0,0,1,2.7-.089c.236-.013.255.158.252.338,0,.229,0,.458,0,.686,0,3.87-.008,7.74.011,11.61,0,.467-.116.636-.588.584a12.44,12.44,0,0,1-2.38-.107.762.762,0,0,1,.638-.192c.5.021.639-.245.639-.7q-.005-5.623,0-11.246c0-.448-.13-.719-.636-.7a.752.752,0,0,1-.637-.192" transform="translate(-24.076 -20.065)" fill="#60a1f7"/>
    <path id="Trazado_247966" data-name="Trazado 247966" d="M48.408,40.588c1.467.023,1.467.023,1.467,1.526,0,3.575-.019,7.151.017,10.726.007.652-.185.863-.8.773a4.653,4.653,0,0,0-.685,0c-.01-2.742-.027-5.485-.029-8.227,0-1.6.021-3.2.033-4.8" transform="translate(-24.048 -20.177)" fill="#7fb3fa"/>
    <path id="Trazado_247967" data-name="Trazado 247967" d="M31.984,58.445c1.48-.008,1.48-.008,1.48-1.508,0-1.911-.033-3.824.018-5.734.018-.665-.2-.852-.809-.768a4.863,4.863,0,0,1-.685,0,12.992,12.992,0,0,1,2.7-.089c.237-.012.236.188.237.358q0,3.746,0,7.492c0,.143.008.341-.187.334a11.647,11.647,0,0,1-2.753-.088" transform="translate(-15.899 -25.014)" fill="#7fe09b"/>
    <path id="Trazado_247968" data-name="Trazado 247968" d="M67.81,56.333c0,.979-.015,1.958.008,2.936.009.381-.056.565-.5.539-.664-.039-1.333-.025-2,0-.359.013-.515-.061-.51-.473.021-2.02.018-4.04,0-6.059,0-.373.136-.457.474-.446.686.022,1.375.034,2.061,0,.41-.02.481.141.473.5-.022,1-.008,2-.008,3" transform="translate(-32.217 -26.262)" fill="#fecf64"/>
    <path id="Trazado_247969" data-name="Trazado 247969" d="M65.039,56.352c0-.915.035-1.832-.013-2.745-.03-.576.271-.587.686-.574.38.013.728-.067.716.544q-.054,2.838,0,5.677c.012.613-.338.53-.717.543-.417.015-.713,0-.685-.576.048-.954.013-1.913.013-2.87" transform="translate(-32.324 -26.362)" fill="#fdde7c"/>
  </g>
</svg>
