<svg id="Grupo_148761" data-name="Grupo 148761" xmlns="http://www.w3.org/2000/svg" xmlns:xlink="http://www.w3.org/1999/xlink" width="63.954" height="72.281" viewBox="0 0 63.954 72.281">
  <defs>
    <clipPath id="clip-path">
      <rect id="Rectángulo_90024" data-name="Rectángulo 90024" width="63.954" height="72.281" fill="none"/>
    </clipPath>
  </defs>
  <g id="Grupo_148761-2" data-name="Grupo 148761" clip-path="url(#clip-path)">
    <path id="Trazado_249030" data-name="Trazado 249030" d="M91.913,23.859a1.229,1.229,0,0,1,.893,1.523A22.97,22.97,0,0,1,81.951,42.731a3.286,3.286,0,0,0-1.758,3.182c.053.867.02,1.74.007,2.61a4.118,4.118,0,0,0,.637,2.464,4.679,4.679,0,0,1,.106,4.335.923.923,0,0,0-.011.932,4.555,4.555,0,0,1-.96,5.31.527.527,0,0,0-.165.606,7.887,7.887,0,0,1,.006,2.735,2.779,2.779,0,0,1-2.73,2.3,4.9,4.9,0,0,0-1.81.064c-.508.239-.31,1.043-.526,1.58a5.406,5.406,0,0,1-5.464,3.414,5.288,5.288,0,0,1-4.747-4.322c-.109-.612-.332-.82-.929-.742a7.6,7.6,0,0,1-1.128.007,2.833,2.833,0,0,1-2.861-2.865,7.515,7.515,0,0,1,.113-2.314c.082-.271-.085-.368-.266-.494a2.9,2.9,0,0,1-1.27-2.6c.02-1.025-.14-2.078.543-2.988.17-.226-.082-.386-.173-.559a5.016,5.016,0,0,1,.557-5.026.926.926,0,0,0,.191-.709c0-1.317-.018-2.634.007-3.951a3.055,3.055,0,0,0-1.591-2.85,22.9,22.9,0,0,1-10.466-14.2A23.229,23.229,0,0,1,65.53.252,2.676,2.676,0,0,0,66.663,0h.847a1.042,1.042,0,0,1,1.008,1.026c-.158.86-.431,1.153-1.327,1.287A21.728,21.728,0,0,0,59.91,4.645,20.956,20.956,0,0,0,51.8,12.39a20.314,20.314,0,0,0-2.847,12.167,20.652,20.652,0,0,0,4.968,12.053,22.44,22.44,0,0,0,5.2,4.4,5.16,5.16,0,0,1,2.512,4.54c.013,1.034.018,2.069,0,3.1-.011.511.179.725.7.714.94-.021,1.881,0,2.821-.007.341,0,.616-.076.614-.5-.012-2.632.057-5.265-.032-7.9a.859.859,0,0,0-.061-.2,7.4,7.4,0,0,0-1.61-2.459,5.935,5.935,0,0,1-1.2-2.744,6.957,6.957,0,0,1-.061-1.055c0-1.975-.007-3.951,0-5.926a1.392,1.392,0,0,0-.521-1.223,1.132,1.132,0,0,1,.008-1.832,6.04,6.04,0,0,0,.79-.892,1.161,1.161,0,0,1,2.072.071,1.035,1.035,0,0,0,.992.513q3.6-.011,7.2,0a1.119,1.119,0,0,0,1.039-.562,1.176,1.176,0,0,1,2.117.065,3.73,3.73,0,0,0,.712.766,1.172,1.172,0,0,1-.088,1.972,1.132,1.132,0,0,0-.519,1.066c.011,2.187-.03,4.375.019,6.561a4.656,4.656,0,0,1-1.058,3.062c-2.124,2.733-1.746,2.091-1.776,5.178-.017,1.74-.009,3.481,0,5.221,0,.742.065.8.81.8.847.008,1.694-.02,2.54.009.591.021.789-.233.774-.8-.025-.94.024-1.882-.013-2.822a5.222,5.222,0,0,1,2.69-4.866,21.256,21.256,0,0,0,7.075-7.153,20.484,20.484,0,0,0,2.824-8.5,1.636,1.636,0,0,1,.6-1.228c.246-.185.509-.365.828-.131" transform="translate(-37.77)"/>
    <path id="Trazado_249031" data-name="Trazado 249031" d="M178.1,0c1.327.352,2.7.518,4,.986,8.841,3.184,14.127,9.38,15.787,18.642.147.82-.058,1.11-.861,1.437-.511.249-.859,0-1.134-.4a2.2,2.2,0,0,1-.314-.929,20.437,20.437,0,0,0-6.79-12.363,20.1,20.1,0,0,0-10.59-4.948c-.737-.11-1.536-.13-1.889-.989A1.094,1.094,0,0,1,176.243,1a1.078,1.078,0,0,1,.864-1Z" transform="translate(-142.992)"/>
    <path id="Trazado_249032" data-name="Trazado 249032" d="M100.24,6.949a1.51,1.51,0,0,0,1.19.743,20.939,20.939,0,0,1,17.925,16.293c.116.5.2,1.012.278,1.522a1.139,1.139,0,0,0,1.223,1.1,17.809,17.809,0,0,1,.114,2.793c-.882.172-1.125.413-1.225,1.276a20.932,20.932,0,0,1-10.162,16,4.894,4.894,0,0,0-2.445,4.406c.005,1.153-.016,2.306.01,3.458.009.414-.073.579-.534.565-1.152-.035-2.305-.025-3.458,0-.374.007-.531-.061-.528-.489.021-2.635.012-5.27.01-7.9a2.553,2.553,0,0,1,.626-1.607c2.444-3.111,2.255-2.758,2.254-6.673,0-1.623.006-3.247-.005-4.87,0-.312.041-.519.394-.626a.94.94,0,0,0,.67-.974.967.967,0,0,0-.688-.968.543.543,0,0,1-.424-.468,1.032,1.032,0,0,0-2,0c-.076.38-.287.407-.6.406q-4.058-.012-8.116,0c-.355,0-.535-.062-.616-.465a.922.922,0,0,0-1-.721.963.963,0,0,0-.958.7c-.087.272-.158.478-.5.58A1.029,1.029,0,0,0,91.64,32.9c.42.132.448.378.446.734-.011,2.188.015,4.376-.013,6.564a5.061,5.061,0,0,0,1.2,3.513c.413.481.782,1,1.163,1.508A1.781,1.781,0,0,1,94.9,46.3c.075.908.032,1.814.031,2.7-.177.042-.276.025-.338-.046-1.316-1.474-3.149-2.276-4.606-3.58a22.442,22.442,0,0,1-6.744-10.623,21.5,21.5,0,0,1-.819-7.672A22.357,22.357,0,0,1,99.295,6.964c.306-.078.627-.253.945-.016" transform="translate(-66.826 -5.54)" fill="#fedf7c"/>
    <path id="Trazado_249033" data-name="Trazado 249033" d="M9.926,71.224c.175.054.379.107.576.181,1.027.39,2.058.771,3.077,1.183a1.06,1.06,0,1,1-.719,1.989c-1.123-.4-2.236-.83-3.345-1.27a1.007,1.007,0,0,1-.692-1.229,1.09,1.09,0,0,1,1.1-.855" transform="translate(-7.132 -57.787)" fill="#010100"/>
    <path id="Trazado_249034" data-name="Trazado 249034" d="M306.451,72.459a1.077,1.077,0,0,1-.7.936c-1.135.439-2.268.882-3.416,1.285a1.024,1.024,0,0,1-1.367-.629,1,1,0,0,1,.595-1.33c1.171-.472,2.351-.925,3.546-1.33a1.054,1.054,0,0,1,1.339,1.07" transform="translate(-244.133 -57.88)" fill="#010100"/>
    <path id="Trazado_249035" data-name="Trazado 249035" d="M306.434,151.1a1.072,1.072,0,0,1-1.412,1.079c-1.172-.4-2.327-.854-3.472-1.325a1.023,1.023,0,0,1-.578-1.4,1.052,1.052,0,0,1,1.351-.573c1.145.409,2.275.858,3.409,1.295a1.093,1.093,0,0,1,.7.92" transform="translate(-244.115 -120.74)" fill="#010100"/>
    <path id="Trazado_249036" data-name="Trazado 249036" d="M9.85,152.17a1.007,1.007,0,0,1-1.04-.78.921.921,0,0,1,.507-1.184q1.806-.765,3.664-1.4a.954.954,0,0,1,1.223.574,1.013,1.013,0,0,1-.3,1.27A29.424,29.424,0,0,1,9.85,152.17" transform="translate(-7.105 -120.682)" fill="#010000"/>
    <path id="Trazado_249037" data-name="Trazado 249037" d="M2.917,113.52c.609,0,1.219-.025,1.826.007a.994.994,0,0,1,1.03,1.015,1.029,1.029,0,0,1-1.036,1.1c-1.217.033-2.435.03-3.652,0A1.079,1.079,0,0,1,0,114.57a1.058,1.058,0,0,1,1.091-1.047c.608-.027,1.217-.006,1.826-.006v0" transform="translate(0 -92.094)" fill="#010100"/>
    <path id="Trazado_249038" data-name="Trazado 249038" d="M311.336,113.519c.609,0,1.218-.016,1.826.006a.986.986,0,0,1,1.037,1.012,1.023,1.023,0,0,1-1.03,1.1c-1.216.034-2.435.031-3.651,0a1.061,1.061,0,0,1-1.08-1.065,1.028,1.028,0,0,1,1.073-1.053c.607-.028,1.217-.006,1.825-.005" transform="translate(-250.247 -92.095)" fill="#010100"/>
    <path id="Trazado_249039" data-name="Trazado 249039" d="M80.329,5.627A22.025,22.025,0,0,0,62.8,24.936,21.965,21.965,0,0,0,73.3,46.165a8.588,8.588,0,0,1,1.688,1.423V44.977a2.522,2.522,0,0,1,.091.475c0,2.61-.006,5.221,0,7.831,0,.346-.064.506-.459.5q-1.8-.035-3.6,0c-.4.008-.459-.15-.453-.493.018-1.129,0-2.258.008-3.386a5.057,5.057,0,0,0-2.569-4.623A21.061,21.061,0,0,1,74.042,6.77a19.342,19.342,0,0,1,2.217-.4A1.219,1.219,0,0,0,77.512,5.2l2.786,0,.031.428" transform="translate(-46.914 -4.218)" fill="#fec150"/>
    <path id="Trazado_249040" data-name="Trazado 249040" d="M149.5,145.727c1.34,0,2.681.019,4.021-.011.442-.01.55.126.546.554-.02,2.3-.015,4.609-.006,6.914a2.7,2.7,0,0,1-.607,1.757c-2.551,3.213-2.262,2.886-2.271,6.805,0,1.834-.017,3.669.011,5.5.007.444-.119.56-.55.54a21.749,21.749,0,0,0-2.257,0c-.487.027-.633-.1-.627-.61.029-2.446-.008-4.892.021-7.337a4.707,4.707,0,0,0-1.219-3.5,6.024,6.024,0,0,1-1.725-4.991c.138-1.682.042-3.384.019-5.077-.006-.428.112-.567.55-.559,1.363.026,2.728.01,4.092.01" transform="translate(-117.489 -118.226)" fill="#fedf7d"/>
    <path id="Trazado_249041" data-name="Trazado 249041" d="M138.158,276.238a4.371,4.371,0,0,1,.063,1.871c-.043.547-.486.682-.983.68-1.55-.006-3.1,0-4.649,0q-5.988,0-11.976,0c-1.037,0-1.25-.2-1.226-1.225.011-.478-.156-.98.128-1.436.216.88.862.917,1.616.914q7.759-.033,15.518,0c.687,0,1.248-.076,1.509-.8" transform="translate(-96.831 -224.031)" fill="#e1dee1"/>
    <path id="Trazado_249042" data-name="Trazado 249042" d="M138.874,274.449c-.046,1.013-.046,1.013-1.093,1.013H121.336c-1.1,0-1.1,0-1.106-1.126.145-.377.465-.416.8-.416q8.489,0,16.979,0c.389,0,.761.047.86.528" transform="translate(-97.547 -222.242)" fill="#eeebee"/>
    <path id="Trazado_249043" data-name="Trazado 249043" d="M119.94,301.873c.129-.4.454-.419.793-.419h17.019c.4,0,.757.05.85.532.12,1.056-.033,1.258-1.092,1.261q-8.231.023-16.462,0c-1.124,0-1.269-.207-1.108-1.374" transform="translate(-97.268 -244.581)" fill="#eeebee"/>
    <path id="Trazado_249044" data-name="Trazado 249044" d="M119.5,303.677c.027,1.15.027,1.151,1.2,1.151h16.355c1.045,0,1.045,0,1.11-1.038a4.943,4.943,0,0,1,.053,1.876.657.657,0,0,1-.663.616c-.187.016-.375.019-.563.019q-8.175,0-16.35,0c-1.113,0-1.278-.151-1.256-1.255.009-.456-.149-.933.118-1.368" transform="translate(-96.832 -246.385)" fill="#e1dee1"/>
    <path id="Trazado_249045" data-name="Trazado 249045" d="M142.828,331.292a4.46,4.46,0,0,1,.062,1.943c-.045.466-.425.621-.883.617-1.246-.012-2.492,0-3.739,0q-5.114,0-10.228,0c-.964,0-1.17-.19-1.149-1.148a3.051,3.051,0,0,1,.106-1.446c.262.76.844.825,1.552.82q6.42-.039,12.84,0c.661,0,1.212-.051,1.44-.78" transform="translate(-102.923 -268.759)" fill="#e1dee1"/>
    <path id="Trazado_249046" data-name="Trazado 249046" d="M143.434,329.308c-.021.993-.021.993-1.052.993H128.7c-1.05,0-1.05,0-1.1-1.032.121-.448.495-.457.845-.457q7.049-.009,14.1,0c.379,0,.768.02.89.5" transform="translate(-103.529 -266.775)" fill="#edeaed"/>
    <path id="Trazado_249047" data-name="Trazado 249047" d="M156.722,359.011a3.172,3.172,0,0,1-4-2.34c-.054-.256-.123-.459.266-.457,1.972.006,3.944,0,5.915,0,.068,0,.129.042.1.134-.374.288-.813.167-1.227.184-.4.017-.8,0-1.2,0-.9.006-.95.126-.61.99.206.522.7.889.754,1.481" transform="translate(-123.877 -289.011)" fill="#6d5fb7"/>
    <path id="Trazado_249048" data-name="Trazado 249048" d="M168.841,359.573a4.965,4.965,0,0,1-1.187-2.175c-.107-.42.037-.494.392-.491,1.025.008,2.051.006,3.076.007a2.961,2.961,0,0,1-2.282,2.659" transform="translate(-135.996 -289.573)" fill="#8378c1"/>
    <path id="Trazado_249049" data-name="Trazado 249049" d="M206.389,36.565a1.358,1.358,0,0,1,.73.232,17.306,17.306,0,0,1,8.863,10.777c.232.78-.022,1.358-.648,1.542s-1.13-.173-1.372-.964a15.3,15.3,0,0,0-7.852-9.488A1.109,1.109,0,0,1,205.4,37.3a.975.975,0,0,1,.993-.74" transform="translate(-166.607 -29.666)"/>
    <path id="Trazado_249050" data-name="Trazado 249050" d="M127.905,82.116c-.049,1.4.082,3.12-.081,4.832a17.842,17.842,0,0,1-11.383,15,1.4,1.4,0,0,1-1.117,0,17.667,17.667,0,0,1-11.181-13.412,15.608,15.608,0,0,1-.3-3.308c.008-2.637,0-5.275,0-7.912,0-.731.18-.964.909-1.127q5.427-1.218,10.857-2.427a1.34,1.34,0,0,1,.6.022q5.366,1.2,10.734,2.383c.783.174.959.4.959,1.226,0,1.47,0,2.94,0,4.72" transform="translate(-84.256 -59.828)"/>
    <path id="Trazado_249051" data-name="Trazado 249051" d="M133.589,90.159c-.044,1.25.078,2.779-.078,4.3a15.925,15.925,0,0,1-5.8,10.914,15.651,15.651,0,0,1-4.092,2.454.707.707,0,0,1-.613.018A15.971,15.971,0,0,1,113.1,94.856a22.079,22.079,0,0,1-.108-3.28c0-1.931.005-3.862-.006-5.793,0-.284.079-.382.366-.445q4.781-1.047,9.554-2.131a1.693,1.693,0,0,1,.762,0c3.183.716,6.366,1.434,9.554,2.132.316.069.376.195.373.486-.015,1.354-.006,2.709-.006,4.34" transform="translate(-91.669 -67.471)" fill="#fbdc6d"/>
    <path id="Trazado_249052" data-name="Trazado 249052" d="M125.341,106.073q0-.646,0-1.291c.06-.11.176-.143.277-.195a.778.778,0,0,0,.472-.717.735.735,0,0,0-.509-.684c-.089-.039-.2-.052-.238-.165a5.973,5.973,0,0,1,.063-1.316c.073-.184.254-.172.4-.2,2.4-.538,4.812-1.056,7.211-1.614a1.288,1.288,0,0,1,.6,0c2.118.5,4.245.952,6.368,1.426.483.108.537.17.539.672,0,1.744.062,3.49-.015,5.23a12.356,12.356,0,0,1-1.537,5.445,13.02,13.02,0,0,1-5.236,5.252.735.735,0,0,1-.8.006,12.823,12.823,0,0,1-6.559-8.785,10.317,10.317,0,0,1-.257-1.881,1.024,1.024,0,0,0-.619-1.036.319.319,0,0,1-.156-.144" transform="translate(-101.69 -81.014)" fill="#e0f3fc"/>
    <path id="Trazado_249053" data-name="Trazado 249053" d="M121.693,99.1c.693.175.831.38.891,1.114a12.787,12.787,0,0,0,6.859,10.7.414.414,0,0,0,.469-.013,12.654,12.654,0,0,0,6.758-9.984c.244-2.034.051-4.088.1-6.132,0-.178-.059-.239-.236-.278-2.245-.493-4.488-1-6.733-1.5a2.354,2.354,0,0,0-1.009.165c-2.344.512-4.686,1.038-7.028,1.559-.6-.08-.9-.358-.917-.837s.274-.793.851-.921c2.469-.549,4.94-1.091,7.405-1.655a2.7,2.7,0,0,1,1.233.021q3.617.816,7.237,1.621c.738.165.926.4.926,1.163,0,1.931.078,3.865-.02,5.791a14.386,14.386,0,0,1-8.305,12.791,1,1,0,0,1-.984.006,14.469,14.469,0,0,1-8.168-10.973,13.479,13.479,0,0,1-.16-1.5c-.043-.694.157-.947.839-1.14" transform="translate(-98.042 -74.046)"/>
    <path id="Trazado_249054" data-name="Trazado 249054" d="M121.7,116.65c.563.111.859.4.87.854s-.275.75-.871.907c-.609-.166-.86-.434-.851-.908.008-.458.289-.738.853-.852" transform="translate(-98.049 -94.643)" fill="#010101"/>
    <path id="Trazado_249055" data-name="Trazado 249055" d="M144.994,128.566a.905.905,0,0,1-.733-.357c-.7-.825-1.4-1.645-2.092-2.477a.864.864,0,1,1,1.329-1.1c.445.51.89,1.022,1.308,1.554.194.247.309.227.529.026q2.519-2.306,5.06-4.589a2.68,2.68,0,0,1,.437-.348.849.849,0,0,1,1.084.229.832.832,0,0,1-.083,1.138c-.539.52-1.1,1.013-1.659,1.516l-4.455,4.033a1.052,1.052,0,0,1-.725.372" transform="translate(-115.147 -98.312)"/>
  </g>
</svg>
