<svg id="Grupo_148765" data-name="Grupo 148765" xmlns="http://www.w3.org/2000/svg" xmlns:xlink="http://www.w3.org/1999/xlink" width="72.146" height="72.281" viewBox="0 0 72.146 72.281">
  <defs>
    <clipPath id="clip-path">
      <rect id="Rectángulo_90025" data-name="Rectángulo 90025" width="72.145" height="72.281" fill="none"/>
    </clipPath>
  </defs>
  <g id="Grupo_148764" data-name="Grupo 148764" clip-path="url(#clip-path)">
    <path id="Trazado_249056" data-name="Trazado 249056" d="M39.412,62.952c.346,2.329-.156,3.38-2.1,4.4-.244.128-.273.238-.227.495.474,2.622-1.026,4.431-3.667,4.432q-10.833,0-21.665.005a11.142,11.142,0,0,1-5.17-1.233c-.99-.506-2-.966-2.975-1.508a4.766,4.766,0,0,0-3.093-.759c-.413.062-.52-.1-.519-.513q.019-9.4,0-18.794c0-.412.11-.58.519-.511a3.646,3.646,0,0,0,2.8-.872A31.6,31.6,0,0,1,7.043,45.7a12.345,12.345,0,0,1,5.434-1.388c1.453-.031,2.908-.035,4.362,0,.509.012.638-.119.634-.632-.026-3.156-.013-6.313-.013-9.47q0-15.552-.016-31.1c0-.629.132-.788.776-.786,8.046.026,16.091.013,24.137.027.472,0,.684-.075.8-.6A2.187,2.187,0,0,1,45.38.015c4.847-.007,9.694-.04,14.54.025a12.127,12.127,0,0,1,6.712,2.268c.721.49,1.473.937,2.165,1.464a3.549,3.549,0,0,0,2.863.9c.373-.066.486.082.485.47q-.019,8.851,0,17.7c0,.375-.09.542-.478.479a5.239,5.239,0,0,0-3.226.809,23.717,23.717,0,0,1-5.7,2.469c-1.079.219-1.074.244-1.074,1.333q0,17.082.016,34.164c0,.668-.1.88-.836.876-6.882-.034-13.765-.02-20.647-.02Z" transform="translate(0 0)"/>
    <path id="Trazado_249057" data-name="Trazado 249057" d="M138.907,30.971c.654,0,1.308.022,1.961.005.308-.008.458.072.412.4a2.671,2.671,0,0,0,0,.364q0,23.711.015,47.421c0,.619-.117.794-.772.793q-19.011-.036-38.023,0c-.619,0-.806-.117-.792-.775.049-2.282.031-4.565.008-6.847,0-.443.1-.562.555-.567a22.364,22.364,0,0,0,4.133-.12,5.826,5.826,0,0,0,4.627-5.6,2.317,2.317,0,0,0-2.356-2.42q-3.2-.028-6.4.005c-.445.005-.561-.1-.561-.557q.02-19.267,0-38.534c0-.446.1-.562.556-.561q11.342.023,22.683,0a.763.763,0,0,1,.775.465,5.4,5.4,0,0,0,5.179,3c1.985-.111,3.6.233,4.851,1.929a5.447,5.447,0,0,0,3.019,1.592c-.291.3-.673.232-1.027.234-1.526.011-3.053,0-4.579.011-.319,0-.744-.122-.89.293a2.033,2.033,0,0,0,.012,1.358c.077.217.314.209.5.211,1.769.018,3.537.011,5.306.007.479,0,.616-.256.628-.69a2.615,2.615,0,0,1,.179-1.423" transform="translate(-81.938 -19.318)" fill="#e5e8ec"/>
    <path id="Trazado_249058" data-name="Trazado 249058" d="M27.065,247.315c0,2.842.017,5.535-.014,8.227-.006.544.127.676.672.674,5.791-.022,11.581-.014,17.372-.013a4.1,4.1,0,0,1,.725.017,1.159,1.159,0,0,1,.01,2.3,3.439,3.439,0,0,1-.653.018c-4.264,0-8.529.01-12.793-.012-.529,0-.693.1-.682.665.034,1.678.006,1.679,1.691,1.679q4.834,0,9.667,0a1.386,1.386,0,0,1,1.13.377,1.093,1.093,0,0,1,.259,1.145,1.133,1.133,0,0,1-.95.8,4.32,4.32,0,0,1-.653.017c-7.123,0-14.247-.009-21.37.008a9.377,9.377,0,0,1-4.4-1.059c-1.612-.829-3.233-1.643-4.874-2.411-.289-.135-.265-.279-.265-.48,0-4.758.012-9.516-.02-14.274,0-.552.411-.435.637-.592,1.193-.828,2.426-1.6,3.613-2.435a11.309,11.309,0,0,1,6.819-2.079c4.24.041,8.48.024,12.72,0,.618,0,.732.154.588.734a3.519,3.519,0,0,1-3.457,2.773q-2.289.024-4.579,0a1.071,1.071,0,0,0-.889.363c-.424.465-.886.9-1.329,1.345a5.658,5.658,0,0,1-4.227,1.782c-.5-.006-.634.163-.576.615a4.577,4.577,0,0,1,0,.582c0,1.234,0,1.243,1.259,1.126a8.319,8.319,0,0,0,4.558-1.871" transform="translate(-9.606 -193.25)" fill="#efcfb3"/>
    <path id="Trazado_249059" data-name="Trazado 249059" d="M241.139,11.988c2.058,0,4.117.005,6.175,0a10.509,10.509,0,0,1,5.96,1.768c1.332.881,2.611,1.859,4.008,2.619a1.2,1.2,0,0,1,.691,1.32q-.02,6.151,0,12.3a.706.706,0,0,1-.49.782c-1.6.739-3.169,1.551-4.743,2.346a10.857,10.857,0,0,1-2.235.833c-.487.124-.7.074-.7-.553.032-4.561,0-9.123.032-13.685,0-.6-.121-.789-.74-.754-1.038.058-2.082.016-3.123.015a3.426,3.426,0,0,1-2.487-1.012c-.674-.663-1.355-1.32-2-2.011a1.355,1.355,0,0,0-1.129-.485c-1.113.036-2.228.025-3.342.007a3.529,3.529,0,0,1-3.438-2.885c-.092-.465-.005-.626.513-.619,2.349.028,4.7.012,7.047.012" transform="translate(-188.156 -9.648)" fill="#efcfb3"/>
    <path id="Trazado_249060" data-name="Trazado 249060" d="M264.2,59.954c.015.653.014,1.306.051,1.958.019.344-.134.391-.426.39-2.057-.01-4.115-.012-6.172,0-.336,0-.381-.128-.4-.423-.1-1.916-.107-1.914,1.8-1.916q2.5,0,5.009-.013a.787.787,0,0,0,.13,0" transform="translate(-207.228 -48.3)"/>
    <path id="Trazado_249061" data-name="Trazado 249061" d="M196.018,222.55c-3.271,0-6.542-.014-9.813.014-.543,0-.673-.127-.671-.672q.033-8.667,0-17.334c0-.544.127-.673.67-.671q9.813.032,19.627,0c.543,0,.673.127.671.671q-.033,8.667,0,17.334c0,.544-.127.677-.671.672-3.271-.029-6.542-.014-9.813-.014" transform="translate(-149.475 -164.261)"/>
    <path id="Trazado_249062" data-name="Trazado 249062" d="M124.261,35.971c3.247,0,6.494.014,9.74-.014.544,0,.673.127.671.672q-.035,7.5,0,15c0,.546-.129.673-.671.671q-9.813-.032-19.626,0c-.543,0-.673-.127-.67-.671q.035-7.5,0-15c0-.546.129-.676.671-.671,3.3.028,6.591.014,9.886.014" transform="translate(-91.605 -28.968)"/>
    <path id="Trazado_249063" data-name="Trazado 249063" d="M131.148,155.923c5.6,0,11.195.008,16.792-.013.534,0,.688.111.677.667-.034,1.677-.007,1.678-1.689,1.678q-16.247,0-32.493.015c-.6,0-.769-.124-.751-.741.047-1.6.014-1.6,1.618-1.6h15.847" transform="translate(-91.588 -125.608)"/>
    <path id="Trazado_249064" data-name="Trazado 249064" d="M152.845,131.932c4.8,0,9.6.01,14.392-.014.543,0,.682.126.672.672-.033,1.673-.007,1.673-1.693,1.673q-13.92,0-27.84.015c-.6,0-.763-.138-.746-.746.046-1.6.014-1.6,1.621-1.6h13.593" transform="translate(-110.881 -106.279)"/>
    <path id="Trazado_249065" data-name="Trazado 249065" d="M195.982,182.246c-3.271,0-6.541-.012-9.812.012-.5,0-.647-.11-.639-.629.024-1.714,0-1.715,1.724-1.715,6.178,0,12.356.008,18.533-.013.557,0,.727.122.713.7-.04,1.641-.011,1.641-1.652,1.641h-8.867" transform="translate(-149.472 -144.937)"/>
    <path id="Trazado_249066" data-name="Trazado 249066" d="M239.33,83.969c1.744,0,3.488.013,5.231-.01.411-.005.517.112.522.521.022,1.82.037,1.82-1.76,1.82-3.1,0-6.2-.011-9.3.011-.474,0-.6-.121-.6-.6.01-1.746-.009-1.746,1.762-1.746h4.142" transform="translate(-188.06 -67.641)"/>
    <path id="Trazado_249067" data-name="Trazado 249067" d="M239.243,110.285c-1.768,0-3.536-.012-5.3.009-.407.005-.52-.1-.525-.519-.023-1.822-.038-1.822,1.758-1.822,3.1,0,6.2.01,9.3-.011.47,0,.6.113.6.593-.01,1.749.01,1.749-1.76,1.749h-4.069" transform="translate(-188.045 -86.964)"/>
    <path id="Trazado_249068" data-name="Trazado 249068" d="M119.527,206.242c-1.768,0-3.536-.012-5.3.009-.408.005-.519-.106-.524-.519-.023-1.822-.038-1.822,1.758-1.822,3.1,0,6.2.01,9.3-.011.47,0,.6.114.6.594-.01,1.748.01,1.749-1.76,1.749h-4.069" transform="translate(-91.597 -164.271)"/>
    <path id="Trazado_249069" data-name="Trazado 249069" d="M119.538,287.882c1.768,0,3.536.012,5.3-.009.406,0,.52.1.526.518.023,1.823.038,1.823-1.757,1.823-3.1,0-6.2-.01-9.3.011-.468,0-.6-.111-.6-.593.01-1.749-.01-1.75,1.759-1.75h4.069" transform="translate(-91.61 -231.924)"/>
    <path id="Trazado_249070" data-name="Trazado 249070" d="M233.491,61.133c0-1.113,0-1.113,1.143-1.113,1.183,0,1.183,0,1.183,1.218,0,1.113,0,1.113-1.143,1.113-1.183,0-1.183,0-1.183-1.218" transform="translate(-188.111 -48.355)"/>
    <path id="Trazado_249071" data-name="Trazado 249071" d="M114.943,131.989c1.161,0,1.161,0,1.161,1.168s0,1.163-1.166,1.163-1.161,0-1.161-1.168,0-1.163,1.166-1.163" transform="translate(-91.664 -106.337)"/>
    <path id="Trazado_249072" data-name="Trazado 249072" d="M113.776,181.085c0-1.118,0-1.118,1.139-1.118,1.188,0,1.188,0,1.188,1.214,0,1.118,0,1.118-1.139,1.118-1.188,0-1.188,0-1.188-1.214" transform="translate(-91.663 -144.99)"/>
    <path id="Trazado_249073" data-name="Trazado 249073" d="M140.047,181.076c0,1.223,0,1.223-1.251,1.223-1.076,0-1.076,0-1.076-1.108,0-1.223,0-1.223,1.251-1.223,1.076,0,1.076,0,1.076,1.108" transform="translate(-110.954 -144.991)"/>
    <path id="Trazado_249074" data-name="Trazado 249074" d="M163.99,181.154c0,1.146,0,1.146-1.111,1.146-1.216,0-1.216,0-1.216-1.186,0-1.146,0-1.146,1.111-1.146,1.216,0,1.216,0,1.216,1.186" transform="translate(-130.243 -144.991)"/>
    <path id="Trazado_249075" data-name="Trazado 249075" d="M161.662,241.055c0-1.113,0-1.113,1.143-1.113,1.183,0,1.183,0,1.183,1.218,0,1.113,0,1.113-1.143,1.113-1.183,0-1.183,0-1.183-1.218" transform="translate(-130.243 -193.309)"/>
    <path id="Trazado_249076" data-name="Trazado 249076" d="M162.823,266.262c-1.161,0-1.161,0-1.161-1.168s0-1.163,1.166-1.163,1.161,0,1.161,1.168,0,1.163-1.166,1.163" transform="translate(-130.243 -212.635)"/>
    <path id="Trazado_249077" data-name="Trazado 249077" d="M205.674,229.894c-2.519,0-5.038-.013-7.557.011-.475,0-.6-.124-.6-.6q.028-6.407,0-12.813c0-.477.125-.6.6-.6q7.556.026,15.113,0c.475,0,.6.123.6.6q-.028,6.407,0,12.813c0,.477-.125.6-.6.6-2.519-.024-5.038-.011-7.557-.011" transform="translate(-159.131 -173.936)" fill="#fbd670"/>
    <path id="Trazado_249078" data-name="Trazado 249078" d="M133.843,47.979c2.518,0,5.036.012,7.554-.011.47,0,.605.117.6.6q-.031,5.24,0,10.479c0,.475-.124.6-.6.6q-7.554-.026-15.108,0c-.47,0-.605-.117-.6-.6q.031-5.239,0-10.479c0-.475.124-.605.6-.6,2.518.024,5.036.011,7.554.011" transform="translate(-101.262 -38.645)" fill="#b3dc7f"/>
    <path id="Trazado_249079" data-name="Trazado 249079" d="M214.976,234.976c-.205,0-.278-.146-.376-.244-.842-.837-1.674-1.685-2.524-2.514-.24-.234-.286-.392-.01-.637.434-.386.778-1.045,1.26-1.158.543-.128.869.628,1.258,1.02.36.362.518.124.745-.1,2.137-2.146,4.29-4.277,6.407-6.444.405-.415.618-.4,1.007.005,1.129,1.178,1.147,1.161-.026,2.336l-7.344,7.358c-.135.135-.275.265-.4.381" transform="translate(-170.698 -180.94)"/>
  </g>
</svg>
