<svg xmlns="http://www.w3.org/2000/svg" xmlns:xlink="http://www.w3.org/1999/xlink" width="190" height="104" viewBox="0 0 190 104">
  <defs>
    <clipPath id="clip-path">
      <rect id="Rect치ngulo_90029" data-name="Rect치ngulo 90029" width="49.435" height="66.536" fill="none"/>
    </clipPath>
  </defs>
  <g id="Grupo_148772" data-name="Grupo 148772" transform="translate(-285.049 -411)">
    <rect id="Rect치ngulo_41122" data-name="Rect치ngulo 41122" width="190" height="104" transform="translate(285.049 411)" fill="none"/>
    <g id="Grupo_117447" data-name="Grupo 117447" transform="translate(-3337.23 1038.208)" opacity="0.3">
      <path id="Trazado_158283" data-name="Trazado 158283" d="M3677.784-530.075h0a16.354,16.354,0,0,0,23.129,0l67.216-67.214a16.357,16.357,0,0,0,0-23.129,16.355,16.355,0,0,0-23.129,0L3677.784-553.2A16.353,16.353,0,0,0,3677.784-530.075Z" transform="translate(14.296)" fill="#fc4b52"/>
      <path id="Trazado_158284" data-name="Trazado 158284" d="M3652.069-530.075h0a16.354,16.354,0,0,0,23.129,0l67.216-67.214a16.358,16.358,0,0,0,0-23.129,16.355,16.355,0,0,0-23.129,0L3652.069-553.2A16.354,16.354,0,0,0,3652.069-530.075Z" transform="translate(0)" fill="#feca2e"/>
    </g>
    <g id="Grupo_148773" data-name="Grupo 148773" transform="translate(355.049 430)">
      <g id="Grupo_148773-2" data-name="Grupo 148773" clip-path="url(#clip-path)">
        <path id="Trazado_249104" data-name="Trazado 249104" d="M7.3,26c-.968-.076-1.3-.34-1.535-1.272A3.649,3.649,0,0,0,5.3,23.6a4.791,4.791,0,0,1-.731-3.588,6.866,6.866,0,0,1,2.306-4.161,3.717,3.717,0,0,1,2.143-.99,2.1,2.1,0,0,0,1.713-1.109c.241-.383.451-.786.686-1.172a1.752,1.752,0,0,1,1.594-1.039c.3.012.409-.191.551-.375a8.044,8.044,0,0,0,1.479-2.927,3.671,3.671,0,0,1,2.836-2.791,43.277,43.277,0,0,0,5.158-1.7,4.586,4.586,0,0,0,1.36-.737A11.966,11.966,0,0,1,29.792,0h1.689c.378.129.769.228,1.131.392a4.22,4.22,0,0,1,2.757,3.689,2.3,2.3,0,0,1-2.153,2.528c-3.1.474-5.062,2.408-6.454,5.066-.192.368-.067.5.3.634A9.045,9.045,0,0,1,33.2,19.617c.081.444.255.609.685.653a19.757,19.757,0,0,1,2.31.329,6.885,6.885,0,0,1,4.149,3.117,1.253,1.253,0,0,0,1.035.636c1.273.081,2.55.158,3.811.34,3,.433,4.392,2.8,3.366,5.645a6.322,6.322,0,0,1-.838,1.674,1.48,1.48,0,0,0-.139,1.629,12.156,12.156,0,0,1,.837,2.238,2.465,2.465,0,0,1-.288,1.931.845.845,0,0,0-.044.851c.377.964.767,1.924,1.1,2.9a2.913,2.913,0,0,1-.713,3.446,3.3,3.3,0,0,1-3.764.424c-.6-.286-1.153-.677-1.729-1.018-.278-.165-.551-.342-.842-.483-.253-.123-.572-.262-.8-.064s.045.471.1.7a6.48,6.48,0,0,1,.3,1.652,2.968,2.968,0,0,1-2.219,3.053c-.123.04-.247.078-.369.12-.607.211-.7.421-.424,1.014a9.679,9.679,0,0,1,.878,2.5,4.784,4.784,0,0,1-.177,2.746,10.239,10.239,0,0,0-.608,5.1,10.543,10.543,0,0,1-.062,2.848A3.483,3.483,0,0,1,35.5,66.528a2.652,2.652,0,0,1-2.709-1.811,17.232,17.232,0,0,1-.664-2.367,13.049,13.049,0,0,0-.448-1.486,1.659,1.659,0,0,0-2.2-1.158,11.827,11.827,0,0,1-4.292.474,3.477,3.477,0,0,1-2.939-2.235.863.863,0,0,0-.548-.56,2.539,2.539,0,0,1-1.663-2c-.051-.252-.081-.469-.4-.593a2.308,2.308,0,0,1-1.41-1.742,1.375,1.375,0,0,0-.7-.938A24.157,24.157,0,0,0,12.194,49.8a.708.708,0,0,0-.766.145,2.393,2.393,0,0,1-2.78.328A10.822,10.822,0,0,1,6.438,48.7c-.5-.408-1.008-.817-1.529-1.2a2.2,2.2,0,0,0-1.049-.485C1.99,46.8,1.023,45.488.241,44a1.835,1.835,0,0,1,.266-2.179.829.829,0,0,0,.16-.715,2.182,2.182,0,0,1,1.684-2.492,4.465,4.465,0,0,1,1.332-.253A1.814,1.814,0,0,0,5.39,37.287a7.95,7.95,0,0,0,.485-1.056,1.408,1.408,0,0,1,1.571-1.153,1.27,1.27,0,0,1,1.163,1.59c-.431,1.925-1.927,4.31-4.468,4.433-.426.021-.646.154-.592.625a2,2,0,0,1-.195.947c-.29.737-.078,1.362.7,1.51,1.9.36,3.217,1.623,4.625,2.763.2.163.4.326.605.49a.483.483,0,0,0,.741-.031,2.081,2.081,0,0,1,2-.464,17.982,17.982,0,0,1,4.358,1.474A16.8,16.8,0,0,1,19.3,49.982a3.277,3.277,0,0,1,1.5,1.889.71.71,0,0,0,.534.515,1.841,1.841,0,0,1,1.348,1.792.821.821,0,0,0,.668.829,1.912,1.912,0,0,1,1.352,1.443,1.232,1.232,0,0,0,1.59,1.03,23.573,23.573,0,0,0,2.491-.453,4.457,4.457,0,0,1,5.521,2.9,22.332,22.332,0,0,1,.8,2.875c.074.3.05.824.5.784.426-.038.455-.532.5-.888a6.674,6.674,0,0,0,0-1.556,12.263,12.263,0,0,1,.6-6.072,3.411,3.411,0,0,0-.042-2.478c-.17-.469-.4-.914-.594-1.37a3.26,3.26,0,0,1,1.876-4.315c.1-.036.2-.072.306-.109.718-.266.8-.409.594-1.168a6.773,6.773,0,0,1-.39-2.093A2.168,2.168,0,0,1,39.485,41.7a3.879,3.879,0,0,1,4.3-.034c.474.262.926.56,1.375.864a3.249,3.249,0,0,0,.742.4.531.531,0,0,0,.555-.017c.185-.153.122-.355.065-.541a13.768,13.768,0,0,0-.488-1.342,7.111,7.111,0,0,1-.817-3.113,2.112,2.112,0,0,1,.22-1,1.2,1.2,0,0,0,.031-1.174c-.221-.517-.455-1.029-.635-1.564a3.66,3.66,0,0,1,.382-3.354,7.377,7.377,0,0,0,.761-1.505,1.2,1.2,0,0,0-.886-1.8,10.827,10.827,0,0,0-2.7-.294,19.266,19.266,0,0,1-1.935-.2,2.94,2.94,0,0,1-2.12-1.357c-.228-.344-.491-.66-.746-.982a3.689,3.689,0,0,0-2.769-1.494c-.489-.028-1.036-.351-1.449-.047-.373.275-.328.867-.494,1.31a20.108,20.108,0,0,1-6.261,8.775c-1.721,1.385-3.045,1.39-4.752-.014a18.546,18.546,0,0,1-6.71-10.527,9.29,9.29,0,0,1,7.82-10.893,1.233,1.233,0,0,0,1.174-.967A10.528,10.528,0,0,1,27.68,6.167a9.806,9.806,0,0,1,4.3-2.193c.144-.03.333-.028.385-.194.06-.192-.094-.328-.223-.437a2.388,2.388,0,0,0-2.317-.461A6.653,6.653,0,0,0,27,4.443,11.77,11.77,0,0,1,22.552,6.9c-1.268.442-2.562.8-3.848,1.187a1.408,1.408,0,0,0-1.032,1.04,10.36,10.36,0,0,1-2.583,4.447,1.6,1.6,0,0,1-.668.5,2.25,2.25,0,0,0-1.373,1.179,4.638,4.638,0,0,1-3.562,2.332,2.038,2.038,0,0,0-1.416,1.045,3.124,3.124,0,0,0-.285,3.746,4.591,4.591,0,0,1,.722,2.269A1.18,1.18,0,0,1,7.3,26" transform="translate(0)"/>
        <path id="Trazado_249105" data-name="Trazado 249105" d="M20.7,38.293c1.029-.456,1.233-.9.956-2a6.737,6.737,0,0,0-.78-1.841,3.433,3.433,0,0,1,2.239-4.77,4.8,4.8,0,0,0,3.471-2.664,1.178,1.178,0,0,1,.8-.648,3.014,3.014,0,0,0,1.595-1.27A10.422,10.422,0,0,0,30.9,21.379a1.506,1.506,0,0,1,1.192-1.18,38.179,38.179,0,0,0,5.941-2.03,8.178,8.178,0,0,0,1.939-1.284,7.752,7.752,0,0,1,3.406-1.93,2.2,2.2,0,0,1,2.743,1.317A11.68,11.68,0,0,0,38.61,21.4a6.42,6.42,0,0,0-1.068,2.277c-.087.375-.257.445-.605.483a9.189,9.189,0,0,0-8.374,8.63,9.618,9.618,0,0,0,.786,4.371,20.887,20.887,0,0,0,5.478,7.786c.064.058.129.116.2.171,1.977,1.641,3.221,1.708,5.174.035a19.277,19.277,0,0,0,6.243-9.586c.1-.348.179-.521.593-.432.484.1.988.115,1.481.179a3.805,3.805,0,0,1,2.917,1.96c.889,1.6,2.3,1.962,3.923,2.04a19.221,19.221,0,0,1,2.971.26c1.3.267,1.643.917,1.2,2.169a5.69,5.69,0,0,1-.708,1.381,3.394,3.394,0,0,0-.409,3.27,12.248,12.248,0,0,0,.479,1.2,1.755,1.755,0,0,1,.06,1.855,2.658,2.658,0,0,0,.072,2.268c.343.955.731,1.893,1.079,2.846.092.25.286.561.032.788a.8.8,0,0,1-.973,0c-.634-.371-1.245-.782-1.879-1.153a3.989,3.989,0,0,0-3.159-.593,2.447,2.447,0,0,0-1.952,3.427c.1.332.209.659.294.994.2.794.128.948-.637,1.175a3.163,3.163,0,0,0-2.432,2.729,3.01,3.01,0,0,0,.332,1.757,8.632,8.632,0,0,1,.706,1.806,2.841,2.841,0,0,1-.094,1.785,11.854,11.854,0,0,0-.706,5.8,8.406,8.406,0,0,1-.028,2.329.868.868,0,0,1-.32.614c-.326.215-.624.321-.758-.22-.239-.964-.478-1.929-.757-2.882-.85-2.909-2.859-4.073-5.8-3.383a14.569,14.569,0,0,1-2.3.4c-1.117.08-1.483-.163-1.753-1.24a1.639,1.639,0,0,0-1.327-1.272c-.544-.117-.676-.375-.672-.891A1.587,1.587,0,0,0,34.51,64.8c-.27-.066-.417-.154-.449-.444a2.491,2.491,0,0,0-1.26-1.8,21.642,21.642,0,0,0-7.477-3.162,1.788,1.788,0,0,0-1.983.627c-.2.282-.369.127-.531,0-.7-.551-1.382-1.113-2.074-1.668a6.773,6.773,0,0,0-3.313-1.67c-.546-.075-.825-.594-1.153-.989-.131-.158.06-.268.136-.385a1.958,1.958,0,0,0,.339-1.481c-.089-.421.068-.564.435-.571,2.535-.048,3.741-1.692,4.541-3.8.4-1.058.151-1.6-.868-2.08a12.182,12.182,0,0,0-.284-3.221c.094-.165.27-.2.426-.263a1.039,1.039,0,0,0,.721-.964,1.062,1.062,0,0,0-.609-1.1c-.15-.076-.32-.131-.394-.307q0-1.609-.01-3.218" transform="translate(-13.407 -12.292)" fill="#cae458"/>
        <path id="Trazado_249106" data-name="Trazado 249106" d="M35.52,168.242c.886.251,1.249.68,1.2,1.418-.046.692-.453,1.061-1.343,1.219-.876-.259-1.287-.737-1.225-1.425s.525-1.088,1.369-1.213" transform="translate(-28.215 -139.023)" fill="#010100"/>
        <path id="Trazado_249107" data-name="Trazado 249107" d="M115.156,90.011a10,10,0,0,1-1.483,4.446,17.278,17.278,0,0,1-4.38,5.331c-.33.258-.639.491-1.079.125-3.013-2.506-5.266-5.515-5.957-9.449a6.468,6.468,0,0,1,3.973-6.835A6.365,6.365,0,0,1,113.7,85.6a6.768,6.768,0,0,1,1.457,4.409" transform="translate(-84.429 -68.7)" fill="#fe5a58"/>
        <path id="Trazado_249108" data-name="Trazado 249108" d="M124.86,102.414A3.892,3.892,0,0,1,121,106.329a3.941,3.941,0,0,1-3.936-3.922,3.9,3.9,0,0,1,3.911-3.861,3.849,3.849,0,0,1,3.881,3.868" transform="translate(-96.737 -81.431)"/>
        <path id="Trazado_249109" data-name="Trazado 249109" d="M133.383,113.5a1.262,1.262,0,0,1,1.26,1.278,1.284,1.284,0,0,1-1.313,1.3,1.317,1.317,0,0,1-1.277-1.287,1.3,1.3,0,0,1,1.329-1.289" transform="translate(-109.12 -93.79)" fill="#fdf1d9"/>
      </g>
    </g>
  </g>
</svg>
